<?xml version="1.0" standalone="no"?>
<!DOCTYPE svg PUBLIC "-//W3C//DTD SVG 1.1//EN" "http://www.w3.org/Graphics/SVG/1.1/DTD/svg11.dtd" >
<svg xmlns="http://www.w3.org/2000/svg">
<metadata></metadata>
<defs>
<font id="funny_handscript_2regular" horiz-adv-x="1705" >
<font-face units-per-em="2048" ascent="1536" descent="-512" />
<missing-glyph horiz-adv-x="1024" />
<glyph horiz-adv-x="2048" />
<glyph horiz-adv-x="2048" />
<glyph unicode="&#xd;" horiz-adv-x="2048" />
<glyph unicode=" "  horiz-adv-x="1024" />
<glyph unicode="&#x09;" horiz-adv-x="1024" />
<glyph unicode="&#xa0;" horiz-adv-x="1024" />
<glyph unicode="!" horiz-adv-x="509" d="M55.5 614q3.5 10 3.5 11q6 17 12.5 51t12.5 51h-12q0 19 6 45t6 37q45 86 45 92q0 19 12.5 45t12.5 37q0 -11 -7.5 -25.5t-17.5 -21.5q0 40 18.5 103.5t38.5 103.5q20 59 37 94q2 8 4.5 20.5t4.5 22t5 18.5t7.5 14t11.5 5q12 10 94 10q0 -4 14.5 -19t32.5 -31t21 -20 q0 -3 -2 -9.5t-2 -12t4 -10.5q12 -13 22 -25v-22h15q-2 -4 -7.5 -13t-7 -12t-3.5 -9.5t-1 -11.5t4 -12q3 2 13 17.5t22 15.5q-4 -7 -9.5 -14t-8 -13t-2.5 -16q3 0 4 -1.5t0.5 -4.5t-1.5 -6t-2 -6.5t-1 -6.5q0 -6 -7.5 -17t-7.5 -17v-11q0 -25 -22 -71v14h-10 q-19 -24 -41.5 -105.5t-38.5 -103.5q0 15 5.5 38.5t14 53t12.5 45.5q0 24 23 72q0 13 12.5 39t12.5 29q-6 -5 -18.5 -28.5t-18.5 -29.5q-24 -59 -33 -67q-2 -7 -8 -32t-10.5 -41.5t-12.5 -39.5t-16 -39l-10 10v15q4 0 7 6t6.5 17.5t8.5 19.5q0 34 35 104q0 9 2.5 16t2.5 11 t-5 10q-7 -17 -25 -47q-5 -5 -10.5 -17.5t-11.5 -17.5q12 -12 0 -22l-10 -13q0 -14 -25 -35q0 -5 -6 -22t-6 -25q0 -12 -10.5 -45t-10.5 -45q0 -6 -6 -18.5t-6 -18.5q0 -11 -6 -37t-6 -30q0 -6 -6.5 -17.5t-6.5 -17.5q0 -79 13 -115h-13l-10 11q5 -10 -1 -19.5t1 -15.5 q0 -3 5 -11.5t5 -21.5h-10q0 5 -6 22t-6 25q12 0 12 10h-12q-5 -5 -5 -9q0 -1 -5 -1v10l-11 -10q5 -7 10.5 -24.5t10.5 -22.5h-21v10v-10q7 -9 14 -24t7 -23h-10q0 7 -1 10.5t-6.5 7.5t-17.5 4v13h14q-11 5 -17 11t-14 16t-16 18l10 -10h-10q0 3 -12 23.5t-12 33.5 q-13 25 -13 67v60v10q-7 4 -3.5 14zM127 18v35q-12 10 9 46t46 36q0 12 27 12h8q11 -11 0 -12q7 -7 19 -12t16 -8q5 0 8.5 -4t7 -11t8.5 -12q0 -8 -2.5 -19t-2.5 -19t5 -17q-12 -7 -29 -35.5t-30 -34.5q-4 6 -9.5 6t-12.5 6q-5 0 -22 10.5t-31 21.5z" />
<glyph unicode="&#x22;" d="M510.5 1173.5q-8.5 78.5 7 150.5t55.5 132v-55l58 -55v-58q0 -75 2 -116t14.5 -104t38.5 -116q0 -23 0.5 -34.5t3 -29t8 -26t16.5 -15.5t27 -7v-56q0 -20 -8.5 -32.5t-27 -17.5t-33 -6t-41.5 -1h-58v168q-25 78 -39.5 139t-23 139.5zM741 1120q0 79 2 129.5t16 116 t40 90.5l55 -55v-55v-58q0 -84 28.5 -224t28.5 -224v-168q2 0 6 -0.5t13.5 -3.5t17 -8.5t13.5 -17.5t6 -28q-24 0 -38 -14t-16 -28l-2 -13h-57q-31 93 -42.5 132.5t-32.5 121t-29.5 154.5t-8.5 153z" />
<glyph unicode="#" d="M-25 424q-12 12 21.5 32.5t48.5 20.5q189 72 328 72q8 29 34.5 84t34.5 78h-18h-88q-28 0 -82.5 -9.5t-79.5 -9.5q-8 0 -17.5 5t-14.5 9l-5 5q-10 0 -14 0.5t-10.5 3.5t-9.5 10.5t-3 19.5q66 53 185 81t247 28q0 8 8.5 17t8.5 18q9 19 37 55.5t37 54.5q8 11 46.5 61.5 t59.5 82.5q0 9 9.5 18t9.5 15q7 7 13 17t10.5 14.5t12.5 4.5q31 49 107 129q8 15 35.5 42.5t36.5 46.5q21 0 43.5 -9.5t29.5 -9.5q8 0 13 -4.5t5 -8.5l1 -5q21 -48 -19 -88q0 -9 -9 -18.5t-9 -18.5q-8 0 -13 -5t-11 -15t-13 -17q-76 -127 -180 -250q-7 -8 -25 -36t-28 -38 q0 -9 -9.5 -18.5t-9.5 -18.5h19h36h160q0 14 12 25.5t25 11.5q9 29 37 74.5t37 69.5q7 0 11 4.5t4 8.5l1 5q35 39 35 55q4 4 21.5 24.5t31 33t21.5 12.5q37 0 51 -18h18q17 0 33 -22.5t4 -47.5q0 -37 -37 -74q-3 -8 -13 -37.5t-15 -43.5t-16.5 -38t-24.5 -43h69h56h161 q58 19 125 19q2 -1 5.5 -2.5t10 -5.5t8.5 -8t-3.5 -9.5t-20.5 -9.5h-32q-75 0 -93 -16h-55q-51 0 -70 -19h-36h-19h-37h37v-18h-18q-7 0 -13 4t-11 4t-13 -8q-68 0 -107 -19q-8 -25 -21 -46.5t-35 -51.5t-32 -45q0 -9 -9 -27t-9 -26h213q9 0 18.5 8t18.5 8q92 -16 110 -16 q-6 -6 -21.5 -17.5t-24.5 -21t-9 -17.5q2 0 5 -0.5t8 -5t5 -12.5h-18q-8 -7 -27.5 -11.5t-48.5 -10.5t-49 -13h-111q-99 -35 -159 -35q-18 -26 -44.5 -80t-45.5 -81v-74q-8 -8 -13 -17t-5 -14l-1 -6q-20 -40 -25 -109.5t-10 -85.5l-18 -36h-18l-19 -37q-17 -19 -35 -19 q0 8 -4.5 12.5t-9.5 5.5l-4 1v37q0 12 4 34t4 44t-8 46v125q0 9 9 28t9 28q0 17 1.5 35t3.5 30.5t6.5 31.5t7 27t9 29.5t7.5 26.5h-35h-71h-162q0 -55 -37 -92v-17q-26 -23 -51 -90q0 -34 -19 -69q11 11 31.5 27.5t34.5 30.5t22 30q4 4 13 16.5t17.5 16.5t25.5 4 q0 -8 -9 -26.5t-19 -32.5l-9 -15q-37 -37 -37 -70q-11 -23 -51 -74h-92q-28 14 -39 50.5t2 74.5q8 24 17.5 75t19.5 69q0 13 3.5 25.5t7.5 20t12 22t13 24.5q-15 0 -29.5 -0.5t-29.5 -2t-26 -3t-27 -4.5t-24 -4t-26 -5.5t-23.5 -5.5t-25.5 -6l-24 -6q-26 0 -39.5 0.5t-32 4 t-27 11.5t-8.5 21zM532 567h252q6 13 15.5 29t14.5 25.5t5 17.5q9 25 36.5 69.5t35.5 73.5h-17q-9 -9 -36.5 -9t-36.5 -9q-27 -9 -80 -18.5t-80 -18.5q-48 -45 -74 -125q-19 -16 -35 -35z" />
<glyph unicode="&#x26;" horiz-adv-x="989" d="M-3 54.5q0 20.5 3 36.5t13 34.5t17.5 30t23.5 28.5t23.5 24.5t24.5 23.5q6 5 9 8q53 110 118 172q8 18 34 43t34 41q9 0 27 18t26 18q102 102 119 121q5 5 17 12t20.5 15.5t15.5 24.5h-16q-14 -14 -71.5 -22t-84.5 3q-132 34 -155 121v35q-19 19 -19 67q71 212 244 332 q6 5 11.5 14t10.5 14t13 5q20 14 69.5 50t74 52t70 37t93.5 33q53 0 72 -19h32q49 -10 66 -62t4 -110q-61 -158 -121 -241q-6 -15 -49.5 -53t-52.5 -66v14v-14v14q0 21 16 37q8 8 16.5 34t16.5 34q93 151 72 311q-13 13 -20.5 15.5t-33.5 2.5q-35 0 -51 -18q-20 0 -51 -35 h-19q-77 -51 -149.5 -124t-124.5 -152q-1 -2 -12 -22t-17 -32.5t-14.5 -35.5t-10.5 -40.5t2 -38.5t17 -38q48 -45 172 -16q35 8 104 34t103 35q7 0 15.5 4t13.5 8l4 5h39h49v-17l-16 -18v-15h-19q0 -9 -3.5 -14t-14.5 -11t-17 -11q-35 -31 -35 -52q-16 -16 -32 -34 q-7 -6 -17 -12.5t-14 -11t-4 -11.5q-20 -19 -32.5 -41t-18.5 -27h-1q-1 0 -2.5 -0.5l-3 -1t-3.5 -2t-3.5 -3t-2.5 -4.5t-1 -7q-48 -21 -88 -103l-35 -18q-102 -140 -153 -191q-25 -19 -53 -51q-63 -59 -86 -102q-33 -33 -33 -72q63 25 153 90q12 12 28 24.5t27.5 20.5t34 21 t31 18t36.5 19.5t34 17.5q10 4 50.5 30.5t70.5 35.5q31 12 69 21.5t81 13t57 -14.5h-19h19v-20v20q4 -5 18.5 -18t22.5 -25.5t8 -28.5q11 -18 20 -70t15 -65q0 -9 9 -27t9 -26q51 -51 51 -86q8 -8 8 -16.5t-4 -19t-4 -17.5t4.5 -11.5t9.5 -5.5h5q-8 -7 -12.5 -15t-5.5 -13 l-1 -4q-35 0 -35 16q-5 -5 -14 -7.5t-16.5 -3t-13 -6.5t-5.5 -18q-62 0 -112 30t-78 73v67q-16 16 -23.5 47.5t2.5 57.5q0 29 10.5 67.5t10.5 52.5h-21q-8 -8 -29.5 -16t-35.5 -16q-57 -28 -140 -88q-21 -12 -117.5 -82t-156.5 -90q-13 -10 -51 -22.5t-51 -12.5 q-48 17 -71.5 31t-35.5 38q-7 20 -7 40.5z" />
<glyph unicode="'" horiz-adv-x="585" d="M70 764q40 121 67 195t74 169.5t100 163.5q15 14 31 0q15 15 49 15l-16 -15q12 -12 14 -16.5t2 -18.5q7 0 13 7q2 -5 2 -7q0 -7 -7.5 -14.5t-7.5 -15.5q-16 -14 -16 -49q-15 -43 -33.5 -79t-52.5 -90t-43 -69q-35 -35 -64 -98v35q0 -7 -3.5 -11.5t-6.5 -5.5h-4 q0 -7 -17.5 -26.5t-17.5 -36.5v14q-7 -7 -15 -23.5t-16 -23.5v-16h-18v-31q-7 8 -7 23.5t-7 23.5z" />
<glyph unicode="," horiz-adv-x="868" d="M131 -211q0 57 14.5 106.5t49 119t43.5 91.5q82 126 124 170q17 0 20 3t3 18q7 0 14 -4.5t12.5 -4.5t14.5 9v-21v21q12 0 22.5 -10.5t20.5 -10.5q0 -12 10 -22.5t10 -20.5q0 -8 10.5 -15t21.5 -18t11 -30l-20 -20v-23q-18 -32 -57.5 -71t-69.5 -54q0 -2 -0.5 -6t-6.5 -10 t-16 -6q-24 0 -57.5 -28.5t-46.5 -35.5q-9 0 -14.5 -5.5t-12.5 -16.5t-16 -19q-29 -34 -63 -63q0 -12 -10.5 -22.5t-10.5 -20.5v20z" />
<glyph unicode="." horiz-adv-x="667" d="M41 47q0 75 4.5 106t26.5 72q0 3 0.5 8.5t7.5 14t20 8.5q20 0 31 1t27.5 7.5t31.5 20.5h29v-60q12 -11 36 -20t39 -17.5t15 -21.5q21 -10 29.5 -33t7.5 -43.5t-4.5 -54t-3.5 -47.5q-20 -20 -31.5 -30t-36 -20t-51.5 -10q-13 27 -34.5 41t-58 27t-54.5 22z" />
<glyph unicode="0" d="M303 139q-37 142 31 348q15 14 23 32.5t9 30t1 32.5q24 25 43.5 64.5t19.5 62.5q24 25 27.5 32.5t3.5 30.5q31 47 79.5 143t80.5 144q58 91 107 151t114 101q0 12 4.5 19t15.5 9.5t18.5 3t24.5 0.5q48 0 59.5 -4t34.5 -28h33v-29l31 -33h33v-3v-3v-3v-3v-3v-3v-3v-9v-33 q15 -15 15 -31t15 -33v-63v-94v-33v-96v-31v-33v-94v-33v-63q0 -16 -15 -48t-15 -47v-32v-62q0 -42 -1 -64.5t-9 -51.5t-23 -44v-30l-31 -33v-64q-25 0 -29 -3.5t-4 -26.5q-23 0 -26.5 -4t-3.5 -29q-25 0 -64.5 -19.5t-62.5 -43.5h-97h-157q-16 17 -63.5 32.5t-63.5 30.5 q-15 0 -31 16.5t-33 16.5h-30v-33q-4 0 -9.5 1t-14.5 9t-9 23q-14 0 -21.5 15.5t-8.5 31.5zM494 393q16 0 15 -16.5t15 -16.5v-63q15 0 23 -7.5t9 -15.5l1 -8l31 -33q14 -14 31 -22t43.5 -18t50.5 -23h32q29 0 54.5 10.5t39 21.5t33.5 31q0 17 16.5 49t16.5 48q15 30 31 93 t33 95q0 97 30 127v33v158h1h2l12 1l-2 2q-13 12 -13 29q17 16 17 64t16 63v7t-2 15t-5 19.5t-10 15.5t-16 7q0 41 -0.5 61.5t-3 53t-8.5 49.5t-16 37t-26.5 32t-39.5 19l-33 -29q-14 0 -29.5 -15.5t-35 -43t-29.5 -37.5q0 -3 -1 -8.5t-9 -14t-23 -8.5q0 -25 -3.5 -29 t-28.5 -4v-3v-3v-3v-3v-3v-3v-3v-9h-31v-33v-31h-31v-33l-30 -30v-33q0 -14 -8.5 -30t-16.5 -25l-8 -9v-3v-3v-3v-3v-3v-3v-3v-3v-8q-5 -5 -8.5 -9.5t-4.5 -7l-2 -5t-0.5 -4t0 -2.5t-0.5 -1.5t-2.5 -1t-4.5 -0.5h-8q0 -52 -31.5 -124t-31.5 -99v-64v-125z" />
<glyph unicode="1" d="M317 367v24q0 19 3 22t22 3v2.5t1.5 5.5t4 7.5t7.5 6t12 2.5q19 37 27 52t28 44t43 52q13 12 25 49t24 49q0 12 12.5 24t12.5 25q101 202 172 320q13 13 25 37t24 36q-1 25 24 25v74h25v3v3v3v3v3v9h25q-1 25 24 25l25 24q27 0 45 -12t28 -12q0 -12 -12 -37t-12 -37 l-25 -24v-74v-25l-24 -24v-25v-24q0 -19 -3 -25t-22 -25v-24v-49v-49q-24 -24 -24 -99l-25 -24v-74q0 -19 -3 -22t-22 -3q0 -28 -2 -53.5t-8.5 -58t-9.5 -46.5t-15 -58.5t-14 -53.5v-25q0 -18 -0.5 -26t-6 -21.5t-17.5 -25.5v-49v-25v-98v-25q-19 0 -22 -2.5t-3 -21.5 q0 -11 -6 -17.5t-12 -7.5h-6q-11 -11 -23.5 -11t-19.5 5l-7 6q-38 19 -52 52.5t3 70.5v24q13 49 25 160t24 160q12 13 12 25t13 24q0 30 1 43t6.5 28t17.5 27v25v98v-1v-1v-1v-1v-1v-1v-1v-1v-1v-1v-1v-1v-1v-1v-10l-25 -25q0 -18 -3 -24t-22 -25v-25l-24 -24v-25 q-25 -24 -25 -49l-24 -25q-19 -19 -22 -25t-3 -24q-11 0 -17.5 -6t-6.5 -12l-1 -6h-3h-3h-3h-3h-3h-9q-7 -4 -31.5 -17.5t-34.5 -17.5t-33 -9t-49 -5z" />
<glyph unicode="2" d="M334 55v31v29h31l28 30q-29 0 0 27l119 119q112 171 178 237v31q0 13 8 27.5t16 23.5l7 8q22 22 25.5 29.5t3.5 30.5q46 88 88 209q28 28 28 119v3v3v3v3v3v3v3v7q14 14 21.5 31t8.5 27.5t1 29.5q0 119 -31 119q-28 -31 -59 -31q0 -28 -27 -59q-23 -22 -26.5 -28.5 t-3.5 -28.5h-29v-29q-12 -12 -21.5 -28t-17 -23.5t-20.5 -7.5q0 -14 -8 -29.5t-24.5 -41.5t-27.5 -48q-31 -31 -31 -60q-21 -23 -32 -26.5t-56 -3.5v1v1v1v1v1v1v1v1v1v1v1v1v1v1v1v1v1v1v1v1v10v29q0 16 14.5 60.5t14.5 58.5q54 208 209 325q15 0 44 14.5t42 14.5 q30 0 59 31h31q42 0 83.5 -35.5t66.5 -83.5v-31q28 -28 28 -116v-29l-28 -31v-28v-91q0 -14 -15.5 -28.5t-15.5 -30.5v-29q0 -23 -3.5 -30t-27.5 -29q0 -20 -1 -31t-7.5 -27.5t-20.5 -31.5v-31v-59q-9 -8 -17.5 -19.5t-19.5 -29.5t-16.5 -28t-19 -37t-17.5 -34 q-15 -16 -44 -60t-42 -58q-25 0 -37.5 -19t7.5 -41l30 -31q0 -23 3.5 -26.5t23.5 -3.5q0 -13 7.5 -27t15.5 -22l8 -7q0 -14 7 -28.5t14 -22.5l7 -8v-31q14 0 21.5 -7t8.5 -14l1 -7q13 -28 31.5 -54t25 -33.5t31.5 -33.5q0 -3 1 -8t8.5 -13t21.5 -8q31 -31 119 -31 q14 14 28.5 21.5t22.5 8.5l8 1q23 22 59 60l31 28v-59q0 -3 -1 -8t-8.5 -13t-21.5 -8v-31v-3v-3v-3v-3v-3v-3v-3v-7h-28v-31h-31v-29h-29v-30q-59 0 -90 -29h-149v29q-14 5 -27 11t-24.5 14.5t-20 14.5t-19.5 18.5t-16.5 18.5t-17 23t-16 23t-18 27t-17.5 28q-29 30 -29 59 q-59 59 -59 90l-31 31l-29 29h-31q0 -13 -7 -20t-14 -8l-7 -1h-31q0 -23 -3.5 -27t-25.5 -4l-30 -28h-29h-31h-28z" />
<glyph unicode="3" d="M379 975v59q16 16 30.5 46t28.5 46q25 68 86 129t129 84q0 22 4 25.5t27 3.5q10 0 64 15.5t88 15.5q23 0 26.5 -3.5t3.5 -27.5q22 0 25.5 -3.5t3.5 -25.5h31v-30q14 -27 14 -57t-7 -59t-7 -36q-10 0 -13.5 -5t-2 -10.5t-2 -10.5t-13.5 -5v-61q-13 -14 -20 -29t-8 -24 l-1 -8v-29q-15 -15 -30.5 -46t-32.5 -46v-62h123v-1v-1v-1v-1v-1v-1v-1v-1v-1v-1v-1v-1v-1v-1v-1v-1v-1v-1v-1v-9h1h1h1h1h1h1h1h1h1h1h1h1h1h1h1h1h1h1h1h1h10l29 -31q15 0 30.5 -15t34 -41.5t27.5 -35.5v-60v-63h31l-31 -29v-90v-31q-21 -24 -24.5 -31.5t-3.5 -29.5 q-23 -23 -27 -31t-4 -31q0 -19 -1 -30t-9 -29t-23 -33q0 -31 -59 -90q-14 0 -29 -7t-23 -15l-8 -7q-23 -23 -30.5 -26.5t-32.5 -3.5q0 -33 -90 -33q-29 -29 -60 -29h-32h-29q-16 0 -31 -15t-31 -15l-28 30v29q-15 44 -22 88.5t-8 78t-1 107.5q16 -15 31 -46t28 -46v33 l31 -33q0 -3 1 -7.5t8.5 -12.5t21.5 -8h29v-31h32v31h31q11 11 27.5 20.5t24 17.5t7.5 23q38 38 53 54t35 42t35 54q13 15 43 60t47 62v31v92v29q-15 29 -55.5 42t-84 9t-73.5 -20h-1h-1h-1h-1h-1h-1h-1h-1h-1h-1h-1h-1h-1h-1h-1h-1h-1h-1h-1h-1h-10l-29 -31h-31v-29h-32 h-29h-90h-31q-33 29 -33 60v1v1v1v1v1v1v1v1v1v1v1v1v1v1v1v1v1v1v1v1v10v29h33v33q23 0 27 4t4 27q14 0 28.5 14t30.5 14q29 45 90.5 136.5t91.5 136.5q12 24 22 51t17.5 42.5t20.5 29.5v59h-29q-23 0 -27 -3.5t-4 -25.5h-3h-3h-3h-3h-3h-3h-3h-9q-10 -11 -20 -28.5 t-18 -25t-22 -7.5q-26 -46 -52.5 -73t-70.5 -48q0 -35 -59 -90q0 -16 -1 -24t-6.5 -19t-18.5 -16t-35 -5q-12 -5 -18 -6.5t-9 16t-3.5 27.5t-0.5 27z" />
<glyph unicode="4" d="M416 565v66v45q13 13 24 54.5t21 60.5v45q0 45 22 67v68q24 58 57.5 160t55.5 155v23q11 12 22 34.5t23 34.5q0 11 7.5 16t15 6t22.5 1q0 11 8 16t15 5.5t24 0.5v-22q17 0 20 -3t3 -20q-8 0 -10 -4t-1.5 -9.5t-1.5 -14.5t-10 -17q-24 -45 -24 -135v-68q-23 -25 -23 -69 v-23v-45v-22q-11 -21 -16 -55t-5.5 -55t-0.5 -70q-23 -23 -23 -70v-23v-90q18 18 23 20.5t22 2.5q0 2 0.5 6t6.5 10t16 6q19 0 21.5 2.5t2.5 20.5v22q0 11 11.5 22.5t11.5 24.5v23q0 160 22 225q0 45 23 68h1h1h1h1h1h1h1h1h1h1h1h1h10q0 17 2.5 19.5t20.5 2.5q9 0 19.5 5.5 t16.5 11.5l7 6h3h3h3h3h3h9l23 -23h22q17 -17 17 -47.5t-17 -64.5v-90q-10 -10 -15.5 -21.5t-6.5 -17.5v-6v-23v-68h22v-3v-3v-3v-3v-3v-9q15 0 23 -1t15.5 -6t7.5 -16v-1v-1v-1v-1v-1v-1v-1v-1v-1v-1v-1v-1v-10v-23h-68v-88v-47q0 -67 -23 -90q0 -12 9 -20q2 -2 0 -2h-6h-3 v-113v-23q0 -67 23 -67q-17 0 -8 11l8 11v23v45v20v47h22q-11 -11 -11 -22.5t-11 -24.5v-88v23q17 0 8 -22l-8 -23v-23v-3v-3v-3v-3v-3v-7v-47v-68q0 17 -3 20t-20 3v-23q17 0 9 -11l-9 -12v-65h-1h-1h-1h-1h-1h-1h-1h-1h-1h-1h-1h-1h-1h-1h-10v-25h-23q23 -22 0 -22 q-2 0 -5.5 0.5t-9 6t-5.5 15.5h20h-20h-23v-45l-45 -45q-32 0 -50.5 13.5t-18.5 31.5h-23q0 18 -2.5 20.5t-19.5 2.5v69v156v25v45v22q22 22 22 68v45v45q8 8 10 17t1.5 14.5t1.5 9.5t10 4v90q-22 -22 -45 -22q-19 -19 -70.5 -28.5t-87.5 5.5q-31 0 -60.5 35.5t-29.5 56.5z M823 -92h23h-23zM846 66zM866 88zM936 406v22v-22zM936 428v23v-23zM936 451v22v-22zM936 1106z" />
<glyph unicode="5" d="M356 82v1v1v1v1v1v1v1v1v1v1v1v1v1v1v10v50v24v74v49q0 25 25 25l-25 24h25v25v24h25q-25 -25 -25 -73q0 18 3 21t22 3v-24v-25l-25 -24h25q0 -25 -25 -25q25 -24 25 -49v-49v-25v74v-25v-1v-1v-1v-1v-1v-1v-1v-1v-1v-1v-1v-1v-1v-1v-10q12 0 17.5 -8.5t6 -16t0.5 -25.5 v50v24v25v-25h25v-3v-3v-3v-3v-3v-9v-25q7 -7 10.5 -12.5t2.5 -7.5t0 -3.5t2.5 -1.5h10.5h25v-3v-3v-3v-3v-3v-9h49v-25q0 11 6.5 17.5t12.5 7.5h6q19 0 25 3t24 21q11 0 23.5 6t19.5 12l6 7q0 11 6 17.5t12 7.5h6q0 11 6 17t12 7h7q13 0 25 12.5t24 12.5v24q3 0 7 0.5t11 7 t7 17.5q49 49 49 74q99 149 123 221q0 6 5.5 35.5t5.5 54t-11 35.5q-39 17 -95 6.5t-77 -31.5q-25 -27 -74 -76h-25h-1h-1h-1h-1h-1h-1h-1h-1h-1h-1h-1h-1h-1h-1h-10v-3v-3v-3v-3v-3v-9h-25q-19 0 -21.5 -3t-2.5 -22h-49h-25q-11 -11 -29 -11t-40.5 5.5t-30.5 5.5 q-34 17 -54 47t-20 52v75q17 34 21 57t4 66q8 33 17.5 98.5t22 114.5t35.5 82q0 28 12.5 71t12.5 52q11 11 17 23.5t7 19.5v6h50h1h1h1h1h1h1h1h1h1h1h1h1h1h1h10h98h25q9 0 40 -12t58 -12q19 0 49.5 -15.5t49.5 -34.5h49q0 -11 6 -17.5t20 -14.5t23 -17h-25v-3v-3v-3v-3v-3 v-9q1 -25 -24 -25q-25 25 -74 25q-51 0 -98 24h-49l-25 -24q-14 -14 -26 -58t-23 -65q0 -25 -25 -25v-3v-3v-3v-3v-3v-9v-25q-49 -96 -49 -147q-12 0 -17.5 -8.5t-6 -15.5t-0.5 -25q0 -8 -5.5 -23t-5.5 -27.5t11 -23.5h-25v-51q13 14 49.5 38.5t48.5 36.5q98 50 148 50 q12 12 25.5 17.5t21.5 6t26 0.5q10 0 41 12.5t58 12.5h24q11 -6 31.5 -15t28 -13.5t19 -16t20.5 -29.5q12 -12 17.5 -26t6 -22t0.5 -26v-51q0 -76 -24 -123v-24q-11 -11 -17.5 -23.5t-6.5 -19.5l-1 -7v-24q-49 -49 -49 -74q-19 0 -34 -15t-15 -34l-25 -25v-24h-24v-25v-1v-1 v-1v-1v-1v-1v-1v-1v-1v-1v-1v-1v-1v-1v-10h-25q0 -19 -3 -22t-22 -3v-25h-24v25q0 -19 -3 -22t-22 -3v-24q1 -25 -24 -25v25l-25 -25h-24q-12 -12 -24.5 -24t-25.5 -25h-1h-1h-1h-1h-1h-1h-1h-1h-1h-1h-1h-1h-1h-1h-10h-25v-24h-49h-3h-3h-3h-3h-3h-9l-25 -25h-25h-49h-1h-1 h-1h-1h-1h-1h-1h-1h-1h-1h-1h-1h-1h-1h-1h-1h-1h-9h-49v25h-25v24v25q-19 19 -22 25t-3 24zM801 82h24h-1h-1h-1h-1h-1h-1h-1h-1h-1h-1h-1h-1h-1h-1h-10zM825 328h25h-25z" />
<glyph unicode="6" d="M358 104v60v61v21q0 38 21 59v62q10 21 20.5 60t20.5 60v21q20 21 20 41q0 15 3 17.5t18 2.5q0 10 9 30.5t9 29.5t5.5 14t10.5 5l5 1v41q20 20 20 62h21v39q0 10 10 20t10 20q10 20 31 51t31 52q0 14 2.5 19t15.5 20q10 21 41 62t41 61q0 18 41 59q10 10 29.5 41t29.5 41 q15 0 18 2.5t3 17.5h20q39 39 82 60q18 20 60 20h20q20 -20 0 -20q0 -10 -10 -20t-10 -19h-21v-21q0 -10 -10 -20t-10 -20q-14 0 -26.5 -13t-12.5 -28q-15 -15 -18 -20.5t-3 -20.5q-9 0 -14 -5.5t-5 -10.5l-1 -5q-7 -14 -18.5 -32t-17 -28.5t-5.5 -19.5q-81 -162 -101 -223 h41h19q33 -16 47 -33.5t14 -46.5h21v-41q0 -10 10 -30.5t10 -30.5v-19v-61q9 0 14 -5.5t6 -10.5l1 -5v-41v-20v-21v-59v-41v-20v-41q0 -39 -21 -60v-20q0 -21 -20 -21v-20v-21h-21q-10 -10 -30.5 -29.5t-30.5 -29.5v-21q-14 0 -19 -2.5t-20 -17.5q-9 -9 -19.5 -14.5 t-29 -12.5t-33.5 -14q-18 0 -43 5t-41 11l-16 5q-39 36 -41 20v-41q0 -15 2.5 -17.5t17.5 -2.5q0 -10 10.5 -20t10.5 -19h20q0 -9 5 -14t11 -6l5 -1v-20h18v-21h-18v-20h-62q-10 10 -41 20.5t-41 20.5h-18q-5 5 -18 14t-18 18t-5 27h-21v21q0 10 -10 20.5t-10 20.5v40 q-10 10 -10.5 20.5t-10.5 20.5zM637.5 369q7.5 -72 24.5 -123q8 -8 14 -24t11.5 -27t14.5 -11q15 -15 20.5 -17.5t20.5 -2.5q14 0 27.5 32t13.5 50q19 21 19 59q9 0 14.5 5.5t12.5 17t14 18.5v82v18v82v41q-3 10 -9.5 30t-9 27t-8.5 20t-14 22.5t-19 21.5q-21 21 -41 21 l-20 -21v-20h-21v-21q-14 -14 -20 -21.5t-13 -23.5t-7 -35q-21 0 -21 -41v-20q-11 -67 -3.5 -139z" />
<glyph unicode="7" d="M469 487v23h20v20q0 23 23 23q76 52 215 84q10 12 21 60t22 69v86q4 12 27 94t37 121q0 64 20 107v43h-43q-21 -21 -41 -21h-22q-11 -12 -33 -23t-31 -20h-22q-9 -10 -20 -21t-18 -16l-6 -6q-15 0 -17.5 -3t-2.5 -20q-12 0 -22.5 -10t-20.5 -10v20q0 -20 -43 -20 q-23 0 -23 20q10 0 16 10.5t7 21.5v11q16 16 35.5 40.5t35.5 41.5t35 27q0 13 1 20t6 14t16 7q22 12 65 33t64 33h41q0 10 11.5 10t11.5 10q51 0 93 -16t56 -47q23 -23 23 -129q-23 -20 -23 -64q-9 -30 -20 -94t-23 -98v-23q-10 -10 -20.5 -42t-22.5 -44q0 -87 -20 -107v-43 h43h63q11 0 33 10.5t33 10.5q42 0 63 -21q-9 -10 -19.5 -15.5t-16.5 -5.5l-7 -1h-20v-21h-66q-9 -9 -20.5 -14.5t-30 -12.5t-35.5 -16q-43 0 -43 -20v-43q-10 -22 -10 -65t-10 -64v-66v-41v-22q-12 -23 -23 -76.5t-20 -73.5v-3v-3v-3v-3v-3v-7v-21q-9 0 -14 -5.5t-6 -11.5 l-1 -5v-21h-3h-3h-3h-3h-3h-7v-22v-21h-21q-21 0 -53.5 13.5t-32.5 29.5q-10 9 -10 24.5t5 35t5 26.5v129l21 21v63q22 41 22 86q0 24 10.5 51.5t10.5 34.5v43h-21q-23 -20 -43 -20q-11 0 -33 -11.5t-33 -11.5v-20v-23l10 -1l-1 -1q-9 -8 -9 -18l-20 20q-10 0 -21 6t-16 12 l-6 5q-10 0 -21 5t-17 10z" />
<glyph unicode="8" d="M422 182q2 0 5.5 0.5t9 6.5t5.5 16q-9 9 -9 19.5t4.5 23.5t4.5 20q70 211 152 342v23q43 43 43 86q16 0 29.5 13t13.5 30q-9 9 -44.5 39.5t-55.5 55t-29 54.5q-17 32 -17 89t17 104q31 97 106 172q10 0 16 5t7 10v5l20 23q10 10 32 31.5t32 31.5h22h21q0 9 5.5 14t11.5 6 l5 1h43q30 0 44.5 -0.5t32 -4.5t24 -12.5t6.5 -23.5q-9 0 -9 -6t4.5 -18t4.5 -19q-9 0 -9 -6t4.5 -18t4.5 -19q-21 0 -21 -43q0 -21 -11 -64t-11 -65v-21q-7 -15 -18.5 -55t-24.5 -53v-21q0 -12 -10.5 -22.5t-10.5 -20.5v-22q-22 -20 -22 -43l-21 -21q0 -10 -11 -20.5 t-11 -22.5q10 0 15.5 -5t5.5 -10l1 -5q7 -8 14 -20.5t13 -17.5t16 -5v-23q2 -4 8.5 -18t9 -19.5t7.5 -17.5t7.5 -19t5.5 -17.5t4 -19.5t1 -18v-20q15 -15 15 -45t-15 -62v-22v-107q-22 -22 -22 -63q0 -12 -10.5 -22.5t-10.5 -20.5v-23q-17 0 -19.5 -2.5t-2.5 -17.5v-23v-20 q-9 0 -14.5 -6t-12.5 -17.5t-16 -19.5q-16 -33 -38.5 -52t-68.5 -34h-63h-43q-64 15 -99.5 49.5t-52.5 99.5q-15 17 -17.5 22.5t-2.5 20.5zM442 1061h23h-23zM442 1061zM551 182q34 -106 129 -106q15 -15 28 -6t13 26q11 11 32 43.5t33 42.5q33 65 45.5 150.5t-2.5 150.5v21 q0 30 -13 59.5t-30 46.5q0 7 -2 13.5t-7.5 13.5t-9.5 12t-12 14t-12 13v20q-17 0 -19.5 2.5t-2.5 20.5q0 -10 -5.5 -16t-10.5 -7h-5v-20q-4 -4 -12 -13t-12 -14t-9.5 -12t-7.5 -13.5t-2 -13.5v-20v-23q-17 -17 -30 -46.5t-13 -59.5q-9 0 -14 -7t-5.5 -14t-0.5 -22 q0 -10 -11.5 -20.5t-11.5 -22.5q0 -44 -20 -64v-22v-84v-23zM680 975h20v-21q0 -10 5 -15.5t11 -6.5h5q0 -16 2.5 -21t19.5 -22v43q9 0 14 5.5t6 10.5l1 6q0 9 5.5 19.5t10.5 16.5l6 7q16 16 18.5 21t2.5 22q22 20 22 43q8 16 30.5 59.5t33.5 67.5q0 5 5 31.5t5 52.5t-10 45 q0 -2 -1 -5.5t-6 -9t-14 -5.5v-23q-125 -63 -192 -235v-86z" />
<glyph unicode="9" d="M428 997v56q9 19 18.5 46t18.5 46q0 9 9 37t9 37q8 0 12.5 4.5t5.5 8.5l1 5l37 37v18h18q0 8 4.5 13t8.5 5l5 1q15 15 41 26t52 11h57h53h19q55 0 55 -19v-18v-37h-18q-6 0 -17.5 4t-21 4t-17.5 -8q-27 -5 -50.5 -17t-37 -20t-36 -34t-28 -33.5t-32.5 -43.5 q-37 -37 -37 -92q27 -28 55 0q35 17 74 56q35 16 92 73l56 56q55 55 73 92q16 16 39 22.5t53 -4.5q8 0 12.5 -4.5t5.5 -8.5l1 -5v-37v-37q-1 -19 -19 -37v-18v-19q-18 -18 -18 -73l-18 -19v-18v-19q0 -9 -9.5 -18.5t-9.5 -18.5v-18q0 -9 -9 -18.5t-9 -18.5v-37 q-5 -14 -13 -38t-12.5 -37t-8 -33t-3.5 -39q-19 -19 -19 -74q-9 -37 -27.5 -110.5t-27.5 -110.5v-19q0 -55 -18 -92v-18q0 -20 -9.5 -43t-9.5 -33q0 -54 -18 -72q0 -9 -8.5 -36.5t-8.5 -36.5v-19q-2 0 -5 -0.5t-8 -5t-5 -12.5v-19q-13 -10 -23 -29t-16 -26q-19 0 -37 -18 v-19h-37v19h-18v36q9 9 18.5 28t18.5 28q9 19 18.5 55t18.5 55q10 21 19.5 66t14.5 63v19q12 20 22.5 66.5t18.5 62.5v18v19v18v37q24 112 54 203v71q37 117 37 150q8 8 12.5 17.5t5.5 14.5v5q0 32 3 47t15 27q0 21 9.5 43.5t9.5 29.5h-19v-18v-19h-18q-17 -35 -55 -73 q-19 -1 -19 -19h-18q0 -9 -8.5 -18.5t-8.5 -18.5q-24 -11 -65 -31.5l-47 -23.5q-58 -14 -117 0.5t-86 54.5zM926 887z" />
<glyph unicode=":" horiz-adv-x="536" d="M109 104q2 2 5.5 5t11 8.5t12.5 2.5t5 -16q0 36 18.5 72t18.5 72h70q16 -32 16 -68t-8 -79.5t-8 -67.5q-18 0 -35 -17.5t-35 -17.5q-13 0 -21 5.5t-11.5 17.5t-4 21.5t-0.5 27.5q0 26 -4 30t-30 4zM143 817q29 28 51 75.5t42 85t51 52.5q34 -35 71 -35q13 -47 3.5 -96.5 t-26 -82.5t-32.5 -82t-16 -95q-23 -9 -35.5 -10.5t-23.5 9t-16 21.5t-14 27t-18 25q0 106 -37 106z" />
<glyph unicode=";" horiz-adv-x="661" d="M139 -199v-20q0 10 9.5 20t9.5 19l59 59q6 6 12.5 16.5t12 15.5t14.5 5q12 6 43 32.5t53 26.5q9 0 14 4.5t6 9.5l1 5q29 15 65 51.5t51 65.5v20l19 19q0 22 -19.5 36.5t-19.5 22.5q0 9 -9 19t-9 20q-10 0 -20 9t-19 9v-18v18q-9 -8 -14.5 -8t-11.5 4t-13 4 q0 -13 -3 -15.5t-18 -2.5q-11 -11 -22.5 -24.5t-25 -32t-21.5 -30t-24.5 -36.5t-22.5 -33q-9 -24 -39.5 -86t-44 -107.5t-13.5 -97.5zM229 786q0 58 3.5 82t21.5 56q-1 24 22 24q45 0 70 23h23v-47q9 -9 27 -16t30 -13t12 -16q16 -8 22.5 -26t6 -34t-3 -42.5t-2.5 -37.5 q-45 -45 -92 -45q-10 20 -27.5 31t-45 21t-42.5 18z" />
<glyph unicode="?" d="M428 334q14 62 45 125.5t56.5 100.5t78.5 105.5t72 94.5q13 19 38 60.5t49 75.5t50 60q0 17 -8.5 25.5t-35.5 18.5t-36 14q-7 0 -16.5 5t-14.5 10l-6 5q-43 -14 -67.5 39.5t-11.5 116.5q14 80 81 129t172 84q12 0 42 4.5t59 4.5t55 -9q0 15 3 17.5t18 2.5q17 -9 46 -28.5 t50 -30.5q7 -7 19 -18.5t21.5 -20.5t16.5 -18v-21q7 -21 7.5 -38.5t-1.5 -25.5t-10.5 -27t-11.5 -26q-64 -119 -137 -192l-80 -80q-2 -6 -6 -15.5t-12 -29t-13.5 -29.5t-5.5 -4h-21q-10 -16 -117 -173.5t-186.5 -283t-105.5 -186.5l-11 -10q-25 -17 -40 39q-4 13 -7 31 q-18 20 -18 98zM758 1130q11 -11 30.5 -20t28.5 -16q4 -4 18 -23t28 -28t32 -9q0 21 39 60q9 17 38 55.5t40 60.5h-21q-9 -9 -18.5 -9t-27 4.5t-32.5 4.5q-17 -9 -80.5 -29t-74.5 -30v-21z" />
<glyph unicode="A" horiz-adv-x="1490" d="M-3 255q0 27 3.5 58.5t3.5 40.5q0 8 7 23.5t7 23.5q9 43 33.5 110.5t30.5 92.5q121 271 297 424q10 12 12 16t2 15q5 0 9.5 1.5t9.5 5.5t8.5 7t10 9t9.5 8q1 0 17 16l30 16q16 7 35.5 27t26.5 20q0 15 33 15q77 60 221 110l14 -16q16 16 47 16h31q20 6 46 6q48 0 112 -22 q30 0 61 -16q118 -26 172 -62q11 -6 33.5 -22.5t42 -28.5t33.5 -12l16 16q78 0 125 -16q47 0 47 -15q-4 -4 -11 -9.5t-10.5 -8.5t-6.5 -10.5t-3 -18.5h15l-15 -16h62v-15q-31 0 -47 -16h30q0 -7 -3.5 -15t-7.5 -12l-3 -4q-8 -8 -8 -16t-8 -16h-15q0 -6 -4 -10t-8 -5h-4v-16 q0 -7 -15.5 -15t-15.5 -16h-16q0 -8 -8 -23.5t-8 -23.5q-12 0 -29 -10.5t-17 -20.5q-8 0 -24 -23.5t-23 -23.5l-16 -16h-16v-31q-15 -17 -31 -31v-30q-8 -19 -24 -43.5t-23 -38.5v-15q-2 -5 -10 -23t-11 -26t-6.5 -21t-3.5 -24q-16 0 -16 -16q-7 -7 -7.5 -27t-7.5 -35h-16 v-47q0 -8 -7 -15.5t-7 -14.5q6 -7 6 -23t-3 -29l-3 -12q-12 -23 -12 -52.5t12 -41.5q0 -3 -3.5 -13.5t0 -18t17.5 -13.5v14q5 -5 9 -26t22 -21q0 7 4 11.5t13 10t15 11.5q16 16 47 46t46 46q27 56 79 78q1 1 3.5 3t9.5 4t14 0.5t16.5 -11t18.5 -27.5v-31h-16 q-3 -8 -8.5 -22.5t-8.5 -21.5t-10.5 -13t-18.5 -6h-16q0 -7 -8 -15t-8 -16q0 -10 -2 -12t-13 -2q-7 0 -11 -4.5t-9.5 -13.5t-11.5 -15h16h-16q-1 -14 -15 -14q0 7 5 12q-3 2 -5 2q-7 -14 -18 -25t-26.5 -22t-18.5 -14q-5 -5 -10 -14t-9.5 -13t-11.5 -4q-11 -11 -22.5 -13.5 t-38.5 -2.5q-18 9 -42 16.5t-38 13.5q-22 11 -51.5 58t-40.5 84q-4 24 -4 56q0 41 6 96q12 98 12 128q-7 -14 -15.5 -21.5t-14.5 -8.5t-17 -1q0 -8 -7.5 -23.5t-7.5 -23.5h-16l-14 -16q-7 -6 -23 -14t-24 -17v-16h-17q-29 -25 -61 -62q-17 -8 -48 -31.5t-46 -31.5 q-23 -15 -70 -47t-76 -50.5t-72 -40t-81 -32.5q-24 -6 -52 -6q-52 0 -120 20q-45 0 -78 17q-108 43 -156 186q-7 15 -7 42zM151 327q-2 -17 -2 -35q1 -36 9 -72q12 -54 49 -85q26 -26 76 -26q34 0 79 12q86 34 220 139q43 28 84.5 62t99 85t82.5 72q47 31 141 125 q1 17 17 17q10 10 29.5 33.5t38.5 43t40 33.5q8 16 32 39.5t32 38.5q20 23 45 78q3 6 12 25.5t14.5 30.5t15.5 26.5t21 27.5q31 27 31 62q-8 9 -24 17t-23 14q-7 0 -15 8t-16 8q-91 31 -141 31v-15q-7 0 -22.5 7.5t-22.5 7.5q0 -11 -9 -5l-8 5q-33 -15 -63 -15q-7 0 -15 -8 t-16 -8q0 16 -14 0q-33 0 -47 -16h-17q-8 0 -23.5 -7.5t-23.5 -7.5h-14q-64 -31 -80 -47h-45l-16 -16h-19q0 -15 -14 -15h-17q-5 -5 -14.5 -15t-17.5 -18t-15 -14q-7 -7 -14.5 -11t-11.5 -5h-4q-7 -6 -11.5 -14t-5.5 -12v-5q-91 -60 -125 -94q-6 -14 -14 -21.5t-18 -14 t-15 -11.5q-33 -43 -51.5 -69t-42.5 -70.5t-31 -81.5q-7 -7 -23 -30.5t-24 -31.5v-47q-17 -52 -23 -105zM1380 104z" />
<glyph unicode="B" horiz-adv-x="1480" d="M-180 799v75q21 88 76 173q83 136 199 217t294 141q76 20 149 20q36 -1 70 -5q106 -14 176 -70q18 -20 56 -58q20 -18 35.5 -53t3.5 -61v-56q0 -9 4.5 -18.5t8.5 -15.5l5 -5q-13 -13 -15.5 -18t-2.5 -18q0 -15 -12 -39t-27 -37q-14 -15 -19 -18t-18 -3q-1 -18 -19 -18 q0 -8 -5 -13t-10 -5l-5 -1q-6 -6 -17 -21.5t-20.5 -25.5t-17.5 -10l-44 -38.5t-57.5 -54t-29.5 -40.5h92h57q18 -18 94 -18q108 -34 152 -58q6 -6 12.5 -16.5t12 -15.5t14.5 -5h18q14 0 19 -2t18 -14h-18q28 0 42.5 -11.5t14.5 -27.5q8 0 12.5 5t5.5 10v5q9 -10 47.5 -48 t47.5 -48l38 -76h76q20 11 77.5 30.5t74.5 27.5l39 -133q-10 -9 -39 -28t-39 -28q-38 -10 -99 -10t-90 -10q-8 -27 -20 -52t-30.5 -49t-32 -40.5t-40 -40t-38.5 -34t-44 -35.5t-40 -32q-58 0 -58 -20q-9 -9 -47 -27.5t-47 -27.5q-15 0 -27.5 4t-22.5 4t-26 -8q-2 0 -5.5 -1 t-9 -6t-5.5 -14h-55q-9 0 -14 -4.5t-6 -8.5l-1 -5q-14 -13 -33.5 -13t-19.5 13h-19l-2 -7q-8 7 -18 7q0 -13 -21 -13t-34 13h-39h-19q-18 18 -57 18h-18v21q-40 -58 -58 -76q-20 -12 -60 -18q-18 -3 -36 -2q-22 0 -44 4q-40 8 -48 34q-21 19 -21 133q0 203 21 283 q8 9 8 18.5t-4 21t-4 17.5v58q0 9 -10.5 37.5t-10.5 37.5q-34 16 -50.5 26.5t-33 27.5t-22.5 40t-6 58q8 0 12.5 4t4.5 8l1 4q9 0 19 9.5t20 9.5q18 18 55 18q17 17 60 46.5t55 29.5q9 19 18.5 75.5t18.5 75.5q10 30 20.5 88t18.5 85q12 12 15 26.5t3 48.5q-27 -30 -57 -57 q-72 -54 -227 -209q0 -8 -5 -12.5t-9 -5.5h-5q0 -14 -2.5 -16.5t-15.5 -2.5v-20q-8 0 -13 -4.5t-6 -9.5v-5q0 -8 -5.5 -13t-16 -11t-17.5 -13q39 -57 39 -75h-20q-19 0 -56 37q-2 1 -15 7t-17 8l-16 8t-17 10t-14.5 11.5t-15 14.5t-11 16t-8.5 19zM350 -106zM369 -88z M369 -127zM389 -106zM389 233h19l10 11q10 10 13.5 13t12.5 10.5t18.5 13t20.5 10.5q107 70 205 94q29 0 77 9t75 9h39h57h76q0 20 -7.5 37t-15.5 26t-26.5 26t-26.5 26q-72 58 -176 68q-21 2 -42 2q-82 0 -159 -33q-7 -3 -36 -14t-46.5 -19t-34 -24.5t-16.5 -36.5 q-9 -9 -9 -28.5t-9 -29.5q0 -92 -19 -131q18 -39 0 -39zM426 -51v-19v19zM444 25q8 0 31.5 -18.5t44.5 -18.5q14 -6 28 -7.5t30.5 3.5t26 9t30.5 13l53 19q119 61 191 133q1 2 13.5 14.5l15 15t12.5 14t13.5 16.5t11 15.5t11.5 18.5t9 18.5t8 20.5h-19h-75h-58q-6 0 -17.5 4 t-21 4t-18.5 -8h-37q-33 -11 -87 -41.5t-62 -34.5h-19v-18q-18 0 -57 -39l-19 -19l-18 -18q-14 -14 -17.5 -32t-3.5 -64zM444 45zM465 874h18q27 31 58 58q14 0 25.5 12t11.5 27q9 8 39.5 35t52 49t39.5 47q1 3 28 42t27 73q-18 18 -33.5 26t-25.5 9t-35 1h-54 q-9 -8 -56.5 -36t-57.5 -39v-56v-75q-9 -29 -18.5 -86.5t-18.5 -86.5zM541 233v19v-19zM578 -145zM688 -145zM879 555v20v-20zM897 328h18h-18zM936 45zM973 610h18h-18zM1012 25v20v-20zM1049 233v19v-19zM1163 424h19h-19zM1409 309zM1446 291h20h-20z" />
<glyph unicode="C" horiz-adv-x="1050" d="M4 367v94q-8 15 -8 40q0 47 27 128q12 63 19 95.5t22.5 81.5t33.5 83q192 358 486 506h55q20 10 72 19.5t77 17.5q9 9 47 9t48 9q100 0 204 -50t132 -118q13 -43 13 -91v-19q-3 -58 -33.5 -105t-74.5 -47q0 20 4 49t4 52.5t-8 47.5q0 26 -12 45t-43 50q0 14 -2.5 18 t-15.5 18q-8 8 -31 8t-50.5 -4t-31.5 -4q-113 -27 -244 -94q-42 -31 -118 -88.5t-105 -79.5q0 -8 -4.5 -17t-8.5 -15l-5 -5q-18 -9 -46.5 -36.5t-48.5 -36.5q-35 -35 -55 -76q-9 -9 -27.5 -37t-27.5 -37q-19 -19 -19 -57q-57 -80 -57 -205q-8 0 -8 -5t4 -15t4 -17v-55 q0 -55 37 -131q0 -8 5.5 -13t16 -11t17.5 -13q0 -15 2.5 -20.5t15.5 -18.5q18 -9 55 -37t56 -37q58 -13 129 -13q70 0 154 14q166 26 278 73q92 45 131 57q0 8 4.5 13t8.5 5l5 1q-8 -8 -27 -17.5t-45 -21t-40 -18.5q0 -8 -5 -13t-15 -11t-17 -13q-9 0 -27.5 -9.5t-27.5 -9.5 q0 -13 -3 -15.5t-18 -2.5h21v-19q-39 0 -76 -37q-13 -7 -50.5 -27.5t-54 -28.5t-45.5 -20t-55 -18h-113q-15 -4 -32 -5h-10q-11 -1 -25 1q-18 2 -33 4.5t-36 8.5t-31 9t-31 10.5t-25 8.5q-10 10 -44.5 20t-49.5 17q0 15 -11.5 27t-25.5 12q-48 65 -77 115.5t-54 126.5z" />
<glyph unicode="D" horiz-adv-x="1110" d="M-3 36q1 86 21 158q20 74 52 136q0 55 18 73q16 25 43.5 91.5t48.5 95.5q42 44 74 110q9 0 19 9.5t20 9.5q17 37 92 112q15 7 47.5 46t63.5 49h18q8 7 28 16.5t29 18.5h19q32 8 69 8q69 0 154 -27q0 32 3 47t15 29v74q0 9 9.5 37.5t9.5 37.5q0 32 3 48t15 42q5 23 13 71 t18 85t27 70q0 19 9 55t9 55q7 7 13 17t10.5 15t11.5 5q6 0 17.5 4.5t20.5 4.5t17 -9q15 0 20.5 -2.5t18.5 -15.5v-37q-8 -16 -8 -30t4 -26.5t4 -17.5q-8 -33 -18 -123t-21 -121v-127v-20q-18 -37 -18 -113v-90v-57q-9 -19 -9.5 -70.5t-9.5 -79.5v-36q0 -74 -18 -111 q18 -18 18 -76q-8 -41 -8 -91.5t4 -117.5t4 -106q0 14 -2.5 16t-15.5 2q18 -18 18 -55h19q20 9 48 46t46 46q0 -37 -18 -37q-54 -164 -95 -184h-92q-9 0 -18.5 9t-18.5 9q-50 36 -72.5 115.5t-39.5 218.5q-5 -10 -17.5 -38.5t-21.5 -46t-17 -25.5q-9 -20 -36.5 -57.5 t-36.5 -55.5q-49 -74 -78 -114t-79.5 -95t-102.5 -90q-37 0 -56 -19q-42 -13 -80 -13q-29 0 -56 8q-62 18 -105 63q-14 0 -19 2.5t-18 15.5q-36 62 -36 153zM137 150q-1 -19 -2 -37q1 -55 13 -107q16 -68 51 -86q28 -14 53.5 -14t40.5 14q24 16 47 39.5t46.5 51.5t35.5 40 q0 8 9 17t9 18q79 119 116 176.5t92 158.5t89 189q58 171 58 240h-21h-37h-37h-55q0 -9 -9 -18.5t-9 -18.5h-37q-8 0 -17 -4.5t-15 -8.5l-5 -5h-21v-19q-8 -8 -17 -12.5t-14 -5.5h-5q-8 0 -13 -5.5t-11 -16t-13 -17.5h-19q0 -8 -4.5 -12.5t-9.5 -5.5l-4 -1q-27 -27 -38 -39 t-28.5 -37.5t-25.5 -52.5h-19q-8 -8 -18.5 -27t-20.5 -28v-18q-8 0 -12.5 -5t-5.5 -11v-5q0 -9 -9 -18.5t-9 -18.5q-1 -19 -19 -37t-18 -36q-10 -10 -20 -44t-17 -49q-20 -48 -25 -124z" />
<glyph unicode="E" horiz-adv-x="1308" d="M-12 326q-1 4 -2 6q0 5 4 8q6 6 16.5 20t20 23.5t18.5 9.5q0 -9 5.5 -14t11 -5.5t16.5 -0.5q0 -8 9 -25t9 -26q37 -17 140 -17v35q-17 17 -17 88v51q6 27 51 176q19 17 19 70q9 17 26.5 51.5t26.5 52.5q8 9 16.5 27.5t16.5 26.5q61 115 141 192l53 53q3 3 32 35 t52.5 51.5t55.5 36.5v1q0 1 0.5 2.5l1 3t2 3.5t3 3.5t4.5 2.5t7 1q16 8 51 34.5t53 34.5q72 37 123 37q17 17 88 17q8 9 52.5 9t52.5 9q17 -6 49.5 -13t54 -15.5t37.5 -24.5h-18q38 -19 69 -123v-35v-53q-6 -13 -15 -45.5t-19 -42.5q0 -24 -2.5 -30.5t-14.5 -20.5 q-10 -28 -27.5 -72.5t-25.5 -67.5q-17 -35 -88 -106q-7 0 -11.5 -4t-5.5 -8v-5h-18q-104 -155 -262 -264q-1 -18 -19 -18q-17 -8 -43 -34t-45 -34q-96 -73 -190 -106q-6 -6 -25.5 -16.5t-33 -20t-13.5 -17.5q1 -16 17 -34q18 -17 18 -35q9 0 27 -17.5t26 -17.5 q74 -30 177 -30q64 0 139 12q181 68 350 211l70 -17q-17 -9 -39 -31t-31 -22q-35 -35 -35 -53q-8 -7 -25.5 -16t-27.5 -19l-53 -53q-8 -7 -26 -16.5t-26 -18.5q-16 0 -53 -33h-18l-17 -18q-19 -10 -67.5 -19.5t-71.5 -17.5q-9 0 -46 -3.5t-71.5 -3.5t-58.5 7q-70 0 -86 18 q-117 23 -229 105q0 22 -35 53q-14 14 -16.5 18.5t-2.5 16.5q-3 0 -28 -3.5t-46.5 -3.5t-29.5 7q-53 14 -83.5 29t-57.5 42q-2 2 -5 5.5l-12 14t-12.5 18.5t-7.5 18zM422 381q0 -18 8 -25q7 7 33 16.5t35 20.5q32 20 95 48.5t81 37.5q18 19 66.5 58.5t74.5 64.5q12 0 17 2 t18 14q106 74 139 107l53 53q18 18 50.5 48.5t51 48.5t40 44t33.5 50q25 38 37 57t28 52.5t23 66.5q7 20 7 43q0 14 -2 28q-6 38 -22 70q0 1 -18 17q-17 18 -17 34h-88v-16h-88q-108 -36 -181.5 -103.5t-152.5 -177.5l-51 -51q-101 -124 -194 -299q0 -7 -8.5 -29t-8.5 -43 q-39 -76 -51 -102v-55q0 -11 -4 -36.5t-4 -43.5z" />
<glyph unicode="F" horiz-adv-x="1155" d="M2 145v19q8 8 20.5 26t23 28.5t20.5 10.5q22 22 74.5 53.5t72.5 51.5h39q0 10 7 20.5t13 15.5l7 5h40q23 26 41 26q13 13 46.5 23t42.5 16q20 23 20 84q50 156 61 195q67 247 166 479q30 129 68 195q20 20 20 59q10 23 40.5 65.5t39.5 61.5q0 13 1 20.5t4.5 19t13 17.5 t24.5 6q25 -20 43 -40q0 -47 -10.5 -94t-28 -100.5t-24.5 -82.5q-23 -20 -23 -82q-10 -27 -29.5 -75.5t-29.5 -75t-22 -67t-19 -77.5q0 -9 -7 -19t-13 -16l-7 -6q0 -12 -10 -44t-10 -42q-14 -14 -17.5 -31t-3.5 -53q0 -13 -14 -41t-29 -45q0 -63 -18 -104q0 -11 -10.5 -33 t-10.5 -33q189 0 273 -18q16 -18 52.5 -40t53.5 -22q41 23 127 23l21 -23q-7 -15 -21.5 -27t-28 -18.5t-24 -18t-10.5 -26.5q7 -16 18 -58.5t25 -66.5q9 -11 20 -31t21 -30v-86q17 -46 17 -137.5t-17 -155.5q-10 -32 -10.5 -106t-10.5 -107v-84q-14 -12 -29.5 -60.5 t-15.5 -66.5q-51 -126 -104 -216t-127 -161q-7 -8 -14 -20.5t-12.5 -17.5t-14.5 -5q-27 -33 -62.5 -49.5t-105.5 -36.5h-105q-110 42 -170 107q-23 36 -28 117.5t-13 113.5v86q-15 46 -15 111t15 80v82v106v64q11 22 11 64t12 63q8 34 18 118.5t23 128.5v68h-23 q0 -10 -10.5 -10.5t-26.5 -1.5t-24 -11q-59 0 -59 -18q-66 0 -144.5 16t-93.5 45zM172 205q9 -8 25.5 -8t34.5 4t20 4q22 12 48.5 17.5t43.5 6t57 0.5v25q25 18 25 80q-44 0 -82.5 -14t-61.5 -31.5t-55.5 -43.5t-54.5 -40zM390 -603q6 -128 36 -202v-41q1 -4 3 -13 q11 -43 19 -65.5t26 -53t46.5 -44.5t69.5 -14q13 12 33.5 22t29.5 19q5 5 24.5 20t35 31.5t24.5 36.5q151 258 234 506q0 34 11 93t11 77v41q13 46 19 103q4 39 4 83q0 20 -1 41q-3 67 -22 108q-2 4 -13 23.5t-15.5 27.5t-14.5 23.5t-20.5 28t-22.5 24.5q-20 -18 -84 -18 q-97 -41 -188 -68q-21 -11 -58 -21.5t-47 -19.5q-20 -20 -20 -61q-41 -92 -41 -170q-10 -18 -20.5 -71t-22.5 -74v-62q-25 -25 -25 -108q-12 -55 -12 -140q0 -29 1 -62zM575 293h39q10 9 56 19t67 22h47v22q-7 0 -46.5 9.5t-63.5 9.5q-10 13 -40 13t-44 13q0 -20 -2 -25.5 t-13 -19.5q-12 -22 -12 -38t12 -25z" />
<glyph unicode="G" horiz-adv-x="1357" d="M-8 248q-5 13 -5 34q0 25 7 60q14 65 14 70v-19v19q16 0 28.5 29t12.5 46v-16v16q0 41 19 60q0 9 9 26.5t9 26.5q7 0 11 6t5 12v5q11 16 30.5 49t29.5 45q0 35 16 53q1 18 19 18v41q4 7 19 31t20.5 32.5t19 29.5t20.5 31.5t20 29t22 30.5t21 27t23 28.5t23 25.5 q26 40 59 69q7 11 21 25.5t32.5 31.5t22.5 21v16h17q8 0 17 6.5t21.5 17.5t20.5 17v19h18q0 12 2.5 14t14.5 2q0 8 4.5 12.5t8.5 5.5l5 1q57 41 76 41q0 8 4.5 12.5t8.5 4.5l5 1h17q18 16 78 16q7 0 21.5 4.5t24.5 9.5l11 5h131q18 -9 56.5 -18.5t54.5 -16.5q9 0 29.5 -9 t29.5 -9q0 -12 2 -14.5t14 -2.5q56 50 95 70q8 0 27.5 -9.5t31.5 -9.5q14 0 16 -2t2 -14q0 -8 8.5 -27t8.5 -32v24v-24q-16 -35 0 -35v-19l-17 -75q-8 -15 -18.5 -62.5t-22.5 -66.5q-8 0 -12.5 -6t-4.5 -12l-1 -7v-16q-18 -18 -18 -54q-17 -27 -17 -59q-9 -8 -9 -17t-9 -18 q-45 -84 -76 -264q-8 -8 -18 -28.5t-23 -30.5v-17q0 -17 -4.5 -30.5t-15.5 -34.5t-15 -29v-37q-37 -84 -37 -151q-11 -9 -16 -20t-5.5 -20.5t-0.5 -35.5q-35 -72 -35 -131h-18q0 9 7 16q-5 2 -7 2q0 -34 -19 -53v-57q-17 -28 -29 -65.5t-12 -65.5q-5 -7 -9.5 -16t-7 -13.5 t-7.5 -8t-11 -3.5q0 -16 -9 -44t-9 -51q-41 -29 -41 -51q18 1 18 17v-17q-18 -25 -18 -59q-76 -76 -111 -94h-59h-35v18h-18q0 21 -8.5 57.5t-8.5 53.5v41v129q8 9 8.5 19.5t8.5 21.5q0 71 18 94q34 70 60 94v18q0 12 2 14.5t14 2.5q0 8 4.5 17t8.5 15l5 5l17 22 q0 14 2.5 18.5t15.5 16.5q11 8 43 36.5t51 41.5q23 16 41 16h19q-5 -4 -22.5 -17t-27.5 -23t-10 -17h23v-19q9 0 27 9.5t26 9.5q-71 -36 -94 -113v-18v-17l-16 -18q0 -55 -35 -94q0 -21 -12.5 -68t-12.5 -67q-14 -26 -14 -76t14 -94q38 38 76 135q18 18 18 76q10 7 16.5 31 t11.5 43.5t13 19.5q19 19 19 94q16 34 35 118t41 124v16q103 454 112 489q8 20 8.5 48t8.5 47q0 12 9 31t9 26v35q23 25 23 94v-16q0 19 4 53t4 62.5t-8 54.5q-13 -10 -24.5 -31.5t-16.5 -28.5q0 -18 -35 -53q0 -7 -9.5 -17t-9.5 -24q0 15 1 22.5t5 13t13 5.5h-19 q0 -7 -14.5 -30t-28.5 -42l-14 -20q13 13 35 55t22 55q0 -8 -6 -16.5t-17.5 -21t-17.5 -21.5q-7 -15 -25 -43t-28 -51q-20 -14 -41 -35q6 6 18.5 35.5t28 53.5t31.5 24h-18h18q22 57 57 110h-1h-1h-1h-1h-1h-1h-1h-1h-1h-1h-1h-1h-10q10 0 16 6.5t12 17.5t13 17q53 53 53 78 q0 12 -2.5 14t-15.5 2q0 13 -19.5 24t-34.5 11q-27 17 -65 19h-10q-32 0 -62 -8q-36 -9 -74 -25.5t-64.5 -32t-47.5 -29.5q-13 -6 -28.5 -11.5t-26 -10t-21.5 -12.5q-6 -7 -15.5 -13t-14.5 -10.5t-5 -11.5q-10 -14 -39.5 -25t-36.5 -16q-58 -58 -94 -113q-13 0 -24 -11 t-11 -24q-10 -14 -29.5 -46.5t-29.5 -47.5q-31 -39 -72 -76q-13 -34 -41 -86.5t-34 -66.5q-51 -65 -76 -189q0 -7 -9.5 -35t-9.5 -40v-35q-12 -26 -12 -62.5t12 -50.5q29 -52 81 -52t126 52q122 85 205 207q47 42 59 57q8 18 35 46t35 49q25 36 41 36v-18q0 9 9 18t9 17 q1 18 17 41q18 19 43 35q0 14 11 25t24 11q9 12 17.5 36t16.5 40q23 18 23 41q13 13 15.5 18t2.5 17h19v-16q-9 0 -13 -6t-5 -13.5t-1 -21.5q-14 0 -27.5 -12t-13.5 -25q0 -12 -2.5 -17t-15.5 -18q0 -24 -35 -59q-6 -6 -16.5 -36t-24.5 -40q-32 -29 -53 -76h18q0 19 21 47.5 t39 28.5q-17 0 -30 -18.5t-13 -34.5q14 13 16 18t2 18v-18q-9 -9 -18 -30t-17 -29q-8 -7 -27 -35.5t-32 -40.5q0 -9 -17.5 -26.5t-17.5 -26.5q-35 -35 -35 -60l-18 -16q-39 -48 -59.5 -72t-56.5 -59.5t-72 -57.5t-76 -34q-9 -9 -43 -19.5t-51 -21.5q-3 0 -30.5 -4t-50.5 -4 t-30 8q-14 0 -24 11t-17 11h-18v19h-19q-16 16 -36.5 46.5t-20.5 47.5z" />
<glyph unicode="H" horiz-adv-x="1015" d="M12 743v82v187v39v125q7 41 18 157.5t25 175.5q1 21 19 41q0 19 10 65t10 79q6 15 12.5 35t13 34t17.5 31q0 11 5 17.5t16 13.5t18 14h19h24v-45l19 -18v-62l20 -20q0 -5 -2 -11t-4 -10.5t-3 -9t1 -6.5t8 -2q0 -30 11.5 -93.5t11.5 -95.5v-41q0 -167 -23 -249v-82 q0 -101 -20 -144v-20v-209v22v41q2 0 5.5 1t9 6t5.5 14q0 43 23 63q36 116 76 193.5t110 132.5q18 25 43 25q11 11 40.5 23t60.5 14.5t44 -19.5q9 -8 14 -18.5t6 -17.5l1 -7q0 -8 4.5 -12.5t9.5 -5.5h4v-19v-20q19 -25 19 -43v-19q0 -11 6 -27t12 -26l6 -10v-82l19 -19v-127 v-63q0 -8 10 -28.5t10 -33.5v-38q0 -28 1 -42.5t6.5 -33t17.5 -29.5v-63h18v-39q9 -9 9 -32t10 -32q10 -19 20.5 -61t22.5 -64q0 -15 2.5 -20.5t17.5 -18.5v-20q8 0 17.5 -11t15.5 -21l6 -11q104 -102 104 -125h-18v-21q-4 -3 -11.5 -9.5t-11.5 -9.5l-10 -7.5t-10.5 -6.5 t-9.5 -3.5t-10 -1.5q-37 -25 -77 -25q-10 0 -20 2q-51 8 -65 41q-45 36 -45 63v19q-19 24 -19 63q-24 19 -24 84q-19 41 -19 125q-8 0 -12.5 4.5t-5.5 9.5v5v20v19v26v58q-21 45 -21 106v62l-22 38v125l-21 41v105q-18 20 -18 82q0 38 -25 63q1 -24 -22 -24v-19v-20 q-14 -14 -16.5 -19.5t-2.5 -23.5q-9 -9 -19.5 -55t-23.5 -66v-43q-29 -136 -59 -227v-19q0 -14 -1 -21t-6 -14.5t-16 -7.5v-39q0 -21 -9 -53t-9 -55q-13 -22 -24 -53.5t-19 -47.5v-43q0 -21 -23 -39q-15 -56 -61 -98q-33 -31 -72 -31q-15 0 -30 4h-19h-1h-1h-1h-1h-1h-1h-1 h-1h-1h-1h-1h-1h-1h-1h-10q-19 0 -19 82v43q-10 9 -10 30t-10 32v63v19q-19 21 -19 65v58q0 13 -12 44t-12 42v57q0 22 -9.5 74.5t-9.5 72.5z" />
<glyph unicode="I" horiz-adv-x="520" d="M12 319v103v57q10 20 10.5 72t10.5 72q0 80 20 141q33 145 62 223q0 7 10 27.5t10 34.5q11 22 41 70.5t39 66.5q3 3 36.5 31.5t45.5 52.5q25 0 35.5 -1.5t21.5 -10.5t21 -29v-62q-11 -11 -20.5 -31.5t-16.5 -29.5q0 -55 -21 -102q0 -7 -5 -16.5t-10 -15.5l-5 -5v-41 q-77 -174 -102 -303q-10 -31 -20 -102.5t-19 -98.5v-86v-78q0 -41 16 -95t43 -67q0 -2 1 -5t6 -3.5t14 8.5q7 0 11.5 5.5t11.5 16.5t17 19q12 23 44 61.5t34 41.5l86 -64q-6 -5 -34 -36.5t-52 -43.5q0 -15 -2 -20.5t-14 -22.5l-21 -18q-46 -23 -82 -33q-21 -6 -45 -5 q-16 1 -34 3q-44 6 -84 35q-27 29 -43.5 114.5t-16.5 169.5zM416 1671q17 57 24.5 81t23 59.5t34.5 64.5q0 8 10 9t25.5 2t23.5 9q25 14 55 14q7 0 15 -1q39 -4 53 -33q0 -40 -21 -61q-33 -94 -81 -144q-8 -7 -29 -16.5t-31 -20.5v-20h-20v-21l-21 -18q-10 0 -10 -10.5 t-10 -10.5h-17q-24 19 -24 117z" />
<glyph unicode="J" horiz-adv-x="563" d="M-12 -393q34 48 61 125q26 33 66.5 89t62.5 85q0 16 29 45l16 16q0 7 4.5 15.5t8.5 13.5l4 4q0 61 16 92q5 25 13.5 86.5t17.5 87.5q30 105 30 172h-16q-5 0 -14 -3.5t-17 -3.5t-14 7v33q10 10 14.5 12t16.5 2l14 17q10 -5 33.5 -11.5t35 -14t11.5 -21.5q12 -25 12 -55.5 t-12 -55.5q0 -24 -8 -59t-8 -49v-33q-31 -64 -31 -111q27 28 70.5 56.5t54.5 37.5q20 10 40.5 36t22.5 28q10 5 21.5 9.5t17.5 7t12.5 6.5t10.5 10l-29 -47l-33 -33q-7 -7 -14.5 -11.5t-11.5 -5.5h-4q7 0 23 8.5t24 8.5q-8 -8 -24 -16.5t-23 -16.5q-20 -15 -50 -45l-16 -16 h-12v-17q-17 0 -17 -14q-16 -33 -49 -66q-31 -27 -31 -45l-16 -16v-29q-6 -15 -14 -47t-17 -49q-7 -15 -14.5 -54.5t-15.5 -56.5q-15 -28 -39 -79.5t-39 -77.5q0 -12 -2.5 -16t-14.5 -13h-16v-33h-31h-16h-16q-8 8 -16.5 8.5t-16.5 8.5q-1 0 -13 16q-12 0 -16 1.5t-16 10.5 v66zM342 609q0 19 6 32q7 36 23 74t39.5 84t31.5 65q17 0 17 31q7 0 11.5 4.5t10 13.5t11.5 15q0 10 0.5 15t3.5 9t10 4t15.5 -3t12.5 -6l5 -3h16h16q0 -7 3.5 -11t6.5 -5h3q8 0 8 -2q0 -7 8 -15l16 -16v-31q0 -8 -16 -32.5t-16 -32.5q-12 0 -29 -13v-16q-12 -12 -16.5 -14 t-16.5 -2v-33h-16q0 -11 -2 -15t-12 -16q-1 0 -17 -16v-17q-8 -8 -14 -8q-2 0 -2 -8q-7 0 -11.5 -3.5t-10.5 -12t-11 -13.5v-16q-9 0 -10.5 -2t-1.5 -14l-17 -29v-16v-17q0 -12 -2 -16.5t-14 -16.5q-8 8 -16.5 25t-16.5 25q0 9 -3 32t-3 42z" />
<glyph unicode="K" horiz-adv-x="1404" d="M-16 -47q0 9 9 54t9 54q39 119 39 207q18 35 18 109q8 34 17.5 105t19.5 98v75q9 40 18.5 123t16.5 119q9 20 19 72.5t20 79.5q4 21 13.5 85t16 101t18 90t24.5 92q7 31 14.5 86.5t17 97t25.5 74.5q7 8 22 16.5t31 12.5q6 2 11 2q9 0 16 -4q12 -7 12 -27q8 -8 8 -26 t-4 -39t-4 -25v-92v-39v-37q-7 -8 -7 -22.5t3.5 -31.5t3.5 -22q-8 -27 -17 -88t-18 -96v-108q0 -76 -20 -113q0 -29 -9.5 -76t-9.5 -74v21q23 8 39 38.5t19 33.5q32 36 71 75v19q26 28 85 94t93 102.5t92 93t103.5 91t105 69t117.5 52.5q56 0 95 18q17 3 35 3q48 0 100 -23 q72 -32 86 -74q18 -93 18 -111q-10 -20 -29 -48.5t-28 -45.5v-18q0 -9 -18.5 -9.5t-18.5 -9.5q-8 0 -22.5 -14.5t-31.5 -35.5t-22 -26v-14l-18 -18q-9 -9 -9.5 -19t-9.5 -20v-19q-12 6 -19 7.5t-9.5 -3.5t-3 -8.5t-0.5 -13.5h-19q-20 0 -57 -37q-1 -1 -10.5 -12t-15 -17 t-17 -16t-21 -16t-23 -10.5t-26.5 -4.5h-18q-4 -8 -9 -15t-12 -13.5t-11.5 -10.5t-14.5 -10t-13.5 -8t-16 -8.5t-15.5 -8.5q-41 -20 -76 -55q-4 -4 -16 -14t-19 -17t-13.5 -19.5t-6.5 -25.5q18 -18 18 -94q13 -18 25 -44t19 -44.5t17.5 -51t14.5 -44.5q9 -9 18.5 -37 t18.5 -37q26 -51 71 -74q40 -36 58 -36q13 -14 26.5 -19.5t30.5 -1.5t25.5 7.5t29.5 13.5q95 61 146 110q41 37 57 37q8 8 27 37t30 39q5 5 17.5 21.5t26.5 31t30 23.5v-39q-18 0 -18 -37q-55 -55 -76 -94l20 18q0 -9 -10 -18.5t-10 -18.5q-17 -16 -30.5 -34t-32 -47.5 t-31.5 -47.5q0 -8 -18.5 -31.5t-18.5 -42.5q-10 0 -18 -9t-15 -9h-37q-11 -11 -39.5 -29.5t-36.5 -25.5h-57q-18 -7 -48 -7q-19 0 -42 2q-61 8 -76 21q-9 0 -19 9t-20 9q-34 27 -60 57t-48.5 73.5t-35.5 73.5t-38 93q-8 32 -18 113t-21 109h-18h-19h-18q-9 0 -19 -9.5 t-20 -9.5l20 19q-6 0 -11.5 -2t-12 -6t-11 -7t-12 -9.5t-10.5 -8.5q8 6 17 9.5t15 3.5l5 1q-9 -4 -30 -14t-38 -14.5t-41 -4.5q-17 -8 -27 -8t-22 4t-26 4q-19 -39 -19 -131v-20q-20 -57 -38.5 -177.5t-35.5 -172.5v-19q0 -14 -11.5 -37.5t-26.5 -38.5h-19 q-6 -6 -11.5 -16.5t-10.5 -15t-13 -4.5q-17 0 -58.5 12t-53.5 24v21zM522 750h37q0 -8 5.5 -13t10.5 -5l5 -1q21 21 76 78t87 88q16 25 40 49t58 53.5t54 49.5q20 29 58.5 86.5t50.5 76.5q93 93 114 148h-20q-19 -1 -37 -19q-19 -16 -37 -16q-9 -8 -38 -27t-38 -28v-19 q-18 -21 -39 -39q0 -18 -14 -36h-21q0 -39 -18 -39q-37 -37 -37 -56q-18 -24 -65 -70t-68 -75h-18q-19 -33 -59 -84.5t-50 -65.5q-7 -7 -17 -13t-15 -10.5t-5 -12.5z" />
<glyph unicode="L" horiz-adv-x="1071" d="M-84 354v23q17 19 60 35t63 16q44 22 82 47t78 55.5t65 47.5q8 9 28 23t33 26t13 24v51q0 74 27 123v25q8 33 16.5 100.5t21 123.5t35.5 100q79 320 224 571q11 0 17.5 6.5t15 19t18.5 21.5q0 14 11 26.5t11 24.5q13 0 19 8.5t7 16.5t1 24h1h1h1h1h1h1h1h1h1h1h1h1h1h1 h10q0 31 50 74l24 27l27 24q12 14 48.5 38.5t47.5 37.5h51q123 0 172 -27l27 -22q9 -10 22 -18.5t19 -15t6 -17.5q12 -12 12 -24.5t-6 -18.5l-6 -6v-52q0 -48 -23 -73v-50q-20 -40 -58 -136t-66 -138q-55 -111 -150 -248q-14 -32 -24.5 -51t-29.5 -40.5t-42 -33.5v-3v-3v-3 v-3v-3v-3v-8q-30 -53 -78 -97q-10 -12 -16 -25t-13.5 -34t-17.5 -41q-23 -23 -61.5 -72.5t-65.5 -74.5q-12 -25 -43 -57t-31 -44v-49q-22 -49 -21 -100q10 -31 21.5 -114.5t26.5 -111.5q0 -67 47 -122l27 -25q0 -21 3 -24t21 -3q0 -10 18 -28t47 -40t35 -28q37 -20 87 -20 t88 20q11 0 35.5 11.5t37.5 11.5q0 -3 -0.5 -6.5t-6.5 -10t-17 -6.5q-26 -26 -49 -51h22q-41 -21 -117 -31q-28 -4 -56 -4q-48 0 -97 10q-107 18 -195.5 105.5t-130.5 193.5q-9 18 -21.5 64t-27.5 61v74q-12 -12 -37 -24.5t-37 -26.5q-2 -1 -18.5 -8.5t-22.5 -10t-23 -9.5 t-27 -10t-26 -8t-28.5 -6.5t-27 -3t-27.5 0.5t-25 6h-98zM540 799q3 4 13 15.5t14 16.5t10 14t8.5 16.5t2.5 15.5q23 24 72.5 72.5t74.5 74.5q238 311 371 621q0 9 13.5 27t13.5 46q12 25 24.5 61.5t22.5 83.5q5 22 5 42q0 22 -6 42q-11 37 -46 46q-20 0 -26.5 -3.5 t-23.5 -23.5q-19 0 -34 -14t-15 -33q-45 -46 -78.5 -90.5t-66.5 -109t-48 -97.5t-55 -127q-147 -249 -174 -422q-19 0 -21.5 -2.5t-2.5 -21.5q-13 0 -19 -8.5t-7 -16.5t-1 -25q0 -37 -10.5 -99t-10.5 -101z" />
<glyph unicode="M" horiz-adv-x="1624" d="M-2 510q0 30 8 96t8 96q13 64 13 162q12 43 38.5 146.5t47.5 174t47 138.5q9 17 16.5 40.5t11.5 33.5q80 60 134 60q8 0 16 -1q38 -14 72.5 -35t44.5 -41q14 -20 21.5 -41.5t13.5 -49.5t10 -42q29 -93 43 -162q8 -23 15 -62.5t13 -53.5q0 -25 3 -35t14 -10q16 16 16 73 q15 31 101 117q8 8 33.5 8t41.5 8q59 0 78 -8.5t41 -50.5q54 -76 92.5 -221t38.5 -268q28 54 45 92q29 46 50.5 76.5t57.5 65.5t70 48q31 16 64 16q14 0 28 -3q48 -9 70 -41q7 -15 14.5 -45.5t14.5 -45.5q0 -7 7 -22t7 -21l17 -45q16 -45 16 -176v-133q0 -11 -3.5 -29 t-3.5 -29t7 -16q0 25 7 51t18.5 53.5t15.5 41.5l104 133v-12q0 -18 -8 -36.5t-8 -23.5v-16q-10 -96 -33 -193.5t-55 -158.5q-10 -16 -20.5 -64t-36.5 -57q-12 -9 -46 -9t-43 9q-13 7 -25.5 26t-18.5 33.5t-17 44.5v74q-12 45 -12 147q0 24 2.5 80t2.5 96.5t-5 59.5v45 q-8 22 -16 70t-15 63q-40 -40 -74 -102q-105 -157 -147 -297q-5 -17 -10 -38.5t-9.5 -36.5t-11.5 -28q-5 -12 -13 -21.5t-12 -17t-4 -20.5q-10 -14 -28.5 -57t-42.5 -60h-47h-45q-38 8 -61.5 29t-34 55t-15 66t-10 79.5t-12.5 79.5q-5 20 -5 41.5t2.5 40.5t2.5 21v76 q0 -24 -6.5 -50t-6.5 -40v-31v-103q-7 -14 -7 -31.5t3.5 -35t3.5 -21.5q-7 -6 -7 -17t3.5 -24t3.5 -18v-133q-5 -8 -9 -14t-10 -10t-10 -6.5t-14 -7t-16 -7.5q-45 -29 -45 -43v-15h-29q0 -8 -12 -15.5t-17 -14.5q-18 -7 -46 -12q-20 -4 -43 -4q-9 0 -19 1q-34 2 -55 15 q-20 11 -33.5 44t-18.5 65.5t-11.5 84t-10.5 72.5q-17 81 -17 250q-6 22 -6 92t-6 100v119q-16 76 -16 209v145q-13 -13 -20 -35t-12.5 -52.5t-10.5 -45.5q-25 -66 -56 -192.5t-47 -177.5q0 -56 -15 -118t-44 -73q0 -11 -2 -12.5t-14 -1.5q-13 15 -13 31q-16 12 -16 102z " />
<glyph unicode="N" horiz-adv-x="1855" d="M-104 946q23 61 41 103t44.5 99t53 98.5t60 84.5t73.5 76.5t86 56.5q14 7 66 14.5t59 14.5h63q45 -11 83 -56.5t58.5 -108t26.5 -135.5q2 -18 2 -36q0 -53 -14 -102v-94q-14 -45 -14 -140q-7 -21 -7 -44.5t3.5 -52t3.5 -44.5q-7 -14 -7 -29.5t3.5 -35t3.5 -29.5 q0 -15 -3.5 -44t-3.5 -52.5t7 -43.5q4 -24 4 -47q0 -14 -1 -28q-3 -30 -3 -64v-17q1 -44 14 -63q0 19 5.5 42.5t11.5 42t19 48t19 42t22 42.5t17 33q72 190 156 344q49 43 94 109q36 54 71 87t94 55q43 16 94 15q19 0 40 -2q32 -32 45 -61q7 -6 7 -18t-3.5 -30.5t-3.5 -29.5 q17 -50 18 -205v-110q-12 -34 -12 -92.5t12 -92.5q6 -31 5 -62q1 -14 -1 -28q-1 -12 -1 -24q1 -33 7 -64q10 -43 38 -57q10 -11 14 -12.5t14 -1.5q21 6 40.5 24t41 47t29.5 37q20 27 47.5 54.5t61 57.5t47.5 44l108 110q74 34 96 59q15 18 15 36l-15 -220h-16 q-16 -30 -69.5 -77.5t-69.5 -81.5q-17 -19 -61 -77.5t-81 -96.5t-77 -60q-41 -25 -86 -25h-16q-53 6 -97.5 31t-69.5 58q-18 26 -22 98t-8 90q-18 72 -22.5 200t-8.5 161q-6 16 -9.5 92t-21.5 94q-8 -14 -20.5 -26t-30.5 -26.5t-29 -25.5q-54 -109 -108 -188 q-17 -32 -32 -65t-29.5 -71t-24.5 -63t-25 -70.5t-20.5 -63.5t-22 -71t-20.5 -65q-10 -26 -26 -104.5t-36 -136.5t-49 -73q-11 -7 -27 -7q-18 0 -40 8q-44 16 -80.5 48t-36.5 60q7 22 7 50q0 52 -24 124v31q-5 31 -13.5 114.5t-18.5 120.5q-21 227 -45 514v64 q-17 50 -17 155q0 81 -14 95q-38 -38 -64 -125q-8 -7 -15.5 -22.5t-14.5 -22.5q-8 0 -16 -7.5t-15 -7.5q0 -5 1.5 -13t2 -13t-4 -11.5t-15.5 -11.5q-34 0 -48 -16q-33 -25 -73 -38q-26 -8 -54 -8q-16 0 -33 2q-46 8 -75 44q0 16 -14 16z" />
<glyph unicode="O" horiz-adv-x="1198" d="M31 350q0 70 16 99q8 64 26 111t56 122q137 225 416 473q55 56 90 89.5t96 78t119 70.5q53 29 125.5 29t126.5 -29q5 -7 11.5 -21t14.5 -22l41 -13q34 -13 73.5 -63.5t39.5 -89.5v26h-14q6 -6 9.5 -12.5t4.5 -9.5v-4h12v-43v-29q-12 -27 -12 -82q-8 -24 -24 -56t-19 -40 l-180 -348q-20 -46 -41 -70q-9 -20 -14.5 -29t-16 -20.5t-24.5 -17.5q-16 -33 -43 -60q-14 -19 -32 -40.5t-29 -32.5t-39.5 -39t-37.5 -37q0 -7 -4 -11.5t-12 -9t-12 -8.5q-8 -7 -33 -32t-39 -38q-5 0 -12 -3t-11 -6l-4 -3q-78 -82 -123 -98q-32 -17 -78 -17t-104 17 q-42 0 -69 14q-70 21 -129.5 85t-92.5 149q-6 8 -13 32t-15 39zM266 572q-4 -24 -4 -45q0 -28 6 -52v-43q0 -41 13 -70q6 -25 16 -47.5t28 -56t25 -47.5q24 -55 56 -55q15 0 50 6t48 6q5 7 12 11t21 9.5t22 8.5q23 15 65.5 51t57.5 47q138 115 246 268.5t213 356.5 q24 54 36 112q8 36 8 75q0 23 -3 47q-7 66 -41 112q-12 13 -26 17t-34 5.5t-34 5.5q-7 -5 -42 -12t-42 -16q-7 -4 -33 -16t-38.5 -18.5t-33 -18t-36 -23t-27.5 -23.5q-6 0 -20.5 -13t-20.5 -13q-103 -79 -166 -195q-5 -4 -11 -7.5t-9.5 -5t-6 -5t-2.5 -8.5q-12 -12 -23 -25 t-22.5 -32.5t-17 -29t-19 -35.5t-16.5 -32q-6 -6 -6 -20.5t-6 -20.5q-5 -32 -5 -56q0 -19 3 -32q7 -31 30 -66q11 -16 27 -27t38.5 -17.5t39.5 -9.5t46 -7t42 -6q11 -4 28 -4q20 0 48 6q52 10 63 10v-12q-15 -9 -51 -23t-47 -20h-13q-29 -29 -166 -29q-87 26 -134 56.5 t-74 97.5q0 3 -7 21t-11 34.5t1 40.5q10 45 32 88t41 68.5t55.5 70t53.5 66.5l27 26l43 43q0 5 3.5 8.5t11.5 9t14 11.5h-17q-14 -15 -41 -42t-41 -42q-2 -3 -9 -10t-10 -11t-6 -10t-3 -12q-56 -47 -93 -112.5t-73 -163.5q-21 -44 -29 -98z" />
<glyph unicode="P" horiz-adv-x="1161" d="M-39 666q34 34 88 114.5t60 89.5q72 127 247 398q10 9 36.5 41.5t46.5 52.5q19 20 53 34q20 9 42 9q13 0 27 -4q0 -24 -6 -68t-6 -65v-31v-14v-17v-26v14q6 6 12.5 21t13.5 22q13 24 56 57t65 33q5 5 8.5 5t3.5 -2l1 -3h28h60q0 -8 7 -16t7 -15q8 -14 8 -44t8 -46 q0 -35 -30 -157v-148q14 0 14 -14q0 -9 -3 -36.5t-3 -52.5t6 -44v16q0 -41 22.5 -80.5t51.5 -66.5h16q30 -35 63 -35q11 0 21 4q10 5 48.5 28.5t56.5 30.5l190 88l-16 -16q0 -26 -13 -43q-29 -29 -45 -41v-16q-10 0 -18 -9.5t-8 -21.5h-17q0 -14 -14 -14h-16 q-5 -4 -8.5 -9.5t-5.5 -9.5t-5.5 -7t-7.5 -3q-17 9 -40 -11t-34 -20v17h-16q-33 -17 -88 -17q-4 1 -54.5 15t-76.5 32q-51 30 -71 72t-30 117q-16 59 -16 164q0 69 16 100v57q0 8 2.5 50t2.5 74t-5 38q-45 -40 -61 -72q0 -16 -12 -16q-6 -5 -10 -11t-6 -10.5t-6.5 -16 t-8.5 -19.5h-17l17 -17h-17q-6 -6 -20 -27.5t-23 -29.5v-31q-11 -9 -20.5 -28t-9.5 -31q0 -4 -7.5 -26.5t-7.5 -31.5q-6 -29 -6 -98t-6 -106q-7 -14 -7 -43t-7 -45q0 -60 14 -74v-160v-57q0 -16 -3 -43t-3 -45.5t6 -32.5q0 -7 -2 -20t-2.5 -21t3.5 -17t13 -14q0 -16 7.5 -27 t7.5 -16v-31v-12q7 0 7 -8t-3.5 -21t-3.5 -18h-15q0 -7 7.5 -14t7.5 -13q-4 0 -26 -8q-22 -6 -39 -10q-6 -1 -13 -2q-11 0 -23 4q-13 8 -23 21t-18 33t-12 32t-11 39.5t-9 34.5v61v86v74q16 61 16 162v31q6 14 6 46t6 54q6 34 14.5 115t16.5 120q17 89 43 222q6 17 14 58 t17 58q26 106 26 189v-15q-20 -9 -40 -39t-29 -63q-12 -11 -14.5 -15t-2.5 -16v-12q-4 -8 -17 -31t-24 -45t-16 -43q0 -27 -16 -43q-63 -144 -96 -197q-52 -80 -123 -126q-86 -58 -134 -58z" />
<glyph unicode="Q" horiz-adv-x="1148" d="M8 1340q2 47 25 77q68 68 161 77q18 2 35 2q73 0 138 -32q138 -43 271.5 -164.5t227.5 -267.5q15 -29 39.5 -90t40.5 -88q8 -15 8.5 -43t8.5 -37l18 -31q0 51 31 111q30 141 49 211q10 11 12 23t2 42q33 29 33 48q14 0 14 14q7 0 11.5 -3.5t4.5 -6.5l1 -4q27 -92 27 -204 q0 -64 -9 -134v-353q-18 -127 -18 -385q-46 -380 -144 -739h-49q0 22 -4.5 29.5t-13 10.5t-13.5 9v17v14q-7 0 -11 4t-4 8l-1 4v15q0 18 8 66t8 65q7 33 7.5 92t7.5 84l-15 65q0 35 -13 166q-7 75 -7 125q0 38 4 62q3 13 3 47q0 28 -2 72q-1 19 -1 35q0 65 16 87 q-75 -38 -150 -38q-54 0 -108 20h-32q-29 33 -47 33q-39 18 -75 42.5t-63.5 48t-58.5 61t-50.5 63.5t-49 74.5t-44.5 75t-46.5 83.5t-45.5 82q-8 7 -8 28t-8 38q-18 14 -49 45q0 8 -8.5 32.5t-8.5 32.5q-26 42 -41 87q-14 42 -14 84v8zM187 1310q0 -19 1.5 -53.5t1.5 -48.5 v-47q0 -47 20.5 -99t45.5 -77q5 -15 23 -66t26 -79q24 -33 72.5 -96.5t71.5 -96.5q15 -6 23 -13.5t14.5 -19t11.5 -16.5q7 0 23.5 9t25.5 9q6 -7 24.5 -43t36.5 -55q29 -19 70 -32q38 -13 88 -13h8q54 1 92 29q7 0 15.5 21t17.5 28q17 0 31 16q-15 15 -15 80 q0 31 -17.5 87.5t-31.5 88.5q-5 15 -11.5 45t-14 49t-21.5 33q-74 124 -145 195q-1 1 -9 5l-10 5t-9 5t-9.5 5.5t-8.5 5.5t-9 6.5t-7.5 6.5t-7 7.5t-5.5 7.5t-5 9q-49 52 -127 80q-20 11 -76 45t-100 53q-5 0 -21 3.5t-31.5 3.5t-29.5 -7q-12 -12 -17 -34.5t-5 -41.5z" />
<glyph unicode="R" horiz-adv-x="1191" d="M-10 339q-3 9 -3 17q0 11 7 19q0 11 10 20t10 17q25 10 42.5 6t46 -13.5t42.5 -9.5q11 16 56.5 66t54.5 82q34 31 70 104.5t41 81.5q73 69 73 129q-89 46 -108 111q-14 29 -14 76t14 75q12 39 40 84.5t53 77t67 81t59 71.5q31 91 115 151q18 8 59 8.5t49 8.5q57 0 76 -17 q1 -2 12 -15t16 -19.5t13 -22.5t14 -35q0 -33 -27.5 -94t-27.5 -76q-22 -45 -48.5 -113t-27.5 -71q-7 -15 -25 -62t-28 -69q12 14 27 17t49 3q39 19 81 28q20 4 40 4q24 0 48 -6q45 -10 70 -46q18 -26 22 -52q2 -14 3 -31q0 -17 -2 -35q-4 -40 -4 -50q15 -43 15 -121.5 t-15 -122.5q-9 -19 -9.5 -65t-9.5 -64q-7 -32 -7 -68.5t3.5 -81t3.5 -67.5q-12 -32 -12 -79t12 -75v-73q56 -165 92 -187q8 0 37 20.5t39 20.5l17 -170q-63 -22 -125 -22q-47 1 -94 13q-109 30 -152 101q-9 18 -18.5 56.5t-18.5 56.5q0 58 12 146.5t25 129.5v95 q8 63 27.5 193.5t27.5 197.5q20 62 35 142q8 43 8 73q0 26 -6 43q-42 -10 -93.5 -38.5t-74.5 -35.5q-20 -11 -69 -30t-58 -23q-25 -48 -66 -145t-69.5 -157.5t-81.5 -129.5t-117 -107q-50 -22 -106 -30q-20 -3 -40 -4q-35 0 -71 10q-56 16 -82 61q-16 13 -24 36zM502 1076 q4 -54 30 -68q23 23 39.5 73t20.5 58q8 16 42.5 77.5t56.5 110t30 90.5h-19q-25 -55 -73 -78q0 -8 -9.5 -26t-9.5 -27q-13 -15 -18.5 -17.5t-20.5 -2.5q-11 -20 -21.5 -48.5t-17.5 -43.5l-16 -19q-14 -21 -14 -61q-1 -9 0 -18z" />
<glyph unicode="S" horiz-adv-x="811" d="M-10 -371q0 12 3.5 26t7 22.5t11.5 26.5t11 24h18v-19q-8 0 -8 -4t4 -13t4 -16q7 0 23.5 -7t23.5 -7q7 5 24.5 14t26.5 19q16 14 35 33q67 47 117 116q5 6 14 11.5t14 10t5 11.5q19 9 45.5 40.5t36.5 41.5q16 19 16 33l13.5 13.5t12 15t9.5 13.5t9.5 15t7.5 13.5t8 15 t7 14.5q67 137 84 201q5 41 5 86q0 30 -2 63q-6 81 -21 148q-10 29 -19 72.5t-14 62.5q-5 14 -26 76.5t-31.5 94.5t-23.5 84.5t-19 94.5q-14 37 -14 75q0 10 1 18q4 46 16 78.5t32 60.5q0 27 12 46t35 19q84 0 102 -14h66q57 -27 88.5 -57t44.5 -78q12 -24 12 -51 q1 -27 -11 -57q-22 -61 -52 -73q-6 0 -10 4t-4 8l-1 3q-10 19 -35.5 78t-31.5 71q-5 4 -13 14.5t-15.5 14.5t-22.5 4q-15 -17 -15 -117q0 -6 4 -14t8 -13l3 -5v-82q10 -28 18 -79t14 -71v-51q0 -18 9.5 -38.5t9.5 -27.5v-100q7 -8 7 -21t-3.5 -27t-3.5 -18q7 -15 7 -31 t-3.5 -36t-3.5 -31q12 -26 12 -68.5t-12 -68.5v-33q0 -32 -19 -47v-65v-19q0 -49 -14 -84l-18 -35q-7 -17 -7.5 -40t-7.5 -40v-18h-18v-33q0 -20 -33 -49h18v17v-17q-18 -17 -18 -33q-2 0 -5 -0.5t-8 -5t-5 -12.5v-16q-6 0 -10 -4t-5 -8v-5l-18 -33h18q0 33 15 33v-18v-15 q-33 0 -33 -18h-15l-18 -14q-3 -4 -11 -15t-13 -18t-12 -13t-13 -6q-5 -5 -23 -22t-28 -25l-15 -18q-32 0 -51 -17q-6 0 -9.5 -4t-3.5 -8l-1 -4q-14 0 -29.5 3.5t-24 3.5t-16.5 -7q-4 0 -24.5 -8t-36.5 -12q-6 -1 -12 -1q-12 0 -25 5h-17q-10 -5 -20 -5q-5 -1 -11 1 q-16 4 -44.5 12t-40.5 8v51z" />
<glyph unicode="T" horiz-adv-x="1112" d="M-49 1161q11 3 33.5 12.5t39 14t33.5 4.5h35q28 11 96 21t97 18h106q26 7 88 7t90 7h33q7 28 25.5 105.5t27.5 109.5q12 34 34 99t39.5 113.5t33.5 86.5q8 16 28.5 69t41.5 86t53 58q24 0 38.5 -7.5t21 -16.5t7.5 -29.5t-1 -32.5t-6 -39q-2 -11 -3 -16q-20 -54 -39 -169 t-37 -167q-35 -153 -35 -231h91h71q35 -6 105.5 -9t120.5 -11.5t75 -31.5h13q12 0 25.5 -20t13.5 -31q-16 0 -58 2.5t-77 2.5t-58 -5h-70q-45 0 -135 -9t-135 -9q-16 -20 -16 -70q-17 -41 -17 -123v-39q-18 -72 -18 -211v-108q-15 -69 -15 -141q0 -65 12 -131 q25 -142 91 -220q32 -71 72 -90q15 -10 17.5 -14.5t2.5 -18.5h-39q-17 -8 -33 -8q-30 0 -57 27q-32 15 -55.5 35t-57 57t-45.5 49q-24 39 -37 81.5t-25.5 109.5t-23.5 108q0 70 -18 105v51v196v70q18 53 18 123q15 57 15 141q-174 0 -262 -18h-54h-125q-21 -5 -47 -5 q-28 0 -62 6q-65 11 -65 38q-13 0 -15.5 2.5t-2.5 15.5z" />
<glyph unicode="U" horiz-adv-x="1761" d="M-26 812q5 65 38 85q9 6 19 6q20 0 43 -24q13 14 53 26t57 21q118 35 205 88q161 56 406 248q14 16 86.5 30.5t113.5 14.5q18 -21 0 -23q19 -22 68 -22h-23q-4 -4 -20 -17t-23.5 -21t-15.5 -22.5t-8 -30.5q-40 -50 -67.5 -110t-58.5 -151.5t-52 -141.5q-18 -44 -30 -77 t-27 -87q-15 -52 -21 -98q-5 -36 -5 -80v-22q2 -56 15 -107q90 57 156 154q23 25 65 67q108 146 160 250q31 38 80 110.5t94 129t94 96.5q26 25 70.5 47.5t94.5 32.5q15 3 29 2q32 0 56 -15q10 0 20.5 -11t22.5 -11q7 -6 17 -12l15 -9t9 -9t4 -15q16 -16 16 -50 q0 -30 -9 -60q-9 -32 -18 -66.5t-9 -48.5v-43q-13 -24 -24.5 -80.5t-22.5 -77.5v-68q-22 -68 -56 -203t-57 -202v-90q-17 -51 -17 -89t17 -89q13 -13 24.5 -47.5t20.5 -45.5h47q0 17 10.5 21t32.5 4q9 4 47.5 24.5t69.5 32t61 11.5q-30 -38 -65 -68q-10 -11 -21.5 -17.5 t-31 -14t-35.5 -15.5q-17 -13 -51.5 -43.5t-57.5 -45.5t-59 -31q-30 -13 -64 -13h-13q-42 3 -93 22q-25 0 -68 43q-3 3 -15.5 16t-18.5 20.5t-15.5 18.5t-13.5 19.5t-4 15.5q-4 13 -13 37.5t-13 37t-9.5 32t-7.5 37t-2 37.5q-11 10 -11 22t5.5 31.5t5.5 36.5v67v68 q12 25 23.5 87t21.5 93q10 22 21 83.5t24 96.5q43 80 43 133q-92 -141 -133 -225q-31 -53 -93 -110q-9 -10 -14 -21.5t-5 -18.5l-1 -6q-37 -52 -95.5 -110.5t-107.5 -89.5q-9 -5 -40 -24t-53 -32t-53 -24.5t-55 -11.5q-18 10 -65.5 22.5t-82 23.5t-34.5 21q-81 102 -81 267 q0 225 149 567q-23 -24 -85 -47.5t-93 -44.5q-25 -23 -48 -23q-26 -11 -72.5 -35.5t-62.5 -32.5q-18 -5 -40.5 -21t-39 -32t-36.5 -30t-33.5 -15.5t-28.5 10.5q-33 33 -33 92q0 10 1 20z" />
<glyph unicode="V" horiz-adv-x="1193" d="M20 514v41q0 7 4.5 19.5t4.5 22.5t-9 19v148v41v61q21 43 21 144v20q9 27 27.5 89t29.5 94.5t34 75.5t52 73q15 31 53.5 56.5t69.5 25.5h25q15 15 20.5 17.5t20.5 2.5h20q42 0 62 -20q43 -21 68.5 -68t33.5 -93.5t18.5 -111t22.5 -100.5v-41v-41v-20q10 -41 10 -123 t10 -123q7 -7 8.5 -12t-1 -8.5t-5 -10t-2.5 -14.5q41 -125 41 -184q21 -21 21 -82q0 -10 10 -41t10 -41q0 -15 3 -18t18 -3v-61q20 -21 20 -41q0 -10 10.5 -31t10.5 -31v-20q20 -20 20 -66v-20q7 -7 14 -18.5t12.5 -17t14.5 -5.5v-21h21q50 206 63 271v82q10 30 10.5 102 t10.5 103v40v82v21v65v21q11 29 16 58.5t5.5 47t0.5 58.5h-22h-84h-41q-15 7 -33.5 14t-29 12.5t-19.5 14.5q-15 0 -20.5 2.5t-20.5 17.5v21h-21v41h21v20h20q1 21 21 21h20l61 30.5t62 30.5q10 0 31.5 -5t38.5 -10l16 -5q7 -7 14 -18.5t12.5 -17t14.5 -5.5q0 -15 31 -8 l31 8q9 0 24 5t26 10l11 5q20 0 51 10.5t52 10.5l-41 -123q-23 -23 -103 -62q-41 0 -61 -20v-21v-61v-41v-21v-20v-107q9 -9 9 -24t-5 -26l-4 -11v-164v-82v-20q10 0 10 -20.5t10 -20.5q0 -10 -10 -20.5t-10 -20.5t10 -41t10 -41q-9 -9 -9 -19.5t4.5 -23t4.5 -19.5v-45v-61 q-4 -8 -19 -47t-30 -63t-33 -33q-23 -21 -43 -21q-7 -3 -23 -11l-26 -13t-27 -11t-30 -8.5t-29 -2.5t-31 5q-36 15 -64.5 39t-51.5 63t-35 65.5t-33 78.5q-9 21 -19.5 52.5t-21.5 53.5q-39 240 -82 369q0 102 -20 143v45q-9 27 -19.5 84.5t-21.5 79.5v62q-10 30 -20.5 102 t-20.5 103q0 61 -25 81q-21 -20 -41 -20q0 -41 -20 -61l-21 -21q0 -7 -10 -33t-10 -49q-42 -63 -82 -184q0 -80 -21 -123v-45v-21q-9 -9 -14 -24t-6 -26v-11v-41v-61v-62q20 -20 20 -61q7 -14 24 -39t27.5 -45.5t10.5 -38.5q-15 -15 -20.5 -18t-20.5 -3q-2 0 -5.5 1t-9.5 6 t-6 14q-9 0 -14 7t-5.5 14t-0.5 20q-18 27 -28.5 62t-19 87t-14.5 76z" />
<glyph unicode="W" horiz-adv-x="1185" d="M-2 -25v86v107v86q0 46 22 65q0 7 -5 21.5t-5 31t10 36.5q0 123 21 192q0 112 22 172q13 45 36 140.5t44.5 164.5t49.5 127v43q11 35 32.5 90t30.5 82q7 6 22 29q14 22 30 34q9 6 18 7q8 0 16 -4l23 -23q0 -85 -23 -108q0 -33 -10 -96.5t-10 -96.5v-108q-23 -23 -23 -109 v-84v-43v-88v-20v-174q12 12 22.5 44t20.5 42q0 26 11.5 63.5t11.5 44.5q20 23 20 66q32 60 66 172q19 38 73 136t76 144q15 14 36 44.5t43.5 52.5t51.5 32q9 0 25.5 5t28.5 11l12 5q9 0 14 -5.5t5 -10.5l1 -5q23 -23 23 -65v-23q9 -37 9 -84.5t-4.5 -100.5t-4.5 -73v-278 v-174q10 -21 10 -63.5t10 -63.5q0 -21 11.5 -87t11.5 -88q25 25 43 104t22 89q12 31 43 116.5t50 132t58 107.5t85 97q0 -10 -2 -21.5t-4.5 -20.5t-8 -22t-8.5 -20t-10 -22t-10 -21q-11 -11 -11 -43.5t-12 -42.5q0 -24 -10 -63t-10 -46v-22q-23 -20 -23 -109v-41v-86 q0 -154 -22 -195q0 -10 -5 -16t-17.5 -13.5t-20.5 -15.5q-14 -31 -36 -49t-71 -35q-13 0 -46 -4.5t-65 -4.5t-61 9q-29 19 -39.5 51.5t-14 83.5t-11.5 80v66v63v130q10 29 10 56t-5 54t-5 41v43q22 63 22 193q10 33 10.5 98t10.5 98q0 88 22 129v129q-17 -17 -22 -19.5 t-21 -2.5q-12 -12 -33.5 -43t-31.5 -41q-41 -41 -41 -109q-12 -12 -23 -33.5t-20 -31.5v-43q-39 -73 -66 -131q0 -30 -0.5 -43t-5.5 -33t-16 -31q-59 -255 -66 -280q0 -107 -20 -150v-23v-43v-1v-1v-1v-1v-1v-1v-1v-1v-1v-1v-1v-1v-10v-129q0 -15 4.5 -39.5t4.5 -41 t-9 -26.5q0 -32 -14 -59t-29 -27q-10 -10 -21 -15.5t-17 -6.5h-5q-17 0 -20 -3t-3 -18h-23q-10 -11 -30.5 -11t-30.5 -11h-88q-20 11 -37.5 31.5t-24 32t-24.5 44.5z" />
<glyph unicode="X" horiz-adv-x="1132" d="M6 31q8 9 8.5 26t8.5 25q9 17 34 43.5t33 44.5q18 35 35 110.5t33 108.5q11 40 29.5 123t21.5 98q9 9 -3.5 29t-12.5 25q-7 24 -16 74t-19 77q0 102 18 135v86q19 83 86 205q8 7 25 16t26 19q126 0 170 -86q8 -17 8.5 -64.5t8.5 -72.5v-35q12 12 20.5 24t12 18.5t9 21 t9.5 22.5q25 34 67 110t68 111q8 9 16.5 26t16.5 25q77 35 123 35q16 16 135 16q17 -16 33 -16q13 -7 31.5 -9t27 -6t8.5 -20q-11 -11 -51 -84l-152 -223q-61 -126 -100 -186q-7 -17 -30.5 -57t-40.5 -78t-17 -68q12 -12 34 -46t34 -59q22 -36 104 -118q0 -8 8 -16.5 t8 -16.5q7 -7 11.5 -16t4.5 -14l1 -5q37 -54 102 -119q9 -9 51.5 -40t71.5 -60t29 -53q-8 0 -33.5 -9.5t-34.5 -9.5q0 -20 -1 -29t-8.5 -19t-23.5 -19q-17 -3 -26.5 -4t-34 5t-37.5 10t-38 12.5t-34 11.5q-166 65 -239 120q-25 8 -67 42t-68 42q0 -12 -11 -33t-24 -34v-68 q-5 -12 -31.5 -60t-36.5 -77q-16 -16 -31.5 -47t-36.5 -48t-67 -24q-29 0 -69.5 11t-51.5 24q-7 0 -11 4.5t-9.5 13.5t-11.5 15q-7 0 -36.5 8t-49.5 8q0 18 -8.5 35t-8.5 33z" />
<glyph unicode="Y" horiz-adv-x="1110" d="M4 629q-5 10 -5 28q0 26 9 69q17 75 17 83q8 28 17.5 79t20.5 83q11 21 32 71.5t30 69.5v18q9 0 14.5 5.5t12 17t12.5 18.5v21q0 22 41 59v21q0 20 20 20q2 0 5.5 1t9.5 6t6 14q0 10 10 20.5t10 20.5h19q0 9 16 16.5t36.5 4.5t29.5 -21q15 0 7 -20l-7 -21 q0 -10 -10.5 -20.5t-10.5 -20.5t-10 -20t-10 -19q0 -10 -10.5 -31t-10.5 -31q-9 0 -14 -5t-5 -10l-1 -5v-21q-9 -9 -19 -18.5t-20 -19.5v-21q-10 -20 -20.5 -50t-20.5 -50q0 -10 -10.5 -31t-10.5 -31q-9 0 -14 -6.5t-5.5 -13t-0.5 -19.5q-1 -20 -19 -20v-21q0 -41 -20 -59 q0 -12 -4.5 -44t-4.5 -62t9 -56q42 14 103 71t77 91q10 0 20.5 9t20.5 9q10 21 40 52t40 51h20q36 33 60 59q0 23 41 60q45 71 119 141q41 41 59 61q41 41 41 60l41 41l20 20q3 3 21 22t24.5 24t25 16t39.5 14.5t50 3.5q13 0 20 -0.5t14 -5.5t7 -14q17 -6 28.5 -13.5 t19.5 -21.5t11.5 -21.5t10.5 -31.5t10 -33q20 -40 20 -60q-20 -21 -20 -41v-41v-38q-21 -21 -21 -62q-18 -59 -59 -180q-10 0 -10 -10.5t-10 -10.5q0 -21 -10.5 -50t-10.5 -50q-39 -39 -39 -61h101q21 -19 59 -19v-20v-21h-21h-59q-10 0 -40.5 -10t-39.5 -10h-20 q-10 -10 -10.5 -30.5t-10.5 -29.5q0 -10 -10 -30.5t-10 -30.5v-21q0 -33 -3.5 -49t-17.5 -30q0 -10 -10 -30.5t-10 -29.5v-20q0 -10 -9.5 -30t-9.5 -30v-20v-19q-9 0 -14 -5t-5 -10l-1 -5q0 -41 -21 -62q0 -9 -10 -29t-10 -30v-20h-21q0 -10 -10 -30.5t-10 -29.5 q-7 -7 -17.5 -14t-16 -12.5t-5.5 -14.5q-9 -9 -14 -19t-6 -16v-6q-21 -21 -41 -39q0 -9 -4.5 -14t-9.5 -6h-5q0 -9 -5 -19t-10 -16l-5 -6q-15 0 -18 -3t-3 -18h-18q-21 -20 -41 -38h-19q-13 -7 -29 -19t-30 -17t-41 -5q-7 7 -18.5 14t-17 12.5t-5.5 14.5q-41 37 -41 59 q-14 29 -26.5 89t-12.5 93q8 8 8 18t-4 28.5t-4 33.5q8 19 18 59t21 62v20q9 8 14 18t6 16l1 5q29 85 100 160q64 64 80 100h20q41 41 76 63.5t105 57.5q9 0 29 10.5t30 10.5q21 257 100 663q-9 0 -14 -5t-6 -10v-5h-39v-21h-21l-41 -39q-66 -69 -100 -100q0 -9 -5 -14 t-10 -6h-5v-21q-8 0 -12.5 -5t-5.5 -10l-1 -5q-41 -41 -41 -60l-18 -20v-21q-9 0 -14 -5t-6 -10l-1 -5q-15 -15 -17.5 -20t-2.5 -19q-19 -21 -39 -41q-10 -20 -40.5 -60t-39.5 -61q-10 0 -20.5 -10t-20.5 -10q-55 -79 -85 -108q-35 -33 -77 -54q-7 0 -32 -9.5t-48 -9.5 q-30 13 -57.5 41t-42.5 60zM374 -154q5 -73 32 -102q7 0 19.5 -4t22.5 -4t19 8q14 0 38.5 33t41.5 69q82 112 160 301q9 21 19 66.5t19 73.5q0 17 10.5 72t10.5 87v62q-10 0 -20.5 -10.5t-20.5 -10.5v-20q-28 -31 -59 -59v-21q-43 -43 -60 -80q-11 -11 -31 -41t-28 -39 l-41 -39q-4 -4 -19 -20t-20.5 -21.5t-17 -18.5t-17.5 -21t-13.5 -19t-12.5 -20q0 -41 -19 -62v-59q-13 -23 -13 -73v-28z" />
<glyph unicode="Z" horiz-adv-x="1574" d="M-31 258q37 18 74 55q9 8 46.5 27.5t47.5 30.5q0 37 19 37q18 9 65.5 18t65.5 18q27 11 54 23.5t60 30.5t51.5 28.5t60.5 35.5t54 32q11 5 44 30t61 39t45 5q13 0 15.5 -2.5t2.5 -16.5v-18q0 -19 -18 -37q-65 -62 -168 -131q-9 0 -19 -18.5t-20 -18.5q-98 -98 -129 -113 v-18q49 -25 109.5 -43t140.5 -37.5t123 -32.5q33 -8 65.5 -8t73 4t65.5 4h187q299 0 430 -18q13 -28 15.5 -37t2.5 -37v-37q-32 -23 -99.5 -28.5t-86.5 -10.5q-70 -17 -171 -26t-168 -10t-183 -1v-18h-19v18h-112q-9 9 -37.5 9.5t-38.5 9.5q-37 9 -111 9t-112 9 q-62 18 -184.5 37.5t-170.5 38.5q-18 9 -56 37t-56 37q0 20 -9.5 48t-9.5 46zM399 1174q0 21 25 50.5t31 41.5q0 23 1.5 33t9.5 21.5t26 20.5q33 19 56 22.5t34.5 -3.5t33 -19.5t43.5 -17.5q17 17 40.5 26t58 16.5t51.5 12.5q67 10 151 16q36 2 75 3q52 -1 109 -5 q99 -8 150 -32q22 0 42 -24.5t34 -32.5q0 -21 -9 -53.5t-9 -39.5q-14 -13 -48 -61.5t-65 -69.5q-88 -86 -223 -186l-21 -19q-28 -43 -85.5 -89.5t-100.5 -59.5v18q6 6 20.5 29.5t36.5 44.5q13 18 74 94t94 131q25 25 37 38.5t24.5 34.5t12.5 38q-74 0 -113 -18h-92 q-16 -4 -31.5 -8.5t-34 -12t-30 -11.5t-34 -15t-29.5 -14t-34.5 -16.5t-31.5 -15.5q-37 0 -37 -18q0 -19 -18 -39q-5 0 -26.5 -4t-40 -4t-26.5 8q-10 0 -19.5 10.5t-18.5 10.5q-8 8 -17 12.5t-15 5.5h-5q-29 14 -49 62q-12 28 -12 54q0 18 5 34z" />
<glyph unicode="`" d="M405 1387q0 7 13 20h28v29q2 -2 5 -4.5t9.5 -6.5t10.5 -1.5t4 12.5q71 -36 149 -96.5t155.5 -120.5t148.5 -95q-29 27 -56 27q13 -13 55.5 -26.5t57.5 -28.5q0 -19 -24 -11q-14 4 -13 9q1 2 8 2h-3h-3h-4h-4h-5h-9q0 -10 -4.5 -13t-10 -1.5t-10 -1.5t-4.5 -13 q-166 70 -284 137t-197 146q0 11 -6.5 20.5t-6.5 16.5z" />
<glyph unicode="a" horiz-adv-x="1200" d="M-4 258q11 44 35.5 80.5t60 76t51.5 64.5q35 53 79.5 100t101 92t99.5 75t112 75q24 13 73 50t74 49q50 20 117 33t138 13q1 0 2 1q69 -1 121 -31t62 -90q0 -18 -0.5 -25t-6 -15.5t-17.5 -8.5q22 -11 78 -23.5t69 -25.5v-48q-19 -18 -21.5 -24t-2.5 -25q-7 -18 -30.5 -74 t-35 -86.5t-27.5 -79.5t-23 -92.5t-7 -85.5h24q0 17 12 21t37 4h25v-25v-71q0 -25 -25 -25q11 0 17.5 -6t7.5 -12v-6q-9 -9 -23 -17.5t-20 -15t-6 -17.5q-13 -13 -13 -21q0 -3 -9 -3h-3q-11 -11 -29 -11t-40 5.5t-29 5.5q0 13 -12.5 12t-12.5 12q-97 39 -131 89 q-22 33 -22 89q0 30 6 66h-25q0 -11 -22 -34t-59.5 -54.5t-38.5 -32.5q-38 -23 -84.5 -61.5t-79.5 -68t-81.5 -56t-99.5 -35.5q-25 -9 -46 -9q-14 0 -24 3q-30 9 -50 31h-49q-11 0 -23.5 12t-27.5 32.5t-23 28.5h-49q-22 22 -48 84t-26 111zM362 186q25 23 74 23l74 74 q55 33 109 75t125.5 104t107.5 91q89 45 123 147q-22 0 -33.5 6t-23 21t-17.5 21h-24q-19 0 -25 -3t-25 -20q-27 0 -65.5 -33t-54.5 -41q-46 -35 -93.5 -84.5t-75.5 -85t-77 -100.5q-66 -99 -99 -195z" />
<glyph unicode="b" horiz-adv-x="1099" d="M0 76v30q24 21 39.5 60.5t15.5 81.5q15 24 29.5 67t32 103t26.5 88v29q12 36 27.5 116t32.5 111q23 69 72 238t90 285t94 218h26q21 0 30.5 -0.5t25.5 -7.5t28 -20q33 -27 33 -60q0 -12 -16.5 -40t-16.5 -44v-24q-8 -19 -17 -47t-16.5 -42t-21.5 -26q-26 -69 -69 -212.5 t-72 -217.5l-31 -29v-86q-13 -13 -26.5 -42t-28.5 -44h28q0 35 58 86q77 79 161 128.5t207 101.5q45 8 87 8q84 0 156 -31q108 -46 128 -149q7 -27 7 -56q1 -55 -25 -113q-40 -90 -95 -145v-57q-15 -17 -44 -31t-42 -24q-58 -80 -138.5 -131t-205.5 -101q-21 -22 -89 -33 q-24 -4 -49 -4q-44 0 -89 13h-84q-24 0 -27.5 2.5t-3.5 21.5h-55v59q-14 0 -20.5 -10t-7.5 -20t-1 -29q-55 -24 -88 -24q-2 0 -6 0.5t-13.5 3t-16.5 7.5t-13 16t-6 26zM342 420q28 28 90 71.5t82 43.5q0 -22 -3.5 -29.5t-25.5 -30.5v-3v-3v-3v-3v-3v-9q-12 0 -18.5 -7.5 t-6.5 -15.5l-1 -8q0 -13 -7.5 -20.5t-24.5 -17t-28 -20.5v-59q-3 -7 -15.5 -29.5t-15 -30.5t-7 -27.5t-1 -38.5t12.5 -44h57h29q14 16 56 30t54 27q201 120 344 316q14 25 25.5 56.5t18.5 69.5q3 15 3 31q0 21 -6 43q-10 36 -41 56h-112h-60q-11 -13 -25 -20t-22 -8l-8 -1 q-67 -44 -142 -101.5t-114 -96.5q-49 -46 -88 -115z" />
<glyph unicode="c" horiz-adv-x="761" d="M2 242q0 12 3.5 17t23.5 24q0 57 16 84v22q9 0 15 3.5t8.5 8t8 14.5t9.5 17h-16q41 93 107 183.5t142 158.5q33 35 47.5 49t51.5 38.5t76 35.5q24 10 59 18q35 9 73 11h12q30 0 48 -11q27 0 59 -41q66 0 66 -43q-6 -5 -8 -20t-9 -26t-26 -11q-19 20 -63 22q-12 1 -23 1 q-32 0 -60 -5q-40 -7 -69 -18q-26 -22 -51.5 -49t-52 -57.5t-39.5 -44.5q0 -11 -6 -17.5t-12 -7.5h-7q0 -14 -25 -14q0 -14 -7 -26t-7 -23q-13 0 -19 -6t-7 -13t-1 -24q-15 -15 -28.5 -33.5t-21.5 -32.5t-23.5 -41t-26.5 -45q0 -16 -15 -82t-15 -113t30 -53 q13 -11 23.5 -7.5t30.5 12.5t30 9q62 29 191 111q20 19 61 40.5t61 43.5q10 9 43.5 30t42.5 36l109 -27q-23 -8 -56.5 -28.5t-52.5 -28.5q-9 -14 -42.5 -35t-43.5 -31q-11 -12 -15.5 -14t-22.5 -2q-25 -26 -25 -51q-8 -6 -42.5 -29.5t-50 -34t-49 -30.5t-57 -31t-55 -23 t-61.5 -18q-24 0 -63 12t-50 12q-6 8 -16 13t-17 5l-6 1q-31 31 -57.5 98t-26.5 117z" />
<glyph unicode="d" horiz-adv-x="944" d="M-2 10v82q9 16 27 57t37.5 75.5t43.5 58.5q102 200 355 407q23 12 64.5 39.5t70.5 40.5h86q10 26 22.5 108t28.5 113q11 26 40.5 101t46.5 115.5t47 97t59 94.5q17 20 23 23t30 3q33 12 59 12q75 0 103 -91q8 -23 8 -43q1 -9 -1 -18q-6 -27 -19 -61.5t-13 -43.5 q-22 -20 -25.5 -27t-3.5 -29q-10 -19 -39.5 -76.5t-43.5 -84t-36.5 -67t-41.5 -69.5v-26q-29 -53 -29 -111q-26 -13 -48 -38t-30.5 -40t-30.5 -57q0 -25 -14 -94t-14 -96v-29q-27 -82 -27 -244q37 0 71.5 20t69 50.5t52.5 40.5q0 -17 11 -44t11 -38q0 -13 -5.5 -20t-10.5 -8 l-6 -1q0 -20 -3.5 -26.5t-25.5 -28.5q-3 0 -7.5 -0.5t-12 -7.5t-7.5 -19q-49 -17 -82 -17q-8 1 -14 1q-36 4 -92 43q-20 0 -30.5 1t-26 7.5t-29.5 20.5q-23 54 -23 77v111q-85 -76 -165 -162q-10 -10 -19 -25.5t-16.5 -22.5t-20.5 -7q-14 -7 -59 -43.5t-78 -36.5 q-33 -12 -72 -12q-33 0 -67 8q-78 18 -78 57zM80 37h26q22 0 29 3.5t27 25.5q14 0 28.5 9t24 18t27.5 28q74 72 113 112.5t94.5 108t93.5 131.5q82 82 82 109q26 51 26 137q-12 -13 -25.5 -20t-21.5 -8l-8 -1q-10 -12 -30 -26t-35 -22l-15 -7q-24 -11 -38 -24.5t-24.5 -30 t-19.5 -25.5q-20 0 -26 -3.5t-27 -25.5q0 -2 -1 -6t-8 -10t-20 -6l-24 -31q0 -12 -7 -18.5t-15 -7.5l-7 -1q-11 -12 -53 -53t-56 -57q0 -12 -14 -53t-14 -54q-43 -45 -62.5 -88t-19.5 -104z" />
<glyph unicode="e" horiz-adv-x="1011" d="M0 348v86q13 26 32.5 43t38 26t52 13.5t55 5t64.5 0.5q15 55 37.5 104t58.5 103t55.5 79.5t67.5 86.5q38 41 67 68q10 10 32 20.5t34 22.5q150 0 219 -66q0 -65 23 -88q0 -12 10 -22.5t10 -20.5v-68v-153q-65 -114 -187 -194t-274 -113v-23q22 -10 55 -31.5t54 -31.5 q34 -19 77.5 -19t77.5 19q41 0 61 0.5t46 5t47 14.5q33 0 99.5 11.5t97.5 11.5l22 -23q-47 -47 -103 -82t-128 -60.5t-126 -40.5t-147 -36q-47 -9 -91 -9q-37 0 -69 6q-74 13 -126 48q-16 15 -27 34t-15 32t-12 43l-12 45v86h-45q-15 8 -45.5 21t-53 24t-32.5 22zM375 545 h43q67 0 86 22q3 1 17.5 7.5t19.5 9t18.5 9t20 10.5t17.5 10.5t17.5 12.5t13 13.5t11.5 15.5q44 88 44 154q0 49 -24 86q-36 45 -88 45q0 -9 -11 -20.5t-11 -24.5q-14 0 -17.5 -10.5t-3.5 -32.5q-18 0 -21 -3t-3 -20q-25 -25 -44 -75t-22 -56q-9 -29 -36 -79.5t-27 -73.5z " />
<glyph unicode="f" horiz-adv-x="1064" d="M-59 6q0 11 5 20q7 10 21 21t28.5 19t35 20t35.5 23q17 7 61.5 29.5t69.5 31.5q96 48 268 92v131q10 11 10 17.5t-5 13.5t-5 14q22 39 22 137v64v158q5 0 6.5 2t0.5 6t-2.5 9t-3 12t-1.5 14q21 55 43 176t45 178q4 5 11 15.5t13 19t16 20t19 18.5t22 14q11 6 21 6 q2 0 4 -1q12 -1 28 -4q23 0 45 -16t22 -43v-29q0 -6 4.5 -14.5t4.5 -20t-9 -31.5q20 -22 0 -22q0 -12 -12 -22.5t-12 -20.5v-45q0 -23 -8.5 -102t-8.5 -101v-41q-51 -89 -51 -158v-24q-9 -18 -20.5 -75t-24.5 -79q0 -31 -8 -109.5t-8 -113.5q41 0 129 47q141 25 309 113 l69 -25q-57 -60 -155 -88q-52 -28 -167 -79.5t-124 -55.5q29 -21 68 -131q1 -1 7.5 -7t7 -7t6 -7t6.5 -7.5t5 -7t4.5 -9t3 -9t3.5 -10.5t1.5 -12t0.5 -14q18 -17 21 -25t3 -41q19 -22 19 -47q-1 -20 24 -45q0 -16 23 -16v-49q0 -10 5.5 -16t11.5 -7h5q23 -41 23 -84 q9 -12 20 -37t23 -39q-1 -16 24 -39q0 -9 22.5 -47t22.5 -63q1 -25 17 -25q0 -12 18 -64q12 -33 12 -62q0 -16 -4 -31v-64q0 -15 -7.5 -29t-15.5 -22t-23.5 -20.5t-20.5 -16.5l-21 -23q-4 -2 -71.5 -38.5t-106.5 -51.5q-25 0 -63 12.5t-49 12.5q-16 8 -28.5 17t-21.5 16 t-16.5 20.5t-11.5 20t-9.5 26t-7.5 28t-7.5 35t-8.5 38.5q-17 29 -31 84.5t-14 91.5v45q-10 29 -22 84.5t-27 91.5v108q-8 35 -8.5 103t-8.5 102v217q-102 0 -182 -41q-154 -49 -219 -61q-13 -8 -26 -10.5t-29 0.5t-25 5.5t-28 10.5t-25 10q-12 19 -12 35zM330 154h45 q10 0 37 8t53 8h-47q-63 0 -88 -16zM598 84q0 -198 21.5 -395t64.5 -338q12 -42 23.5 -74.5t30.5 -69t45 -57t57 -20.5q12 11 12 30.5t12 32.5q0 160 -24 203q0 126 -19 198q-24 58 -58 170t-54 164q-5 8 -18 31.5t-20 35t-20.5 30t-27.5 32.5q0 27 -25 27z" />
<glyph unicode="g" horiz-adv-x="884" d="M4 698l51 54q0 6 1.5 11.5t5 11.5t6 10t9 11t9.5 10.5t11.5 11.5t11.5 11q32 49 53.5 79t56 67t70.5 61h78h53q17 -9 53.5 -19t56 -22t19.5 -34q-37 -40 -51 -54q-19 -17 -29 -25.5t-31 -17t-45 -8.5v-27q-14 -14 -39.5 -26.5t-38.5 -24.5q74 0 108 -0.5t88.5 -6.5 t90.5 -19q10 -10 24 -19t19.5 -16t5.5 -19q10 0 30 -12t50 -12q11 11 42.5 11t69.5 -5.5t44 -5.5v-27q0 20 -3 20q-5 -1 -24 -20h27q0 -26 -131 -26q26 -49 26 -127q0 -80 27 -80v53q0 -109 -53 -209v-53q0 -9 -12.5 -41t-12.5 -60q11 10 17.5 29t7.5 33v14v-76 q-7 -15 -18 -35t-17 -32t-11 -29t-5 -35l26 78q13 13 13 26.5t12 26.5q14 38 27 115.5t26 116.5v131q12 -12 18.5 -25.5t7.5 -20.5l1 -7v-25v-27q0 -14 -13.5 -52t-13.5 -52q0 -35 -1 -53.5t-7 -41.5t-19 -36q-11 -32 -36.5 -97.5t-40.5 -109.5q-26 -36 -60.5 -98 t-67.5 -107.5t-79 -79.5v-2.5t-1.5 -5.5t-4 -7.5t-8 -6t-13.5 -2.5l-27 -27h-3h-3h-3h-3h-3h-9q-53 -53 -78 -53h-27q-21 -19 -27 -22t-26 -3q-12 -12 -18 -12t-6 12h-52h-26q0 11 -6 17.5t-12 6.5l-7 1q-26 26 -26 104q-12 34 -12 85t6 106.5t6 69.5v77q14 39 38.5 116 t38.5 116q0 20 16.5 36.5t35.5 16.5q10 21 23 68.5t28 62.5q12 23 31 42t42 37t31 26q10 18 21.5 29.5t20 16t29.5 13.5t34 16q0 19 3 22t23 3q0 13 8 19t16.5 7t26.5 1q-36 13 -81 19t-71 6.5t-81 0.5q-22 -22 -81 -33q-22 -4 -42 -4q-33 0 -59 11q-24 -1 -51 26 q-27 0 -78 51h-27zM186 -262q10 -18 13 -46.5t9.5 -42.5t29.5 -14q13 14 38.5 27.5t38.5 26.5q26 53 92 169.5t91 166.5q14 42 39 105.5t38 100.5q28 42 48.5 100t25.5 123q1 10 1 21q0 51 -21 94h-27q0 -14 -26.5 -38.5t-26.5 -36.5q-23 -12 -35.5 -25.5t-23 -29.5 t-19.5 -25q0 -11 -6.5 -17.5t-13.5 -6.5l-7 -1q0 -13 -12 -26t-12 -27q0 -12 -6.5 -18.5t-21.5 -15t-25 -17.5q-14 -15 -28 -50.5t-24 -54.5v-10.5t-1.5 -2.5t-3.5 0t-8 -2.5t-13 -10.5v-27q-14 -12 -27 -38t-24 -38v27q0 -14 -12.5 -40t-12.5 -38q-27 -80 -27 -262z" />
<glyph unicode="h" horiz-adv-x="921" d="M-2 59q10 0 15.5 -7t6.5 -14v-7q0 47 16.5 157.5t16.5 180.5v-29v51q0 51 23 82q-12 0 -20 -12q-3 -3 -3 1v11q27 14 45.5 126.5t26.5 127.5q26 78 69.5 227.5t83 264t84.5 206.5h23q-17 -19 -20 -25t-3 -24h23h25q0 18 0.5 25t6.5 15.5t19 8.5h51q14 0 26.5 -12 t23.5 -12v-25h79q0 -9 5 -26.5t5 -35.5t-10 -40v-3q0 -18 -1 -27t-6.5 -17t-16.5 -8q0 -11 6 -17.5t12 -7.5h6q0 -11 -23.5 -50t-23.5 -52q-16 0 -23 -9t-8 -17.5t-1 -29.5q-23 1 -23 -22h23h-23q-18 -18 -33.5 -73.5t-15.5 -78.5q0 -15 -7.5 -23t-14.5 -9l-7 -1v-47 q-10 -21 -24 -43.5t-20.5 -35.5t-6.5 -25q0 -14 -0.5 -21t-2.5 -16.5t-7 -13.5t-13 -4v-48q0 -3 -0.5 -8t-8.5 -13.5t-23 -8.5v-25q-20 -21 0 -22v-56q0 -13 -11.5 -37.5t-11.5 -35.5q13 12 27.5 23t24.5 18.5t27.5 18t24.5 14.5t28 15.5t26 14.5q10 11 36 23t47 18l21 6h23 q0 -10 12 -10t34 5t34 5v-22q10 10 16 10t14 -5t17 -5q12 -11 25.5 -17.5t21.5 -6.5l8 -1q19 -21 26 -30t15 -24t8 -28v-51q17 0 26.5 -1t19.5 -7t10 -19q11 -11 11 -53.5t11 -71.5l25 -24v-55q-3 0 -7 -0.5t-11 -7.5t-7 -19h-1h-1h-1h-1h-1h-1h-1h-1h-1h-1h-1h-1h-10v-23 h-31h-25h-22h-27h-55q-17 0 -32 26.5t-15 47.5q0 16 -16.5 29.5t-16.5 25.5q0 102 -23 125q0 8 5 31t5 42.5t-10 31.5h-47q-18 -27 -56.5 -47t-47.5 -31q0 -12 -7.5 -24t-14.5 -18l-7 -7q-14 -28 -38.5 -54t-35.5 -49q-19 -14 -44.5 -55t-34.5 -51q0 -32 -56 -78v-24h-8 t-3 -0.5t-0.5 -2.5t0.5 -4t-3 -6.5t-8 -9.5q0 17 -3.5 20t-23.5 3q0 -11 -11 -38t-11 -40l-31 24q-11 0 -37.5 8t-47.5 16l-20 7q-22 22 -22 102z" />
<glyph unicode="i" horiz-adv-x="530" d="M-18 66q0 8 5 17t10 14l5 5q12 13 32.5 34.5t34 35.5t21.5 23q6 12 14 23.5t13 17l15 16.5t13 14q42 40 72 109q9 8 17.5 17t19.5 20l18 18q8 18 36 54t36 53q1 36 21 36h16q13 7 24 8.5t20.5 -3.5t14 -8.5t13.5 -12.5q-1 0 -17 -20v-17q-8 -8 -26.5 -34.5t-28.5 -34.5 q-8 -28 -26.5 -75t-26.5 -75q-45 -83 -45 -190q0 -40 6 -82q39 35 39 55q8 9 26.5 19t26.5 20l55 -76q0 -9 -9 -18.5t-9 -18.5q-10 -10 -22 -23.5t-17.5 -19t-18.5 -13.5t-32 -15q-37 0 -82 15.5t-45 39.5q-25 24 -29.5 50t3 63t7.5 51q0 -9 -9 -18t-9 -17q-13 0 -25 -12.5 t-12 -26.5q-9 0 -37 -9t-37 -9q0 -14 -20.5 -23t-30.5 4q-20 1 -20 19zM374 781.5q0 27.5 3.5 60t3.5 43.5q27 139 92 235q1 3 31.5 48.5t40.5 78.5q21 0 55.5 -16t34.5 -39v-35q-19 0 -19 -18q-19 -21 -36 -35q-9 -21 -27 -59t-25 -54q-15 0 -17.5 -1.5t-2.5 -12.5 q-6 0 -9.5 -5.5t-4.5 -10.5v-5q0 -7 -5 -15.5t-11 -13.5l-5 -5q0 -15 -2.5 -18t-17.5 -3v-16v-19q-17 -19 -17 -53q0 -11 -9 -20t-9 -17q0 -7 4 -14t4 -12t-8 -13v-16h-19q-18 0 -18 16q-7 17 -7 44.5z" />
<glyph unicode="j" horiz-adv-x="653" d="M12 -289q0 77 19 96q0 118 18 175q19 97 117 292q9 18 39 57.5t39 59.5q8 0 18 4.5t16 9.5l5 5q24 53 77 77q7 8 17.5 14.5t16 11.5t5.5 13v19h-20v137v57q-19 19 -19 78q0 13 22 35t36 22q23 -9 28.5 -30.5t10.5 -26.5q3 -11 16 -49t20 -62t14 -59.5t7 -62.5h21 q18 20 79 20h58l-19 -39h-39q-12 -10 -51 -20t-49 -19l21 -96v-252q-10 -32 -20.5 -99.5t-18.5 -96.5q-34 -162 -78 -271q-1 -21 -19 -39q0 -19 -59 -78q-19 -28 -34.5 -45.5t-41.5 -39.5t-61 -29q-19 -5 -41 -5q-17 0 -35 3q-19 10 -47.5 10t-48.5 10q0 9 -9.5 9.5 t-9.5 9.5q8 17 8 51t-4 79.5t-4 63.5zM127 -96q0 -135 20 -213q0 -6 -4.5 -17.5t-4.5 -21.5t9 -19q7 8 17.5 14.5t16 11.5t5.5 13q76 76 97 117q120 218 120 536q0 60 -4 124v20q0 -10 -10 -20t-10 -19q-30 -15 -56.5 -42t-39.5 -56q-129 -191 -156 -428zM360 1245q8 8 8 13 t-4 12t-4 14h39q24 0 34 -0.5t21.5 -5t20.5 -14.5q21 -19 21 -78q-11 -20 -21 -69t-18 -68v-39h-39h-19q-27 42 -33 87.5t-6 147.5z" />
<glyph unicode="k" horiz-adv-x="933" d="M-10 -23v78l26 29v111v79q14 41 27 123t27 123v51q32 112 92 338t69 260q13 26 27 81t29 83q0 18 0.5 26t6.5 17.5t19 9.5q0 20 17.5 38t36.5 18h55h-27h27v-29q22 0 28 -3.5t27 -23.5q29 -52 29 -81q0 -11 -14.5 -45t-14.5 -62l-12 -1q0 -1 2 -3q10 -11 10 -25h-3h-3h-3 h-3h-3h-3h-8v-26v-56q-15 -15 -15 -25q0 -3 -11 -3h-3v-25v-1v-1v-1v-1v-1v-1v-1v-1v-1v-1v-1v-1v-1v-1v-1v-1v-1v-9v3v3v3v3v3v3v8v-1v-1v-1v-1v-1v-1v-1v-1v-1v-1v-1v-1v-1v-1v-1v-1v-1v-9q0 -3 -0.5 -7.5t-7.5 -12t-19 -7.5v-29h27h-27v-55v29q-13 -13 -20 -33t-7 -33 l-1 -14v-29v-1v-1v-1v-1v-1v-1v-1v-1v-1v-1v-1v-1v-1v-1v-1v-1v-1v-9h-25v-56v-28v-25v25q3 0 7 0.5t11 7.5t7 20q21 0 24.5 3.5t3.5 23.5v29q7 -8 10.5 -14t3 -8.5t0.5 -4.5t2.5 -2h10.5v29v1v1v1v1v1v1v1v1v1v1v1v1v1v1v1v1v1v9l29 -26v26v29v-29h3h3h3h3h3h3h8v53v-24h29 v1v1v1v1v1v1v1v1v1v1v1v1v1v1v10h-29h29v27h1h1h1h1h1h1h1h1h1h1h1h1h1h1h10h-24v-27q6 6 9 10l3 3v1l3 4l9 9v29v-29q13 0 27 14.5t29 14.5v26v-26h3h3h3h3h3h3h8q8 7 11.5 13t2.5 8t0.5 3.5t3 1.5h11.5v-1v-1v-1v-1v-1v-1v-1v-1v-1v-1v-1v-1v-1v-1v-1v-1v-1v-9 q0 12 6.5 18.5t13.5 7.5h7q13 15 40 29.5t40 26.5q13 0 43.5 3t49 3.5t39 -7t29.5 -26.5q0 -13 7.5 -26.5t14.5 -20.5l7 -8q0 -15 -14.5 -29t-14.5 -27v-24q-3 0 -7.5 -1t-11.5 -8t-7 -20q-8 -7 -11.5 -13t-2.5 -8t-0.5 -3.5t-3 -1.5h-11.5v-29q-33 -52 -54.5 -82.5 t-58 -70.5t-73.5 -66l-27 -23q-22 -21 -56.5 -38t-54.5 -17q-25 -27 -79 -27q20 -21 23 -27.5t3 -27.5q0 -13 14.5 -26t14.5 -27q-1 -29 24 -29q0 -20 3 -26.5t24 -28.5q20 -29 43.5 -50t57.5 -38t52.5 -24t63.5 -23h135v-27h29v-29q-26 -21 -86 -31q-21 -4 -40 -3 q-35 0 -64 12q-151 33 -297 133q0 13 -7.5 26t-14.5 20l-7 7q-20 0 -23.5 3.5t-3.5 23.5h-1h-1h-1h-1h-1h-1h-1h-1h-1h-1h-1h-1h-1h-1h-1h-1h-1h-1h-1h-9v55q0 -20 -3 -23.5t-22 -3.5v27v-27q0 -21 -3.5 -27.5t-25.5 -27.5q0 -12 -13 -39t-13 -41v-28q0 -18 -1 -28 t-7.5 -24.5t-20.5 -25.5v-111q-55 -108 -160 -108q0 13 -7 13t-14 -7l-7 -6q0 3 -0.5 7.5t-7.5 12.5t-19 8h-27q0 13 -13 66.5t-13 68.5zM451 543q14 15 53.5 28.5t52.5 26.5t58.5 56t61 60.5t38.5 55t33 76.5q-29 0 -56 -29q-11 0 -17.5 -7t-15 -22t-18.5 -26 q-13 0 -20 -6.5t-16 -22.5t-19 -26q-29 -25 -56 -54l-24 -55z" />
<glyph unicode="l" horiz-adv-x="403" d="M34 191q-3 20 -2 39q0 30 7 59v61q11 9 16 22t5.5 22.5t0.5 35.5q4 20 13 74.5t18.5 87t28.5 59.5q22 65 32.5 95t32 82t45 91.5t52.5 75.5q8 8 28 39t33 41q6 7 12.5 18.5t12.5 17t16 5.5q27 58 121 121q18 0 59 41q62 -1 62 -21q8 0 22.5 -5t25.5 -10l11 -5v-100 q-8 -18 -28.5 -69.5t-30.5 -72.5q-20 -30 -51 -91t-52 -91q-8 -9 -18.5 -29t-22.5 -32q-87 -174 -161 -222q-74 -78 -140 -100h-41q-9 0 -14 -5t-5 -10l-1 -5q-10 -9 -10.5 -35.5t-10.5 -46.5q-7 -29 -7 -58q0 -36 11 -71q20 -64 78 -93q7 -8 17 -8q18 0 43 29q18 9 37.5 24 t39 33t25.5 23l59 -39v-21q-2 0 -5 -0.5t-8 -5.5t-5 -14q-78 -68 -102 -82q-9 -8 -19.5 -8t-22.5 4t-18 4q-33 -11 -59 -3.5t-43 26.5q-26 0 -60 38q-19 34 -27 85zM141 489q21 23 41 23q44 44 60 80q14 14 31.5 36t27 35t33 47.5t28.5 41.5q28 28 56.5 69.5t44.5 70.5 t43 83q50 53 80 141q15 15 21 21.5t13 23t7 35.5q-15 0 -25 -4t-13.5 -7.5t-11.5 -14t-12 -15.5q-80 -35 -100 -80q-94 -94 -157 -193t-107 -231q-15 -15 -27 -43t-12 -57q-21 -21 -21 -62z" />
<glyph unicode="m" horiz-adv-x="1507" d="M-2 146q2 8 5.5 16.5t7 20.5t3.5 22v188q17 17 26 38t10 34.5t1 38.5q33 103 67 175t83 124q29 88 86 137t139 49h74q53 -26 81.5 -99.5t28.5 -162.5q0 -16 10 -43.5t20 -46.5l11 -19q0 26 4.5 30.5t30.5 4.5q6 12 18.5 41.5t21 48t24.5 41t31.5 31.5t38.5 7.5t50 -19.5 h41q30 -30 52 -82t22 -103q16 0 25.5 -19t10.5 -39l1 -19q0 29 41.5 89t66.5 60q22 15 54 15q20 0 43 -6q61 -15 94 -46q23 -37 37.5 -102t21 -123t28.5 -121.5t60 -101.5q29 29 34 38.5t5 37.5l37 -37q0 -20 -18.5 -39t-18.5 -37h37q0 -35 -43.5 -69.5t-101.5 -46.5 q-25 -5 -51 -6q-33 0 -66 9q-52 29 -84 80t-68 146q19 -16 19 -35t-9 -30l-10 -11q-59 -61 -128 -61q-43 0 -91 24q-18 0 -28 9.5t-22.5 31t-24.5 35.5v149v74v37v149h-37v-112q-16 -15 -17.5 -35t-3.5 -40.5t-18 -35.5v-115v-71q-17 -36 -26 -78t-10 -69.5t0 -78.5 q-20 -10 -42 -26q-23 -14 -33 -20q-8 -4 -21 -5q-4 1 -8 1q-19 2 -47 14h-73q-15 15 -16.5 54.5t-3.5 88.5t-17 80q-17 52 -26 128t-10 130t-1 155q-16 15 -17 35t-3 51t-17 62v37q-12 0 -20 -4.5t-12 -10.5t-6 -18t-2.5 -19.5t-0.5 -23.5q-17 -18 -35 -54.5t-37 -54.5 q0 -44 -19 -109.5t-19 -78.5q0 -18 -18.5 -56t-18.5 -59q-19 -37 -37 -110.5t-35 -108.5q-16 0 -29.5 -10t-33.5 -20.5t-52 -10.5v76q-10 0 -14 4q-2 3 -3 7q0 1 1 4z" />
<glyph unicode="n" horiz-adv-x="1564" d="M-43 4v49q27 13 45 26.5t30.5 32t19.5 32.5t19.5 43t22.5 49q13 23 46 95t66.5 128.5t74.5 95.5q135 276 231 324q20 20 54 31.5t58 12.5l23 1q55 0 89.5 -18.5t49 -47.5t20.5 -73q6 -41 7 -80q-1 -3 -1 -6v-9q0 -38 4 -86q4 -54 15 -94q19 -18 21 -53.5t4 -60.5t21 -25 q93 97 137 139h47q17 0 32 10t27.5 10t34.5 -20q30 0 61 -22.5t76 -67.5h45q33 -36 91 -66t94 -30q0 -19 12 -30t24 -12l11 -1q34 -34 34 -51.5t-34 -86.5h-94q-22 -19 -41 -19q-12 0 -23 8q-29 18 -29 56q-63 0 -126.5 28t-100.5 65q-20 17 -34.5 53t-27.5 61t-32 25 q0 -25 -23.5 -49t-23.5 -47q-36 -35 -63 -98.5t-27 -127.5q-24 -23 -47.5 -70t-45.5 -69q-20 19 -34.5 21t-27.5 3.5t-32 20.5l-90 49q-32 31 -39.5 67t-7.5 116q-19 20 -19 53.5t9.5 74.5t9.5 56v272v-45q-32 0 -37.5 -5.5t-5.5 -39.5q1 -3 3 -7.5t6.5 -16.5t6.5 -22.5 t3 -21.5t-4 -17.5t-15 -6.5v92q-6 -6 -22.5 -23t-23 -24t-18.5 -21.5t-17.5 -23.5t-10 -21t-4.5 -22q-18 -39 -64 -156t-71 -168q-18 -18 -31.5 -77t-26.5 -106.5t-32 -47.5h-48q-30 -11 -53 -11q-14 -1 -25 3q-31 10 -46 33l-15 22q-15 15 -33 19.5t-30 3t-20.5 3 t-8.5 19.5z" />
<glyph unicode="o" horiz-adv-x="1071" d="M0 174v119q-10 52 -10 97q0 84 36 141q55 87 177 87q-19 0 -36 44q-17 46 -19 100v10q0 48 16 90q26 0 40.5 1.5t37.5 10.5t41 27q116 57 264 65q30 2 58 2q113 0 202 -26q125 -114 125 -203q16 16 47.5 17.5t64 3.5t50.5 18l-162 -160q-21 -42 -41 -102.5t-39 -99.5 q0 -29 -5.5 -34t-39.5 -5q0 -32 -5 -42.5t-34 -41.5v-39v-41q-17 0 -37 -9.5t-31 -19.5l-12 -10q-15 -15 -27.5 -38t-23.5 -34.5t-29 -11.5q-32 -60 -132 -84q-46 -11 -91 -12q-52 0 -102 16q-19 0 -59 20.5t-60 20.5l-123 123h-41zM274 279q16 -72 50 -105q30 -10 50 -11 q12 -1 20 3q24 8 51 27.5t40 19.5q231 151 283 362h-39h-41q-16 -5 -56.5 -18.5t-56 -18t-48 -12t-53 -7t-49.5 4t-58 13.5q0 -18 -21 -48.5t-42 -51.5l-21 -21q-15 -40 -15 -83q0 -26 6 -54zM367 739q19 -39 71 -55q40 -13 83 -12q13 0 27 1q58 5 101 25h119 q0 61 -25 112.5t-55 51.5h-80h-123q-7 0 -15 -2.5t-14.5 -5t-15 -9t-14 -10.5t-15.5 -13.5t-14.5 -13.5t-15.5 -15.5t-14 -14.5v-39z" />
<glyph unicode="p" horiz-adv-x="839" d="M-14 139q0 24 3 31t23 27q47 59 93.5 130.5t105.5 168.5t94 151q15 24 42.5 74.5t54 89.5t63.5 76q3 0 7.5 -1t12 -8t7.5 -20v-78q0 -14 -13.5 -40t-13.5 -40v-3v-3v-3v-3v-3v-3v-3v-7q0 -28 -14.5 -61t-14.5 -44q13 0 20 6.5t8 13.5l1 7q78 78 104 78q0 13 6.5 20 t13.5 8h7h53q20 0 26.5 -3t26.5 -25q0 -6 6 -30.5t6 -50.5t-12 -50q0 -11 7 -25.5t13 -23.5l7 -9q-12 -22 -12 -41t6 -43.5t6 -42.5v-84v-75q0 -84 27 -111q0 12 6 18.5t12 7.5l6 1v1v1v1v1v1v1v1v1v1v1v1v1v1v1v1v1v1v9q24 0 41 18.5t17 39.5q12 -13 12 -28t-12 -30 q0 -4 -0.5 -11t-3.5 -26t-8.5 -35t-17.5 -32.5t-28 -24.5q-11 -12 -43 -12t-68.5 6t-41.5 6q-39 33 -48.5 72.5t-9.5 114.5q13 13 13 51t14 51v242q-20 -42 -80 -160q-12 -12 -38.5 -53.5t-41.5 -55.5v-49q-46 -90 -80 -186q-12 -42 -12 -139.5t-12 -155.5v-53 q-14 -38 -14 -131t-13 -131v-84q0 -134 27 -185v-108v-105q0 -29 -13.5 -62t-13.5 -44h-3h-3h-3h-3h-3h-3h-8q0 -26 -29 -53h-27h-78q0 12 -6.5 25t-12.5 21l-7 7v239q13 25 19 48t6.5 36.5t0.5 46.5v27v107q0 18 1 27t7 17.5t19 8.5v160q6 25 27 167.5t51 202.5v111 q25 59 38.5 124t24 147t19.5 126q10 21 23 69.5t28 63.5q0 29 13.5 75t13.5 58v-28q-14 -13 -27.5 -39t-26.5 -39v-27q-19 -32 -92 -171t-119 -199q-9 -9 -25.5 -32t-30 -37.5t-26.5 -14.5q-77 0 -77 26z" />
<glyph unicode="q" horiz-adv-x="835" d="M31 475q0 8 5.5 23.5t5.5 28.5t-11 24q0 250 49 299q37 55 132 60q12 1 24 1q81 0 145 -34q13 -14 38 -27t38 -25q13 0 24.5 12.5t24.5 12.5q12 13 34.5 19t40 7t50.5 1q13 -13 38 -13t38 -14q24 0 49 -25l26 -24h25h3h3h3h3h3h9q-17 -69 -17 -138t17 -137q0 -11 -12 -42 t-12 -58q12 -13 12 -54t12 -71q0 -50 -12 -138t-12 -138v-101q0 -37 -12.5 -99t-12.5 -99q11 -12 11 -37.5t-5.5 -61.5t-5.5 -53v-49q0 -13 -13 -50t-13 -50v-76v-101q0 -18 -3 -21t-22 -3q0 -11 -19 -17.5t-38 -6.5l-19 -1q-12 12 -12 37t-12 39q0 9 12 52.5t12 72.5 q-12 46 -12 136v13.5v13.5q0 90 -12 136v100q-4 31 -17.5 164.5t-31.5 213.5t-52 149v49q-93 144 -174 225q-18 38 -53 72t-72 53q-12 -12 -24.5 -49t-26.5 -51v-74q-7 -28 -7 -63q0 -52 17 -116q27 -108 66 -147q0 -11 6.5 -17.5t20 -15t22.5 -18.5q34 0 41.5 7.5t2 19 t7.5 24.5h25q0 11 6.5 17.5t12.5 7.5h6v3v3v3v3v3v9q11 0 17 7t7 13v7q0 -12 7 -18.5t13 -7.5l7 -1q-9 -17 -19 -58t-22.5 -66t-34.5 -25q-13 -13 -38 -13t-38 -12q-74 0 -125 25q-99 102 -149 350z" />
<glyph unicode="r" horiz-adv-x="757" d="M56 676.5q0 68.5 14 109.5q15 15 23 15t17.5 -7.5t20.5 -7.5q0 -3 1 -8t8.5 -13.5t21.5 -8.5h33q64 126 100 173q72 97 178 138q32 15 92.5 15t91.5 16l127 -64q-30 -14 -93 -28.5t-95 -30.5q-67 -24 -144 -115.5t-102 -165.5q-45 -88 -52 -200q-1 -24 -1 -47 q0 -85 20 -154v-33v-92q15 -14 23.5 -24t16.5 -22.5t6 -24.5t-13 -23q0 -22 -4 -25.5t-29 -3.5q-14 -15 -33.5 -21t-34.5 -6q-1 0 -2 -1q-15 1 -39 9q-26 8 -36.5 13t-38.5 19t-31 16v219q-15 15 -22.5 32t-8.5 27.5t-1 32.5v59q0 15 -7 89.5t-7 143z" />
<glyph unicode="s" horiz-adv-x="622" d="M-53 14q10 0 15.5 6t5.5 12l1 5q61 16 100.5 47t73.5 84q36 65 56 171.5t27 197t35 185.5t79 146q153 0 176 -43v-65h-3h-3h-3h-3h-3h-7q-9 -10 -14 -21t-6 -17l-1 -5q-10 -20 -10 -36t5 -30.5t5 -21.5v-111v-86q-11 -12 -22 -44t-23 -44v-45v-20q-4 -10 -14.5 -32 t-15 -32.5t-9 -24.5t-4.5 -22q-11 0 -22 -10.5t-23 -10.5q0 -17 -2.5 -22t-18.5 -23q0 -16 -2.5 -21t-19.5 -22q-10 0 -16 -5.5t-7 -11.5v-5q-2 0 -5.5 -0.5t-9 -6.5t-5.5 -16q-10 0 -16 -5t-13.5 -17.5t-15.5 -20.5h-21q-30 -30 -45 -43q-15 -8 -31 -10h-7q-13 0 -29 5 q-22 7 -29.5 10t-34.5 16q-8 8 -21 16.5t-23.5 19t-20.5 29.5z" />
<glyph unicode="t" horiz-adv-x="503" d="M2 281v22v25v3v3v3v3v3v7q25 0 25 76q0 17 -3 22.5t-22 24.5h25v23h1h1h1h1h1h1h1h1h1h1h1h1h1h1h10v49q12 13 24 56.5t25 66.5q0 22 23 47v49l24 22v27q49 96 72 119v49q17 16 33 40.5t24.5 42.5t21.5 48t17 39q13 23 49.5 71.5t49.5 73.5q26 0 84.5 -17t58.5 -32 q13 -12 19 -25t7 -22t1 -26q0 -10 -7 -16t-13 -6l-7 -1q-11 -25 -35 -62t-35 -61l-26 -22q0 -23 -15 -45t-32 -5v-24h3h3h3h3h3h9q-13 -12 -24.5 -36t-24.5 -36q-7 -7 -12 -10t-7 -2t-3.5 0t-1.5 -2.5v-9.5h24l-24 -23v-27h-23h-27v-22q-22 -26 -22 -49h1h1h1h1h1h1h1h1h1h1 h1h1h10h-3h-3h-3h-3h-3h-7q0 -11 -6.5 -17.5t-12.5 -7.5h-6h25h-25v-3v-3v-3v-3v-3v-7q-13 -15 -25.5 -46.5t-23.5 -52.5h27q0 19 2.5 25t19.5 24q-10 -11 -15.5 -23.5t-6.5 -18.5v-7q0 -11 -1 -11t-2 2q-10 9 -24 9q21 0 24 -2.5t3 -21.5h-27l49 24v-1v-1v-1v-1v-1v-1v-1 v-1v-1v-1v-1v-1v-1v-1v-10q21 22 64 34t98 21t80 18q74 0 96 -24h-3h-3h-3h-3h-3h-7h1h1h1h1h1h1h1h1h1h1h1h1h10h-22v-25q-19 0 -27 -0.5t-21.5 -6t-25.5 -17.5q-11 0 -23 -11.5t-26 -11.5v-26h-23l-24 -23h1h1h1h1h1h1h1h1h1h1h1h1h1h1h10h-3h-3h-3h-3h-3h-9v-3v-3v-3v-3 v-3v-9q-72 -23 -99 -23v-27v3l-1 9l-1 -2q-8 -10 -20 -10q-9 0 -38.5 -11t-57.5 -11v-27v27h-27q-7 -9 -9.5 -15.5t-2 -8.5t-1 -2.5t-10.5 -0.5v-22q0 -76 -24 -121l24 -25q0 -34 14.5 -53.5t35.5 -19.5l22 26q49 42 49 72q9 9 17 22t14 19t16 6q-10 0 -15.5 -18t-5.5 -36 l-1 -18q20 -23 0 -24v-23q0 -73 -25 -96q-21 -22 -22 0q-7 -7 -10.5 -13t-3 -8.5t0 -4t-2.5 -1.5h-11q-8 0 -22.5 -5t-27 -5t-22.5 10q-17 -16 -45 6.5t-28 42.5q-11 0 -22.5 12.5t-24.5 12.5q-25 72 -25 195z" />
<glyph unicode="u" horiz-adv-x="1155" d="M-64 479q11 5 35 -6q-24 12 -24 39q0 16 9 38q23 58 66 120.5t86 111.5l42 49q20 11 36.5 38t37.5 53.5t55 38.5q38 20 128 20t128 -20v-27q6 -11 6 -29q0 -21 -9 -51q-16 -56 -52 -102.5t-72 -46.5q-7 -34 -22 -83q-16 -48 -22 -76q-5 -20 -5 -50q-1 -10 1 -24 q2 -46 21 -101q7 -7 11 -13t4 -8t4 -4t9.5 -2h22.5q8 8 18 15.5t25.5 16.5t24.5 14t31.5 16.5t29.5 15.5q135 138 256 231q7 7 19.5 29t31 34.5t52.5 12.5q38 20 102 20t102 -20q19 -17 23 -37t4 -65q-37 -36 -46 -129q-3 -36 -3 -71q0 -57 8 -115q14 -94 41 -146 q10 -10 23.5 -18.5t20.5 -15t7 -17.5v-27q-21 -19 -26.5 -22t-24.5 -3q0 -77 -27 -102q-20 -7 -36 -7q-8 0 -14 2q-20 6 -44.5 18t-32.5 12q-6 4 -32.5 24.5t-32.5 25.5t-28 22.5t-29 25t-24.5 24.5t-25.5 29t-20.5 30t-21.5 36t-17 39q-51 -25 -102 -76q-87 -87 -205 -129 q-16 -4 -33 -4q-104 0 -257 129q-122 102 -199 216q-42 62 -42 86q0 11 8 15z" />
<glyph unicode="v" horiz-adv-x="712" d="M4 326q0 89 1.5 136.5t10.5 114t27 111.5v57q0 56 37 173q10 0 20 9t19 9q12 -5 25.5 -10.5t20.5 -8.5t15.5 -8t14.5 -12q25 -34 35 -81.5t13 -111t9 -94.5q10 -28 10 -90t10 -82q28 48 95.5 134.5t95.5 134.5q9 9 28 18.5t29 19.5q12 26 47 53t68 42q40 14 73 14t60 -14 q13 0 15.5 -2.5t2.5 -16.5h21q-211 -190 -307 -305q-9 -10 -9.5 -29t-9.5 -28h-18q0 -18 -7 -34t-13 -22.5t-19 -19.5v-21q0 -8 -4.5 -12.5t-9.5 -5.5h-4v-39l-19 -18q-10 -9 -10 -29t-10 -29q-4 -9 -58 -114q-4 -8 -13.5 -43.5t-23 -53.5t-39.5 -18h-18h-20h-19 q-36 0 -78.5 15.5t-54.5 41.5q-18 26 -27 77t-10.5 88.5t-1.5 103.5z" />
<glyph unicode="w" horiz-adv-x="1619" d="M-10 227v138q0 10 13 43.5t13 64.5q13 24 27 72.5t29 64.5q0 12 26.5 12t64.5 -6t46 -6q21 0 24 -3t3 -25v-82q0 -23 -6 -97.5t-6 -142t12 -115.5h26q0 25 18 56.5t28 42.5t36 39q48 64 114 172t79 127q4 4 24.5 28.5t34 39t36 28.5t40.5 14q13 12 46.5 12t72.5 -6t45 -6 q13 -13 20.5 -41.5t16 -73.5t18.5 -77q12 -47 25.5 -137.5t29.5 -135.5q55 28 109 82q69 55 184.5 171t169.5 157q74 49 193 108l135 29q68 0 126 -7t112.5 -24t86 -51t31.5 -82v-82q-15 0 -28.5 -14t-26.5 -14q-13 14 -27 54.5t-29 55.5l-53 27q-62 29 -124 33q-16 1 -31 1 q-44 0 -82 -10q-51 -13 -103 -45t-90 -65.5t-79.5 -81.5t-66 -82t-53.5 -78l-26 -26q-12 -12 -20.5 -33.5t-15.5 -35t-19 -13.5q-24 -73 -66 -141.5t-98 -104.5q-22 -13 -55 -13q-7 0 -14 1q-42 3 -81 13.5t-69 25.5h-82q-84 62 -116 190q-14 57 -14 119q0 75 21 155h-27 q0 -15 -14 -41.5t-14 -39.5q-27 -29 -27 -56q-13 -13 -40.5 -54t-41.5 -54v-56l-26 -26v-56q0 -12 -20 -31.5t-51.5 -44.5t-39.5 -32q-24 -23 -72 -35q-19 -4 -37 -5q-29 0 -55 11q-190 41 -190 301z" />
<glyph unicode="x" horiz-adv-x="1236" d="M-43 106q0 20 3.5 27t23.5 29q3 0 7.5 0.5t11.5 7t7 18.5q14 14 20.5 29.5t7.5 25t1 27.5q18 37 58.5 118.5t62 126.5t50.5 107.5t48 110.5q10 20 32.5 78.5t43 106.5t33.5 61h79l29 -29q12 -12 12.5 -25.5t-6 -29.5t-6.5 -25q0 -108 27 -163q0 -11 -6 -26.5t-6 -22.5 t12 -7q57 57 108 82q0 3 0.5 8t7.5 13t19 8q13 13 40.5 39.5t41.5 40.5q15 15 42.5 28.5t41.5 26.5q30 0 96 -18t66 -37q0 -27 -27 -54q-53 -71 -85 -112t-84.5 -96t-104.5 -93q-80 -80 -80 -135q-1 -26 26 -55q16 -31 26.5 -50t31 -50t41 -47.5t39.5 -16.5q13 -4 27 -4 q23 1 49 13q40 20 82.5 57t58.5 45q39 23 74 53.5t68.5 68.5t59 70t63 80.5t62.5 79.5l-55 -270q-14 -28 -55.5 -82.5t-55.5 -81.5q-14 -15 -40 -29t-39 -27q-63 -84 -93 -110q-66 -58 -170 -58q-14 0 -29 1q-17 1 -36 4h-109q-25 12 -66 26t-69 29q-19 18 -51 43.5 t-52.5 46t-33.5 45.5q-14 -14 -54.5 -41.5t-54.5 -40.5q-29 0 -82 -53q-15 0 -41.5 13.5t-39.5 13.5h-27l-29 26h-26q0 13 -13.5 26.5t-13.5 28.5z" />
<glyph unicode="y" horiz-adv-x="960" d="M-9 606q5 63 19 119.5t37 114.5q15 14 42 67.5t40 67.5q8 8 21 8q16 0 40 -13q44 -22 72 -50q-13 -13 -19 -28t-6.5 -24t-0.5 -28q-20 -20 -37 -54t-17 -55q-13 -25 -19 -48t-6.5 -37t-0.5 -48q-14 -26 -11.5 -52.5t12.5 -47t25 -35.5h27q60 31 108 82q27 0 80 53 q12 0 19 6.5t16 21.5t19 25h26q29 28 83 96t79 93q38 20 102.5 20t83.5 -20q7 -7 13 -10.5t8.5 -3t4 0t1.5 -2.5v-11v-27q12 -12 12 -25.5t-6 -30t-6 -25.5q0 -80 -27 -107v-53q-24 -29 -24 -56v-79q-27 -27 -27 -54q14 0 39 13.5t39 13.5h135v-27v-26h-82l31 -29 q-33 12 -49 6t-41 -19.5t-45 -13.5q0 -12 -6.5 -18.5t-13.5 -7.5h-7q-20 -20 -23 -26t-3 -27h-27q0 -18 -1 -27t-8.5 -18t-21.5 -9q-9 -18 -31 -51.5t-34.5 -59.5t-12.5 -50q-20 0 -23 -3t-3 -22h26l-26 -27v27v-27q0 -12 -7 -26t-13 -22l-7 -9v-27l-27 -26h-26v-25 q-13 -12 -20 -25t-8 -20l-1 -8h-26v-27q-3 0 -7.5 -0.5t-12 -7t-7.5 -18.5q0 -3 -0.5 -8.5t-7.5 -14t-19 -8.5h-26v-25v-3v-3v-3v-3v-3v-3v-8h-27l-27 -27q0 12 -13.5 12t-36 -6t-31.5 -6q0 -12 -7 -12t-13 6l-7 6v-27h27h-27l-80 27v27v-27v27v135q72 106 107 215 q40 37 81 78q12 24 31 43.5t44.5 39.5t31.5 25q20 20 23.5 27t3.5 27q20 0 54 16.5t54 36.5q14 14 27.5 76t25.5 86q0 14 13.5 40t13.5 39q0 55 25 82q0 27 13 67t13 67q-38 -20 -61 -43.5t-43 -63.5q0 -12 -7 -19t-22 -15.5t-25 -18.5q0 -3 -0.5 -8t-7 -13t-18.5 -8 q-14 -25 -38.5 -46t-42 -31t-54.5 -29q-13 0 -27 -13.5t-27 -13.5h-26q-13 -12 -26.5 -18.5t-20.5 -7.5l-8 -1q-40 0 -90 17t-70 37q-48 28 -69 80q-17 42 -17 92q0 11 1 24z" />
<glyph unicode="z" horiz-adv-x="1249" d="M-57 686q100 79 208 128t267 95q55 27 196 27q0 12 20.5 13t41 2.5t20.5 13.5q26 0 69.5 -19t43.5 -37v-1v-1v-1v-1v-1v-1v-1v-1v-1v-1v-1v-1v-1v-1v-1v-1v-1v-1v-1v-9v-29q-15 -14 -29 -42t-28 -42q0 -31 -56 -137q-83 -89 -110 -142v-1v-1v-1v-1v-1v-1v-1v-1v-1v-1v-1 v-1v-1v-1v-1v-1v-1v-1v-1v-9q-13 0 -20 -6.5t-8 -13.5l-1 -7q-27 -29 -55 -57v29h3h3h3h3h3h3h3h7q-13 0 -20 -7t-8 -15v-7h-29v-27q-10 -11 -19 -27t-16 -23t-20 -7l55 57q0 -3 -0.5 -7.5t-7.5 -12.5t-19 -8q0 -13 -7.5 -27.5t-23 -39.5t-26.5 -46q-14 -14 -42 -27t-42 -26 h57h56q13 0 26.5 6.5t21.5 13.5l7 6h57h27h29h57h109h3h3h3h3h3h3h3h7q14 0 56 -13t57 -13q3 0 8 -1t13 -8t8 -20h84q9 -10 20 -13t18 -1.5t12 -1.5t5 -13h29h26h55h29v29h27l28 29v-29h29q0 22 3.5 25.5t23.5 3.5h-27q0 -22 -3.5 -25.5t-25.5 -3.5h29q-14 0 -28 -14.5 t-29 -14.5h28v29q-13 -13 -26.5 -20t-20.5 -8l-8 -1v-26h-29h-26h26q-12 -13 -25.5 -20t-21.5 -8l-8 -1h-26h55h3h3h3h3h3h3h8v29q37 0 61.5 14t51.5 41q20 0 37.5 17.5t17.5 37.5v-26q-13 0 -20 -7.5t-16 -23.5t-19 -27q-20 0 -29 -0.5t-18.5 -6.5t-9.5 -19l28 26v-3v-3v-3 v-3v-3v-3v-8q-20 -20 -41 -24.5t-69 -4.5q0 -12 -13.5 -13.5t-27.5 -2.5t-14 -13h26h-55q-53 0 -78.5 1t-58.5 7.5t-60 20.5h-84h-55q-26 14 -66.5 20.5t-70.5 7.5t-86 1h-168h-29q-69 -36 -166 -84q-15 0 -28.5 -14.5t-26.5 -14.5q-22 0 -25.5 3.5t-3.5 25.5v1v1v1v1v1v1v1 v1v1v1v1v1v1v1v1v1v1v9q29 29 56 58q13 0 27 6.5t22 13.5l8 6q14 15 27 29.5t26 28.5q57 54 84 82q11 11 26.5 20t23 16t7.5 19q13 14 41 56t43 57q3 0 7.5 0.5t12 7.5t7.5 20q29 27 84 139q14 0 20.5 9.5t7.5 19.5t1 29q59 112 84 137v29q12 13 18.5 26.5t7.5 20.5v8h-53 h-86q-84 0 -139 -27q-18 -6 -84.5 -27t-119.5 -40.5t-103 -44.5q-22 -22 -61.5 -39t-78.5 -17q-21 0 -24.5 3.5t-3.5 25.5z" />
<glyph unicode="&#xa8;" horiz-adv-x="960" d="M86 1231q27 26 27 53q35 11 72.5 4t62.5 -19.5t62.5 -25t72.5 -12.5q12 -17 6.5 -31t-13 -19t-23 -14.5t-23.5 -17.5q-82 0 -82 -27q-24 25 -86 53t-76 56zM682 1149v55q24 12 50.5 12t60 -6t51.5 -6q0 -13 13 -26.5t13 -28.5q0 -13 -8.5 -19t-17.5 -7t-27 -1 q-22 0 -25.5 -3t-3.5 -23q-2 2 -4 4.5t-6 8t-1.5 9.5t11.5 4q-26 0 -53 13.5t-53 13.5z" />
<glyph unicode="&#xab;" d="M63 571q52 54 140 98t141 44q69 34 244.5 104.5t245.5 106.5q35 34 104.5 69t105.5 72h70q3 0 8 -0.5t17 -4.5t21.5 -10.5t17.5 -21.5t8 -35v-69q-35 -34 -105 -69.5t-106 -72.5q-133 -66 -338 -267q-10 -9 -14 -13q-28 0 -63 -13.5t-68.5 -38t-56.5 -66t-23 -91.5 l73 -70l68 -69l70 -72h141q-31 0 -48.5 -17.5t-19.5 -34.5l-2 -18q-36 0 -54 1.5t-42 7.5t-34.5 21t-10.5 40q-50 0 -96.5 13.5t-76.5 29.5t-84.5 47.5t-92.5 50.5q0 35 -35 70.5t-35 71.5q-17 0 -29.5 9.5t-20 29t-12 37.5t-6 46.5t-2 43.5t-0.5 40zM764 571h70 q36 0 140.5 36t139.5 36q36 0 71 35t70 35q47 0 72 2t65 18t72 49h70q54 0 71.5 -8.5t69.5 -60.5v-70q-50 0 -100.5 -10t-113.5 -36t-96 -41.5t-110 -53.5q-31 0 -84 -17t-90 -34l-37 -17q0 -31 17.5 -48.5t34.5 -19.5l18 -1q32 0 50.5 -18.5t41.5 -58t49 -65.5 q0 -31 17 -48.5t34 -18.5l17 -2h-68q-31 0 -66.5 17t-54.5 35l-20 17q-30 15 -74 34.5t-65.5 30.5t-49.5 30.5t-49 47t-42 68.5q-20 0 -34 8.5t-21 19t-10.5 32t-4 35.5t-0.5 42z" />
<glyph unicode="&#xb4;" d="M555 1018v37q0 16 3.5 34t10 40t9.5 34q0 6 7 26.5t7 33.5q20 26 55.5 81t52.5 78q6 10 15 21t23.5 27t21.5 24q4 3 8 4.5t5.5 2t3.5 4.5t5 12h27q12 -6 39.5 -12t34.5 -11q0 -5 2 -8t4 -4h2q0 -4 3 -19t3 -26t-6 -15q0 -6 -2 -9.5t-9 -8.5t-12 -10q-6 -7 -21.5 -26.5 t-24 -29.5t-22 -25t-27 -27t-28.5 -23q-3 -5 -9 -12t-9.5 -13t-3.5 -12q-5 -2 -15 -5t-13.5 -4.5t-8.5 -5t-8 -8.5q-8 -8 -15 -19.5t-12 -17.5q-10 0 -10 -12l-12 -10q0 -6 -7.5 -6t-7.5 -6q0 -15 -10 -15q0 -5 -2 -5q-4 0 -10 -5v-12h-14q-3 -5 -6 -15.5t-7 -16t-10 -5.5z " />
<glyph unicode="&#xbb;" d="M129 752q29 0 88 -29t88 -29h55q38 0 60 -2t55 -15t60 -40q78 0 118.5 -2t92.5 -15.5t79 -41.5q43 0 79 -36.5t36 -80.5v-58q-28 -29 -115 -116q-57 -55 -174 -172q-54 -56 -95 -86.5t-79 -30.5h-117q-2 0 -6 0.5t-13.5 3.5t-16.5 8.5t-13 17t-6 27.5q-17 17 -17 35 t11 32t24.5 25.5t24.5 18.5l12 6q49 25 97.5 70.5t96.5 90.5t97 70q0 28 29 57.5t29 59.5h-58h-116q-55 27 -101 40.5t-69.5 15.5t-59.5 2q-30 0 -59.5 29.5t-57.5 29.5q0 29 -29.5 58t-29.5 57zM768 983h57h172q76 0 113.5 -0.5t98 -3.5t95.5 -10.5t78.5 -20t76 -33 t61.5 -49.5q2 0 6 -0.5t14.5 -3.5t18 -8.5t14 -17t6.5 -27.5h57v-57v-58q-28 -28 -57 -86.5t-59 -87.5l-58 -59v59l-59 -59q-56 -58 -113 -117q-26 0 -41 -14t-17 -28l-1 -15q-27 -26 -86 -55.5t-88 -59.5q0 -43 -7.5 -50t-52.5 -7l-57 -60q0 30 28.5 117.5t28.5 114.5 q29 58 117 174.5t117 175.5q59 57 117 115v57q0 20 -9 32.5t-29 17.5t-35 6t-44 1h-234h-172v60q-43 0 -50 7t-7 50z" />
<glyph unicode="&#xc0;" horiz-adv-x="1490" d="M-3 255q0 27 3.5 58.5t3.5 40.5q0 8 7 23.5t7 23.5q9 43 33.5 110.5t30.5 92.5q121 271 297 424q10 12 12 16t2 15q5 0 9.5 1.5t9.5 5.5t8.5 7t10 9t9.5 8q1 0 17 16l30 16q16 7 35.5 27t26.5 20q0 15 33 15q77 60 221 110l14 -16q16 16 47 16h31q59 18 158 -16 q30 0 61 -16q118 -26 172 -62q11 -6 33.5 -22.5t42 -28.5t33.5 -12l16 16q78 0 125 -16q47 0 47 -15q-4 -4 -11 -9.5t-10.5 -8.5t-6.5 -10.5t-3 -18.5h15l-15 -16h62v-15q-31 0 -47 -16h30q0 -7 -3.5 -15t-7.5 -12l-3 -4q-8 -8 -8 -16t-8 -16h-15q0 -6 -4 -10t-8 -5h-4v-16 q0 -7 -15.5 -15t-15.5 -16h-16q0 -8 -8 -23.5t-8 -23.5q-12 0 -29 -10.5t-17 -20.5q-8 0 -24 -23.5t-23 -23.5l-16 -16h-16v-31q-15 -17 -31 -31v-30q-8 -19 -24 -43.5t-23 -38.5v-15q-2 -5 -10 -23t-11 -26t-6.5 -21t-3.5 -24q-16 0 -16 -16q-7 -7 -7.5 -27t-7.5 -35h-16 v-47q0 -8 -7 -15.5t-7 -14.5q6 -7 6 -23t-3 -29l-3 -12q-12 -23 -12 -52.5t12 -41.5q0 -3 -3.5 -13.5t0 -18t17.5 -13.5v14q5 -5 9 -26t22 -21q0 7 4 11.5t13 10t15 11.5q16 16 47 46t46 46q27 56 79 78q1 1 3.5 3t9.5 4t14 0.5t16.5 -11t18.5 -27.5v-31h-16 q-3 -8 -8.5 -22.5t-8.5 -21.5t-10.5 -13t-18.5 -6h-16q0 -7 -8 -15t-8 -16q0 -10 -2 -12t-13 -2q-7 0 -11 -4.5t-9.5 -13.5t-11.5 -15h16h-16q-1 -14 -15 -14q0 7 5 12q-3 2 -5 2q-7 -14 -18 -25t-26.5 -22t-18.5 -14q-5 -5 -10 -14t-9.5 -13t-11.5 -4q-11 -11 -22.5 -13.5 t-38.5 -2.5q-18 9 -42 16.5t-38 13.5q-22 11 -51.5 58t-40.5 84q-9 54 2.5 152t11.5 128q-7 -14 -15.5 -21.5t-14.5 -8.5t-17 -1q0 -8 -7.5 -23.5t-7.5 -23.5h-16l-14 -16q-7 -6 -23 -14t-24 -17v-16h-17q-29 -25 -61 -62q-17 -8 -48 -31.5t-46 -31.5q-23 -15 -70 -47 t-76 -50.5t-72 -40t-81 -32.5q-67 -17 -172 14q-45 0 -78 17q-108 43 -156 186q-7 15 -7 42zM151 327q-6 -53 6.5 -107.5t49.5 -84.5q43 -43 155 -14q86 34 220 139q43 28 84.5 62t99 85t82.5 72q47 31 141 125q1 17 17 17q10 10 29.5 33.5t38.5 43t40 33.5q8 16 32 39.5 t32 38.5q20 23 45 78q3 6 12 25.5t14.5 30.5t15.5 26.5t21 27.5q31 27 31 62q-8 9 -24 17t-23 14q-7 0 -15 8t-16 8q-91 31 -141 31v-15q-7 0 -22.5 7.5t-22.5 7.5q0 -11 -9 -5l-8 5q-33 -15 -63 -15q-7 0 -15 -8t-16 -8q0 16 -14 0q-33 0 -47 -16h-17q-8 0 -23.5 -7.5 t-23.5 -7.5h-14q-64 -31 -80 -47h-45l-16 -16h-19q0 -15 -14 -15h-17q-5 -5 -14.5 -15t-17.5 -18t-15 -14q-7 -7 -14.5 -11t-11.5 -5h-4q-7 -6 -11.5 -14t-5.5 -12v-5q-91 -60 -125 -94q-6 -14 -14 -21.5t-18 -14t-15 -11.5q-33 -43 -51.5 -69t-42.5 -70.5t-31 -81.5 q-7 -7 -23 -30.5t-24 -31.5v-47q-17 -52 -23 -105zM462 1796.5q0 7.5 13 20.5h29v1v1v1v1v1v1v1v1v1v1v1v1v1v1v1v1v1v1v1v9q28 -29 28 0q71 -36 149 -96.5t155.5 -120t148.5 -94.5q-28 27 -55 27q13 -13 55 -27t57 -29q0 -18 -23 -12q-11 4 -13 8q-1 3 2 3q2 1 6 1h-3h-3 h-4h-4h-4h-5h-6q0 -15 -14.5 -14t-14.5 -14q-168 71 -285 137t-196 145q0 11 -6.5 20.5t-6.5 17zM1380 104z" />
<glyph unicode="&#xc1;" horiz-adv-x="1490" d="M-3 255q0 27 3.5 58.5t3.5 40.5q0 8 7 23.5t7 23.5q9 43 33.5 110.5t30.5 92.5q121 271 297 424q10 12 12 16t2 15q5 0 9.5 1.5t9.5 5.5t8.5 7t10 9t9.5 8q1 0 17 16l30 16q16 7 35.5 27t26.5 20q0 15 33 15q77 60 221 110l14 -16q16 16 47 16h31q59 18 158 -16 q30 0 61 -16q118 -26 172 -62q11 -6 33.5 -22.5t42 -28.5t33.5 -12l16 16q78 0 125 -16q47 0 47 -15q-4 -4 -11 -9.5t-10.5 -8.5t-6.5 -10.5t-3 -18.5h15l-15 -16h62v-15q-31 0 -47 -16h30q0 -7 -3.5 -15t-7.5 -12l-3 -4q-8 -8 -8 -16t-8 -16h-15q0 -6 -4 -10t-8 -5h-4v-16 q0 -7 -15.5 -15t-15.5 -16h-16q0 -8 -8 -23.5t-8 -23.5q-12 0 -29 -10.5t-17 -20.5q-8 0 -24 -23.5t-23 -23.5l-16 -16h-16v-31q-15 -17 -31 -31v-30q-8 -19 -24 -43.5t-23 -38.5v-15q-2 -5 -10 -23t-11 -26t-6.5 -21t-3.5 -24q-16 0 -16 -16q-7 -7 -7.5 -27t-7.5 -35h-16 v-47q0 -8 -7 -15.5t-7 -14.5q6 -7 6 -23t-3 -29l-3 -12q-12 -23 -12 -52.5t12 -41.5q0 -3 -3.5 -13.5t0 -18t17.5 -13.5v14q5 -5 9 -26t22 -21q0 7 4 11.5t13 10t15 11.5q16 16 47 46t46 46q27 56 79 78q1 1 3.5 3t9.5 4t14 0.5t16.5 -11t18.5 -27.5v-31h-16 q-3 -8 -8.5 -22.5t-8.5 -21.5t-10.5 -13t-18.5 -6h-16q0 -7 -8 -15t-8 -16q0 -10 -2 -12t-13 -2q-7 0 -11 -4.5t-9.5 -13.5t-11.5 -15h16h-16q-1 -14 -15 -14q0 7 5 12q-3 2 -5 2q-7 -14 -18 -25t-26.5 -22t-18.5 -14q-5 -5 -10 -14t-9.5 -13t-11.5 -4q-11 -11 -22.5 -13.5 t-38.5 -2.5q-18 9 -42 16.5t-38 13.5q-22 11 -51.5 58t-40.5 84q-9 54 2.5 152t11.5 128q-7 -14 -15.5 -21.5t-14.5 -8.5t-17 -1q0 -8 -7.5 -23.5t-7.5 -23.5h-16l-14 -16q-7 -6 -23 -14t-24 -17v-16h-17q-29 -25 -61 -62q-17 -8 -48 -31.5t-46 -31.5q-23 -15 -70 -47 t-76 -50.5t-72 -40t-81 -32.5q-67 -17 -172 14q-45 0 -78 17q-108 43 -156 186q-7 15 -7 42zM151 327q-6 -53 6.5 -107.5t49.5 -84.5q43 -43 155 -14q86 34 220 139q43 28 84.5 62t99 85t82.5 72q47 31 141 125q1 17 17 17q10 10 29.5 33.5t38.5 43t40 33.5q8 16 32 39.5 t32 38.5q20 23 45 78q3 6 12 25.5t14.5 30.5t15.5 26.5t21 27.5q31 27 31 62q-8 9 -24 17t-23 14q-7 0 -15 8t-16 8q-91 31 -141 31v-15q-7 0 -22.5 7.5t-22.5 7.5q0 -11 -9 -5l-8 5q-33 -15 -63 -15q-7 0 -15 -8t-16 -8q0 16 -14 0q-33 0 -47 -16h-17q-8 0 -23.5 -7.5 t-23.5 -7.5h-14q-64 -31 -80 -47h-45l-16 -16h-19q0 -15 -14 -15h-17q-5 -5 -14.5 -15t-17.5 -18t-15 -14q-7 -7 -14.5 -11t-11.5 -5h-4q-7 -6 -11.5 -14t-5.5 -12v-5q-91 -60 -125 -94q-6 -14 -14 -21.5t-18 -14t-15 -11.5q-33 -43 -51.5 -69t-42.5 -70.5t-31 -81.5 q-7 -7 -23 -30.5t-24 -31.5v-47q-17 -52 -23 -105zM569 1427v37q0 16 3.5 34t10 40.5t9.5 34.5q0 6 7 26t7 33q20 26 56 81.5t53 78.5q6 10 59 72q5 3 10 4.5t7 4t6 13.5h26q12 -6 39.5 -11.5t34.5 -10.5q0 -5 2 -8.5t4 -3.5l2 -1q0 -4 3 -18.5t3 -25.5t-6 -15q0 -6 -2 -9.5 t-9 -9.5t-11 -10q-6 -7 -21.5 -26.5t-24 -29.5t-22 -25t-27 -27t-28.5 -23q-2 -3 -12.5 -16t-10.5 -21q-6 -2 -15 -4.5t-13.5 -4t-9 -5t-7.5 -8.5q-8 -8 -14.5 -19.5t-11.5 -17.5q-11 0 -11 -12l-12 -11q0 -6 -7 -6t-7 -6q-1 -14 -11 -14q0 -5 -2 -5q-4 0 -10 -5v-13h-14 q-3 -5 -6 -15.5t-7 -16t-10 -5.5zM1380 104z" />
<glyph unicode="&#xc4;" horiz-adv-x="1490" d="M-3 255q0 27 3.5 58.5t3.5 40.5q0 8 7 23.5t7 23.5q9 43 33.5 110.5t30.5 92.5q121 271 297 424q10 12 12 16t2 15q5 0 9.5 1.5t9.5 5.5t8.5 7t10 9t9.5 8q1 0 17 16l30 16q16 7 35.5 27t26.5 20q0 15 33 15q77 60 221 110l14 -16q16 16 47 16h31q59 18 158 -16 q30 0 61 -16q118 -26 172 -62q11 -6 33.5 -22.5t42 -28.5t33.5 -12l16 16q78 0 125 -16q47 0 47 -15q-4 -4 -11 -9.5t-10.5 -8.5t-6.5 -10.5t-3 -18.5h15l-15 -16h62v-15q-31 0 -47 -16h30q0 -7 -3.5 -15t-7.5 -12l-3 -4q-8 -8 -8 -16t-8 -16h-15q0 -6 -4 -10t-8 -5h-4v-16 q0 -7 -15.5 -15t-15.5 -16h-16q0 -8 -8 -23.5t-8 -23.5q-12 0 -29 -10.5t-17 -20.5q-8 0 -24 -23.5t-23 -23.5l-16 -16h-16v-31q-15 -17 -31 -31v-30q-8 -19 -24 -43.5t-23 -38.5v-15q-2 -5 -10 -23t-11 -26t-6.5 -21t-3.5 -24q-16 0 -16 -16q-7 -7 -7.5 -27t-7.5 -35h-16 v-47q0 -8 -7 -15.5t-7 -14.5q6 -7 6 -23t-3 -29l-3 -12q-12 -23 -12 -52.5t12 -41.5q0 -3 -3.5 -13.5t0 -18t17.5 -13.5v14q5 -5 9 -26t22 -21q0 7 4 11.5t13 10t15 11.5q16 16 47 46t46 46q27 56 79 78q1 1 3.5 3t9.5 4t14 0.5t16.5 -11t18.5 -27.5v-31h-16 q-3 -8 -8.5 -22.5t-8.5 -21.5t-10.5 -13t-18.5 -6h-16q0 -7 -8 -15t-8 -16q0 -10 -2 -12t-13 -2q-7 0 -11 -4.5t-9.5 -13.5t-11.5 -15h16h-16q-1 -14 -15 -14q0 7 5 12q-3 2 -5 2q-7 -14 -18 -25t-26.5 -22t-18.5 -14q-5 -5 -10 -14t-9.5 -13t-11.5 -4q-11 -11 -22.5 -13.5 t-38.5 -2.5q-18 9 -42 16.5t-38 13.5q-22 11 -51.5 58t-40.5 84q-9 54 2.5 152t11.5 128q-7 -14 -15.5 -21.5t-14.5 -8.5t-17 -1q0 -8 -7.5 -23.5t-7.5 -23.5h-16l-14 -16q-7 -6 -23 -14t-24 -17v-16h-17q-29 -25 -61 -62q-17 -8 -48 -31.5t-46 -31.5q-23 -15 -70 -47 t-76 -50.5t-72 -40t-81 -32.5q-67 -17 -172 14q-45 0 -78 17q-108 43 -156 186q-7 15 -7 42zM151 327q-6 -53 6.5 -107.5t49.5 -84.5q43 -43 155 -14q86 34 220 139q43 28 84.5 62t99 85t82.5 72q47 31 141 125q1 17 17 17q10 10 29.5 33.5t38.5 43t40 33.5q8 16 32 39.5 t32 38.5q20 23 45 78q3 6 12 25.5t14.5 30.5t15.5 26.5t21 27.5q31 27 31 62q-8 9 -24 17t-23 14q-7 0 -15 8t-16 8q-91 31 -141 31v-15q-7 0 -22.5 7.5t-22.5 7.5q0 -11 -9 -5l-8 5q-33 -15 -63 -15q-7 0 -15 -8t-16 -8q0 16 -14 0q-33 0 -47 -16h-17q-8 0 -23.5 -7.5 t-23.5 -7.5h-14q-64 -31 -80 -47h-45l-16 -16h-19q0 -15 -14 -15h-17q-5 -5 -14.5 -15t-17.5 -18t-15 -14q-7 -7 -14.5 -11t-11.5 -5h-4q-7 -6 -11.5 -14t-5.5 -12v-5q-91 -60 -125 -94q-6 -14 -14 -21.5t-18 -14t-15 -11.5q-33 -43 -51.5 -69t-42.5 -70.5t-31 -81.5 q-7 -7 -23 -30.5t-24 -31.5v-47q-17 -52 -23 -105zM352 1640q27 27 27 54q47 12 90 -1t90 -33t90 -20q12 -17 6.5 -30.5t-13 -19t-23 -14.5t-23.5 -17q-82 0 -82 -27q-25 25 -86.5 52.5t-75.5 55.5zM948 1559v55q24 12 50.5 12t60 -6t51.5 -6q0 -13 13.5 -26.5t13.5 -28.5 q0 -13 -9 -19t-18 -7t-27 -1q-21 0 -24.5 -3t-3.5 -24q-2 2 -4 4.5t-6 8.5t-1.5 10t11.5 4q-27 0 -54 13.5t-53 13.5zM1380 104z" />
<glyph unicode="&#xc8;" horiz-adv-x="1308" d="M-12.5 325.5q-3.5 10.5 2.5 14.5q6 6 16.5 20t20 23.5t18.5 9.5q0 -9 5.5 -14t11 -5.5t16.5 -0.5q0 -8 9 -25t9 -26q37 -17 140 -17v35q-17 17 -17 88v51q6 27 51 176q19 17 19 70q9 17 26.5 51.5t26.5 52.5q8 9 16.5 27.5t16.5 26.5q61 115 141 192l53 53q3 3 32 35 t52.5 51.5t55.5 36.5v1q0 1 0.5 2.5l1 3t2 3.5t3 3.5t4.5 2.5t7 1q16 8 51 34.5t53 34.5q72 37 123 37q17 17 88 17q8 9 52.5 9t52.5 9q17 -6 49.5 -13t54 -15.5t37.5 -24.5h-18q38 -19 69 -123v-35v-53q-6 -13 -15 -45.5t-19 -42.5q0 -24 -2.5 -30.5t-14.5 -20.5 q-10 -28 -27.5 -72.5t-25.5 -67.5q-17 -35 -88 -106q-7 0 -11.5 -4t-5.5 -8v-5h-18q-104 -155 -262 -264q-1 -18 -19 -18q-17 -8 -43 -34t-45 -34q-96 -73 -190 -106q-6 -6 -25.5 -16.5t-33 -20t-13.5 -17.5q1 -16 17 -34q18 -17 18 -35q9 0 27 -17.5t26 -17.5 q121 -48 316 -18q181 68 350 211l70 -17q-17 -9 -39 -31t-31 -22q-35 -35 -35 -53q-8 -7 -25.5 -16t-27.5 -19l-53 -53q-8 -7 -26 -16.5t-26 -18.5q-16 0 -53 -33h-18l-17 -18q-19 -10 -67.5 -19.5t-71.5 -17.5q-9 0 -46 -3.5t-71.5 -3.5t-58.5 7q-70 0 -86 18 q-117 23 -229 105q0 22 -35 53q-14 14 -16.5 18.5t-2.5 16.5q-3 0 -28 -3.5t-46.5 -3.5t-29.5 7q-53 14 -83.5 29t-57.5 42q-2 2 -5 5.5l-12 14t-13 18t-7.5 18zM372 1796.5q0 7.5 13 20.5h29v1v1v1v1v1v1v1v1v1v1v1v1v1v1v1v1v1v1v1v9q28 -29 28 0q71 -36 149 -96.5 t155.5 -120t148.5 -94.5q-28 27 -55 27q13 -13 55 -27t57 -29q0 -18 -23 -12q-11 4 -13 8q-1 3 2 3q2 1 6 1h-3h-3h-4h-4h-4h-5h-6q0 -15 -14.5 -14t-14.5 -14q-168 71 -285 137t-196 145q0 11 -6.5 20.5t-6.5 17zM422 381q0 -18 8 -25q7 7 33 16.5t35 20.5q32 20 95 48.5 t81 37.5q18 19 66.5 58.5t74.5 64.5q12 0 17 2t18 14q106 74 139 107l53 53q18 18 50.5 48.5t51 48.5t40 44t33.5 50q25 38 37 57t28 52.5t23 66.5q11 32 4.5 70.5t-21.5 70.5q0 1 -18 17q-17 18 -17 34h-88v-16h-88q-108 -36 -181.5 -103.5t-152.5 -177.5l-51 -51 q-101 -124 -194 -299q0 -7 -8.5 -29t-8.5 -43q-39 -76 -51 -102v-55q0 -11 -4 -36.5t-4 -43.5z" />
<glyph unicode="&#xc9;" horiz-adv-x="1308" d="M-12.5 325.5q-3.5 10.5 2.5 14.5q6 6 16.5 20t20 23.5t18.5 9.5q0 -9 5.5 -14t11 -5.5t16.5 -0.5q0 -8 9 -25t9 -26q37 -17 140 -17v35q-17 17 -17 88v51q6 27 51 176q19 17 19 70q9 17 26.5 51.5t26.5 52.5q8 9 16.5 27.5t16.5 26.5q61 115 141 192l53 53q3 3 32 35 t52.5 51.5t55.5 36.5v1q0 1 0.5 2.5l1 3t2 3.5t3 3.5t4.5 2.5t7 1q16 8 51 34.5t53 34.5q72 37 123 37q17 17 88 17q8 9 52.5 9t52.5 9q17 -6 49.5 -13t54 -15.5t37.5 -24.5h-18q38 -19 69 -123v-35v-53q-6 -13 -15 -45.5t-19 -42.5q0 -24 -2.5 -30.5t-14.5 -20.5 q-10 -28 -27.5 -72.5t-25.5 -67.5q-17 -35 -88 -106q-7 0 -11.5 -4t-5.5 -8v-5h-18q-104 -155 -262 -264q-1 -18 -19 -18q-17 -8 -43 -34t-45 -34q-96 -73 -190 -106q-6 -6 -25.5 -16.5t-33 -20t-13.5 -17.5q1 -16 17 -34q18 -17 18 -35q9 0 27 -17.5t26 -17.5 q121 -48 316 -18q181 68 350 211l70 -17q-17 -9 -39 -31t-31 -22q-35 -35 -35 -53q-8 -7 -25.5 -16t-27.5 -19l-53 -53q-8 -7 -26 -16.5t-26 -18.5q-16 0 -53 -33h-18l-17 -18q-19 -10 -67.5 -19.5t-71.5 -17.5q-9 0 -46 -3.5t-71.5 -3.5t-58.5 7q-70 0 -86 18 q-117 23 -229 105q0 22 -35 53q-14 14 -16.5 18.5t-2.5 16.5q-3 0 -28 -3.5t-46.5 -3.5t-29.5 7q-53 14 -83.5 29t-57.5 42q-2 2 -5 5.5l-12 14t-13 18t-7.5 18zM422 381q0 -18 8 -25q7 7 33 16.5t35 20.5q32 20 95 48.5t81 37.5q18 19 66.5 58.5t74.5 64.5q12 0 17 2t18 14 q106 74 139 107l53 53q18 18 50.5 48.5t51 48.5t40 44t33.5 50q25 38 37 57t28 52.5t23 66.5q11 32 4.5 70.5t-21.5 70.5q0 1 -18 17q-17 18 -17 34h-88v-16h-88q-108 -36 -181.5 -103.5t-152.5 -177.5l-51 -51q-101 -124 -194 -299q0 -7 -8.5 -29t-8.5 -43 q-39 -76 -51 -102v-55q0 -11 -4 -36.5t-4 -43.5zM479 1427v37q0 16 3.5 34t10 40.5t9.5 34.5q0 6 7 26t7 33q20 26 56 81.5t53 78.5q6 10 59 72q5 3 10 4.5t7 4t6 13.5h26q12 -6 39.5 -11.5t34.5 -10.5q0 -5 2 -8.5t4 -3.5l2 -1q0 -4 3 -18.5t3 -25.5t-6 -15q0 -6 -2 -9.5 t-9 -9.5t-11 -10q-6 -7 -21.5 -26.5t-24 -29.5t-22 -25t-27 -27t-28.5 -23q-2 -3 -12.5 -16t-10.5 -21q-6 -2 -15 -4.5t-13.5 -4t-9 -5t-7.5 -8.5q-8 -8 -15 -19.5t-12 -17.5q-10 0 -10 -12l-12 -11q0 -6 -7 -6t-7 -6q-1 -14 -11 -14q0 -5 -2 -5q-4 0 -10 -5v-13h-14 q-3 -5 -6 -15.5t-7 -16t-10 -5.5z" />
<glyph unicode="&#xcb;" horiz-adv-x="1308" d="M-12.5 325.5q-3.5 10.5 2.5 14.5q6 6 16.5 20t20 23.5t18.5 9.5q0 -9 5.5 -14t11 -5.5t16.5 -0.5q0 -8 9 -25t9 -26q37 -17 140 -17v35q-17 17 -17 88v51q6 27 51 176q19 17 19 70q9 17 26.5 51.5t26.5 52.5q8 9 16.5 27.5t16.5 26.5q61 115 141 192l53 53q3 3 32 35 t52.5 51.5t55.5 36.5v1q0 1 0.5 2.5l1 3t2 3.5t3 3.5t4.5 2.5t7 1q16 8 51 34.5t53 34.5q72 37 123 37q17 17 88 17q8 9 52.5 9t52.5 9q17 -6 49.5 -13t54 -15.5t37.5 -24.5h-18q38 -19 69 -123v-35v-53q-6 -13 -15 -45.5t-19 -42.5q0 -24 -2.5 -30.5t-14.5 -20.5 q-10 -28 -27.5 -72.5t-25.5 -67.5q-17 -35 -88 -106q-7 0 -11.5 -4t-5.5 -8v-5h-18q-104 -155 -262 -264q-1 -18 -19 -18q-17 -8 -43 -34t-45 -34q-96 -73 -190 -106q-6 -6 -25.5 -16.5t-33 -20t-13.5 -17.5q1 -16 17 -34q18 -17 18 -35q9 0 27 -17.5t26 -17.5 q121 -48 316 -18q181 68 350 211l70 -17q-17 -9 -39 -31t-31 -22q-35 -35 -35 -53q-8 -7 -25.5 -16t-27.5 -19l-53 -53q-8 -7 -26 -16.5t-26 -18.5q-16 0 -53 -33h-18l-17 -18q-19 -10 -67.5 -19.5t-71.5 -17.5q-9 0 -46 -3.5t-71.5 -3.5t-58.5 7q-70 0 -86 18 q-117 23 -229 105q0 22 -35 53q-14 14 -16.5 18.5t-2.5 16.5q-3 0 -28 -3.5t-46.5 -3.5t-29.5 7q-53 14 -83.5 29t-57.5 42q-2 2 -5 5.5l-12 14t-13 18t-7.5 18zM262 1640q27 27 27 54q47 12 90 -1t90 -33t90 -20q12 -17 6.5 -30.5t-13 -19t-23 -14.5t-23.5 -17 q-82 0 -82 -27q-25 25 -86.5 52.5t-75.5 55.5zM422 381q0 -18 8 -25q7 7 33 16.5t35 20.5q32 20 95 48.5t81 37.5q18 19 66.5 58.5t74.5 64.5q12 0 17 2t18 14q106 74 139 107l53 53q18 18 50.5 48.5t51 48.5t40 44t33.5 50q25 38 37 57t28 52.5t23 66.5q11 32 4.5 70.5 t-21.5 70.5q0 1 -18 17q-17 18 -17 34h-88v-16h-88q-108 -36 -181.5 -103.5t-152.5 -177.5l-51 -51q-101 -124 -194 -299q0 -7 -8.5 -29t-8.5 -43q-39 -76 -51 -102v-55q0 -11 -4 -36.5t-4 -43.5zM858 1559v55q24 12 50.5 12t60 -6t51.5 -6q0 -13 13.5 -26.5t13.5 -28.5 q0 -13 -9 -19t-18 -7t-27 -1q-21 0 -24.5 -3t-3.5 -24q-2 2 -4 4.5t-6 8.5t-1.5 10t11.5 4q-27 0 -54 13.5t-53 13.5z" />
<glyph unicode="&#xcf;" horiz-adv-x="362" d="M-211 1640q14 -28 75.5 -55.5t86.5 -52.5q0 27 82 27q8 8 23.5 17t23 14.5t13 19t-6.5 30.5q-43 0 -90 20t-90 33t-90 1q0 -12 -7 -25.5t-13 -20.5zM12 319v103v57q10 20 10.5 72t10.5 72q0 80 20 141q33 145 62 223q0 7 10 27.5t10 34.5q11 22 41 70.5t39 66.5 q3 3 36.5 31.5t45.5 52.5q25 0 35.5 -1.5t21.5 -10.5t21 -29v-62q-11 -11 -20.5 -31.5t-16.5 -29.5q0 -55 -21 -102q0 -7 -5 -16.5t-10 -15.5l-5 -5v-41q-77 -174 -102 -303q-10 -31 -20 -102.5t-19 -98.5v-86v-78q0 -41 16 -95t43 -67q0 -2 1 -5t6 -3.5t14 8.5 q7 0 11.5 5.5t11.5 16.5t17 19q12 23 44 61.5t34 41.5l86 -64q-6 -5 -34 -36.5t-52 -43.5q0 -15 -2 -20.5t-14 -22.5l-21 -18q-46 -23 -82 -32.5t-79.5 -3t-83.5 35.5q-27 29 -43.5 114.5t-16.5 169.5zM385 1559q27 0 54 -13.5t53 -13.5q-12 0 -12 -7t6 -13l6 -7q0 21 3 24 t25 3q18 0 27 1t17.5 7t8.5 19q0 15 -13 28.5t-13 26.5q-18 0 -51.5 6t-60 6t-50.5 -12v-55zM416 1671q17 57 24.5 81t23 59.5t34.5 64.5q0 8 10 9t25.5 2t23.5 9q31 17 70 13t53 -33q0 -40 -21 -61q-33 -94 -81 -144q-8 -7 -29 -16.5t-31 -20.5v-20h-20v-21l-21 -18 q-10 0 -10 -10.5t-10 -10.5h-17q-24 19 -24 117z" />
<glyph unicode="&#xd2;" horiz-adv-x="1198" d="M31 350q0 70 16 99q8 64 26 111t56 122q137 225 416 473q55 56 90 89.5t96 78t119 70.5q53 29 125.5 29t126.5 -29q5 -7 11.5 -21t14.5 -22l41 -13q34 -13 73.5 -63.5t39.5 -89.5v26h-14q6 -6 9.5 -12.5t4.5 -9.5v-4h12v-43v-29q-12 -27 -12 -82q-8 -24 -24 -56t-19 -40 l-180 -348q-20 -46 -41 -70q-9 -20 -14.5 -29t-16 -20.5t-24.5 -17.5q-16 -33 -43 -60q-14 -19 -32 -40.5t-29 -32.5t-39.5 -39t-37.5 -37q0 -7 -4 -11.5t-12 -9t-12 -8.5q-8 -7 -33 -32t-39 -38q-5 0 -12 -3t-11 -6l-4 -3q-78 -82 -123 -98q-65 -34 -182 0q-42 0 -69 14 q-70 21 -129.5 85t-92.5 149q-6 8 -13 32t-15 39zM265.5 572.5q-8.5 -54.5 2.5 -97.5v-43q0 -41 13 -70q6 -25 16 -47.5t28 -56t25 -47.5q24 -55 56 -55q15 0 50 6t48 6q5 7 12 11t21 9.5t22 8.5q23 15 65.5 51t57.5 47q138 115 246 268.5t213 356.5q24 54 36 111.5t5 123 t-41 111.5q-12 13 -26 17t-34 5.5t-34 5.5q-7 -5 -42 -12t-42 -16q-7 -4 -33 -16t-38.5 -18.5t-33 -18t-36 -23t-27.5 -23.5q-6 0 -20.5 -13t-20.5 -13q-103 -79 -166 -195q-5 -4 -11 -7.5t-9.5 -5t-6 -5t-2.5 -8.5q-12 -12 -23 -25t-22.5 -32.5t-17 -29t-19 -35.5 t-16.5 -32q-6 -6 -6 -20.5t-6 -20.5q-9 -57 -2 -88t30 -66q11 -16 27 -27t38.5 -17.5t39.5 -9.5t46 -7t42 -6q24 -9 75.5 1.5t63.5 10.5v-12q-15 -9 -51 -23t-47 -20h-13q-29 -29 -166 -29q-87 26 -134 56.5t-74 97.5q0 3 -7 21t-11 34.5t1 40.5q10 45 32 88t41 68.5 t55.5 70t53.5 66.5l27 26l43 43q0 5 3.5 8.5t11.5 9t14 11.5h-17q-14 -15 -41 -42t-41 -42q-2 -3 -9 -10t-10 -11t-6 -10t-3 -12q-56 -47 -93 -112.5t-73 -163.5q-21 -43 -29.5 -97.5zM317 1796.5q0 7.5 13 20.5h28v1v1v1v1v1v1v1v1v1v1v1v1v1v1v1v1v1v1v1v9q2 -2 5 -4.5 t9.5 -6.5t10.5 -1.5t4 12.5q71 -36 149 -96.5t155.5 -120t148.5 -94.5q-29 27 -56 27q13 -13 55.5 -27t57.5 -29q0 -19 -24 -11q-14 4 -13 9q1 2 8 2h-3h-3h-4h-4h-5h-9q0 -15 -14.5 -14t-14.5 -14q-168 71 -285 137t-196 145q0 11 -6.5 20.5t-6.5 17z" />
<glyph unicode="&#xd3;" horiz-adv-x="1198" d="M31 350q0 70 16 99q8 64 26 111t56 122q137 225 416 473q55 56 90 89.5t96 78t119 70.5q53 29 125.5 29t126.5 -29q5 -7 11.5 -21t14.5 -22l41 -13q34 -13 73.5 -63.5t39.5 -89.5v26h-14q6 -6 9.5 -12.5t4.5 -9.5v-4h12v-43v-29q-12 -27 -12 -82q-8 -24 -24 -56t-19 -40 l-180 -348q-20 -46 -41 -70q-9 -20 -14.5 -29t-16 -20.5t-24.5 -17.5q-16 -33 -43 -60q-14 -19 -32 -40.5t-29 -32.5t-39.5 -39t-37.5 -37q0 -7 -4 -11.5t-12 -9t-12 -8.5q-8 -7 -33 -32t-39 -38q-5 0 -12 -3t-11 -6l-4 -3q-78 -82 -123 -98q-65 -34 -182 0q-42 0 -69 14 q-70 21 -129.5 85t-92.5 149q-6 8 -13 32t-15 39zM265.5 572.5q-8.5 -54.5 2.5 -97.5v-43q0 -41 13 -70q6 -25 16 -47.5t28 -56t25 -47.5q24 -55 56 -55q15 0 50 6t48 6q5 7 12 11t21 9.5t22 8.5q23 15 65.5 51t57.5 47q138 115 246 268.5t213 356.5q24 54 36 111.5t5 123 t-41 111.5q-12 13 -26 17t-34 5.5t-34 5.5q-7 -5 -42 -12t-42 -16q-7 -4 -33 -16t-38.5 -18.5t-33 -18t-36 -23t-27.5 -23.5q-6 0 -20.5 -13t-20.5 -13q-103 -79 -166 -195q-5 -4 -11 -7.5t-9.5 -5t-6 -5t-2.5 -8.5q-12 -12 -23 -25t-22.5 -32.5t-17 -29t-19 -35.5 t-16.5 -32q-6 -6 -6 -20.5t-6 -20.5q-9 -57 -2 -88t30 -66q11 -16 27 -27t38.5 -17.5t39.5 -9.5t46 -7t42 -6q24 -9 75.5 1.5t63.5 10.5v-12q-15 -9 -51 -23t-47 -20h-13q-29 -29 -166 -29q-87 26 -134 56.5t-74 97.5q0 3 -7 21t-11 34.5t1 40.5q10 45 32 88t41 68.5 t55.5 70t53.5 66.5l27 26l43 43q0 5 3.5 8.5t11.5 9t14 11.5h-17q-14 -15 -41 -42t-41 -42q-2 -3 -9 -10t-10 -11t-6 -10t-3 -12q-56 -47 -93 -112.5t-73 -163.5q-21 -43 -29.5 -97.5zM424 1427v37q0 17 3.5 34.5t10 40.5t8.5 34q0 6 7.5 26t7.5 33q20 26 55.5 81.5 t52.5 78.5q6 10 15 21t23.5 27t21.5 24q5 3 9.5 4.5t6.5 4t6 13.5h27q12 -6 39.5 -11.5t34.5 -10.5q0 -5 2 -8.5t4 -3.5l2 -1q0 -4 3 -18.5t3 -25.5t-6 -15q0 -6 -2 -9.5t-9.5 -9.5t-11.5 -10q-6 -7 -21.5 -26.5t-24 -29.5t-22 -25t-27 -27t-28.5 -23q-3 -5 -9 -12t-9.5 -13 t-3.5 -12q-6 -2 -15 -4.5t-13.5 -4t-9 -5t-7.5 -8.5q-8 -8 -15 -19.5t-12 -17.5q-10 0 -10 -12l-12 -11q0 -6 -7.5 -6t-7.5 -6q0 -14 -10 -14q0 -5 -1 -5q-5 0 -11 -5v-13h-15q-3 -5 -6 -15t-6.5 -16t-9.5 -6z" />
<glyph unicode="&#xd6;" horiz-adv-x="1198" d="M31 350q0 70 16 99q8 64 26 111t56 122q137 225 416 473q55 56 90 89.5t96 78t119 70.5q53 29 125.5 29t126.5 -29q5 -7 11.5 -21t14.5 -22l41 -13q34 -13 73.5 -63.5t39.5 -89.5v26h-14q6 -6 9.5 -12.5t4.5 -9.5v-4h12v-43v-29q-12 -27 -12 -82q-8 -24 -24 -56t-19 -40 l-180 -348q-20 -46 -41 -70q-9 -20 -14.5 -29t-16 -20.5t-24.5 -17.5q-16 -33 -43 -60q-14 -19 -32 -40.5t-29 -32.5t-39.5 -39t-37.5 -37q0 -7 -4 -11.5t-12 -9t-12 -8.5q-8 -7 -33 -32t-39 -38q-5 0 -12 -3t-11 -6l-4 -3q-78 -82 -123 -98q-65 -34 -182 0q-42 0 -69 14 q-70 21 -129.5 85t-92.5 149q-6 8 -13 32t-15 39zM207 1640q26 27 26 54q35 11 73 4t62.5 -20t62.5 -25.5t73 -12.5q12 -17 6.5 -30.5t-13 -19t-23 -14.5t-23.5 -17q-82 0 -82 -27q-25 25 -86.5 52.5t-75.5 55.5zM265.5 572.5q-8.5 -54.5 2.5 -97.5v-43q0 -41 13 -70 q6 -25 16 -47.5t28 -56t25 -47.5q24 -55 56 -55q15 0 50 6t48 6q5 7 12 11t21 9.5t22 8.5q23 15 65.5 51t57.5 47q138 115 246 268.5t213 356.5q24 54 36 111.5t5 123t-41 111.5q-12 13 -26 17t-34 5.5t-34 5.5q-7 -5 -42 -12t-42 -16q-7 -4 -33 -16t-38.5 -18.5t-33 -18 t-36 -23t-27.5 -23.5q-6 0 -20.5 -13t-20.5 -13q-103 -79 -166 -195q-5 -4 -11 -7.5t-9.5 -5t-6 -5t-2.5 -8.5q-12 -12 -23 -25t-22.5 -32.5t-17 -29t-19 -35.5t-16.5 -32q-6 -6 -6 -20.5t-6 -20.5q-9 -57 -2 -88t30 -66q11 -16 27 -27t38.5 -17.5t39.5 -9.5t46 -7t42 -6 q24 -9 75.5 1.5t63.5 10.5v-12q-15 -9 -51 -23t-47 -20h-13q-29 -29 -166 -29q-87 26 -134 56.5t-74 97.5q0 3 -7 21t-11 34.5t1 40.5q10 45 32 88t41 68.5t55.5 70t53.5 66.5l27 26l43 43q0 5 3.5 8.5t11.5 9t14 11.5h-17q-14 -15 -41 -42t-41 -42q-2 -3 -9 -10t-10 -11 t-6 -10t-3 -12q-56 -47 -93 -112.5t-73 -163.5q-21 -43 -29.5 -97.5zM803 1559v55q24 12 50.5 12t60 -6t51.5 -6q0 -13 13 -26.5t13 -28.5q0 -13 -8.5 -19t-17.5 -7t-27 -1q-22 0 -25.5 -3.5t-3.5 -23.5q-2 2 -4 4.5t-6 8.5t-1.5 10t11.5 4q-27 0 -53 13.5t-53 13.5z" />
<glyph unicode="&#xd9;" horiz-adv-x="1761" d="M-26 812q5 65 38 85q28 17 62 -18q13 14 53 26t57 21q118 35 205 88q161 56 406 248q14 16 86.5 30.5t113.5 14.5q18 -21 0 -23q19 -22 68 -22h-23q-4 -4 -20 -17t-23.5 -21t-15.5 -22.5t-8 -30.5q-40 -50 -67.5 -110t-58.5 -151.5t-52 -141.5q-18 -44 -30 -77t-27 -86.5 t-21 -99t-4.5 -101.5t14.5 -107q90 57 156 154q23 25 65 67q108 146 160 250q31 38 80 110.5t94 129t94 96.5q26 25 70.5 47.5t94.5 32t85 -12.5q10 0 20.5 -11t22.5 -11q7 -6 17 -12l15 -9t9 -9t4 -15q15 -15 15.5 -47t-8.5 -63.5t-18 -66t-9 -48.5v-43 q-13 -24 -24.5 -80.5t-22.5 -77.5v-68q-22 -68 -56 -203t-57 -202v-90q-17 -51 -17 -89t17 -89q13 -13 24.5 -47.5t20.5 -45.5h47q0 17 10.5 21t32.5 4q9 4 47.5 24.5t69.5 32t61 11.5q-30 -38 -65 -68q-10 -11 -21.5 -17.5t-31 -14t-35.5 -15.5q-17 -13 -51.5 -43.5 t-57.5 -45.5t-58.5 -31t-77.5 -13t-93 22q-25 0 -68 43q-3 3 -15.5 16t-18.5 20.5t-15.5 18.5t-13.5 19.5t-4 15.5q-4 13 -13 37.5t-13 37t-9.5 32t-7.5 37t-2 37.5q-11 10 -11 22t5.5 31.5t5.5 36.5v67v68q12 25 23.5 87t21.5 93q10 22 21 83.5t24 96.5q43 80 43 133 q-92 -141 -133 -225q-31 -53 -93 -110q-9 -10 -14 -21.5t-5 -18.5l-1 -6q-37 -52 -95.5 -110.5t-107.5 -89.5q-9 -5 -40 -24t-53 -32t-53 -24.5t-55 -11.5q-18 10 -65.5 22.5t-82 23.5t-34.5 21q-190 240 68 834q-23 -24 -85 -47.5t-93 -44.5q-25 -23 -48 -23 q-26 -11 -72.5 -35.5t-62.5 -32.5q-18 -5 -40.5 -21t-39 -32t-36.5 -30t-33.5 -15.5t-28.5 10.5q-38 38 -32 112zM597 1796.5q0 7.5 13 20.5h29v1v1v1v1v1v1v1v1v1v1v1v1v1v1v1v1v1v1v1v9q2 -2 5 -4.5t9.5 -6.5t10.5 -1.5t4 12.5q71 -36 148.5 -96.5t155 -120t148.5 -94.5 q-28 27 -55 27q13 -13 55.5 -27t57.5 -29q0 -19 -24 -11q-14 4 -13 9q1 2 8 2h-3h-3h-4h-4h-4h-5h-6q0 -10 -4.5 -12.5t-9.5 -1.5t-9.5 -1.5t-4.5 -12.5q-168 71 -285.5 137t-196.5 145q0 11 -6.5 20.5t-6.5 17z" />
<glyph unicode="&#xda;" horiz-adv-x="1761" d="M-26 812q5 65 38 85q28 17 62 -18q13 14 53 26t57 21q118 35 205 88q161 56 406 248q14 16 86.5 30.5t113.5 14.5q18 -21 0 -23q19 -22 68 -22h-23q-4 -4 -20 -17t-23.5 -21t-15.5 -22.5t-8 -30.5q-40 -50 -67.5 -110t-58.5 -151.5t-52 -141.5q-18 -44 -30 -77t-27 -86.5 t-21 -99t-4.5 -101.5t14.5 -107q90 57 156 154q23 25 65 67q108 146 160 250q31 38 80 110.5t94 129t94 96.5q26 25 70.5 47.5t94.5 32t85 -12.5q10 0 20.5 -11t22.5 -11q7 -6 17 -12l15 -9t9 -9t4 -15q15 -15 15.5 -47t-8.5 -63.5t-18 -66t-9 -48.5v-43 q-13 -24 -24.5 -80.5t-22.5 -77.5v-68q-22 -68 -56 -203t-57 -202v-90q-17 -51 -17 -89t17 -89q13 -13 24.5 -47.5t20.5 -45.5h47q0 17 10.5 21t32.5 4q9 4 47.5 24.5t69.5 32t61 11.5q-30 -38 -65 -68q-10 -11 -21.5 -17.5t-31 -14t-35.5 -15.5q-17 -13 -51.5 -43.5 t-57.5 -45.5t-58.5 -31t-77.5 -13t-93 22q-25 0 -68 43q-3 3 -15.5 16t-18.5 20.5t-15.5 18.5t-13.5 19.5t-4 15.5q-4 13 -13 37.5t-13 37t-9.5 32t-7.5 37t-2 37.5q-11 10 -11 22t5.5 31.5t5.5 36.5v67v68q12 25 23.5 87t21.5 93q10 22 21 83.5t24 96.5q43 80 43 133 q-92 -141 -133 -225q-31 -53 -93 -110q-9 -10 -14 -21.5t-5 -18.5l-1 -6q-37 -52 -95.5 -110.5t-107.5 -89.5q-9 -5 -40 -24t-53 -32t-53 -24.5t-55 -11.5q-18 10 -65.5 22.5t-82 23.5t-34.5 21q-190 240 68 834q-23 -24 -85 -47.5t-93 -44.5q-25 -23 -48 -23 q-26 -11 -72.5 -35.5t-62.5 -32.5q-18 -5 -40.5 -21t-39 -32t-36.5 -30t-33.5 -15.5t-28.5 10.5q-38 38 -32 112zM705 1427v37q0 17 3.5 34.5t10 40.5t8.5 34q0 6 7 26t7 33q20 26 56 81.5t53 78.5q6 10 59 72q5 3 10 4.5t7 4t6 13.5h26q12 -6 39.5 -11.5t34.5 -10.5 q0 -5 2 -8.5t4 -3.5l2 -1q0 -4 3 -18.5t3 -25.5t-6 -15q0 -6 -2 -9.5t-9 -9.5t-11 -10q-6 -7 -21.5 -26.5t-24 -29.5t-22 -25t-27 -27t-28.5 -23q-2 -3 -12.5 -16t-10.5 -21q-6 -2 -15 -4.5t-13.5 -4t-9 -5t-7.5 -8.5q-8 -8 -14.5 -19.5t-11.5 -17.5q-10 0 -10 -12l-13 -11 q0 -6 -7 -6t-7 -6q0 -14 -10 -14q0 -5 -2 -5q-5 0 -11 -5v-13h-14q-3 -5 -6 -15t-6.5 -16t-9.5 -6z" />
<glyph unicode="&#xdc;" horiz-adv-x="1761" d="M-26 812q5 65 38 85q28 17 62 -18q13 14 53 26t57 21q118 35 205 88q161 56 406 248q14 16 86.5 30.5t113.5 14.5q18 -21 0 -23q19 -22 68 -22h-23q-4 -4 -20 -17t-23.5 -21t-15.5 -22.5t-8 -30.5q-40 -50 -67.5 -110t-58.5 -151.5t-52 -141.5q-18 -44 -30 -77t-27 -86.5 t-21 -99t-4.5 -101.5t14.5 -107q90 57 156 154q23 25 65 67q108 146 160 250q31 38 80 110.5t94 129t94 96.5q26 25 70.5 47.5t94.5 32t85 -12.5q10 0 20.5 -11t22.5 -11q7 -6 17 -12l15 -9t9 -9t4 -15q15 -15 15.5 -47t-8.5 -63.5t-18 -66t-9 -48.5v-43 q-13 -24 -24.5 -80.5t-22.5 -77.5v-68q-22 -68 -56 -203t-57 -202v-90q-17 -51 -17 -89t17 -89q13 -13 24.5 -47.5t20.5 -45.5h47q0 17 10.5 21t32.5 4q9 4 47.5 24.5t69.5 32t61 11.5q-30 -38 -65 -68q-10 -11 -21.5 -17.5t-31 -14t-35.5 -15.5q-17 -13 -51.5 -43.5 t-57.5 -45.5t-58.5 -31t-77.5 -13t-93 22q-25 0 -68 43q-3 3 -15.5 16t-18.5 20.5t-15.5 18.5t-13.5 19.5t-4 15.5q-4 13 -13 37.5t-13 37t-9.5 32t-7.5 37t-2 37.5q-11 10 -11 22t5.5 31.5t5.5 36.5v67v68q12 25 23.5 87t21.5 93q10 22 21 83.5t24 96.5q43 80 43 133 q-92 -141 -133 -225q-31 -53 -93 -110q-9 -10 -14 -21.5t-5 -18.5l-1 -6q-37 -52 -95.5 -110.5t-107.5 -89.5q-9 -5 -40 -24t-53 -32t-53 -24.5t-55 -11.5q-18 10 -65.5 22.5t-82 23.5t-34.5 21q-190 240 68 834q-23 -24 -85 -47.5t-93 -44.5q-25 -23 -48 -23 q-26 -11 -72.5 -35.5t-62.5 -32.5q-18 -5 -40.5 -21t-39 -32t-36.5 -30t-33.5 -15.5t-28.5 10.5q-38 38 -32 112zM487 1640q27 27 27 54q47 12 90 -1t90 -33t90 -20q12 -17 6.5 -30.5t-13 -19t-23 -14.5t-23.5 -17q-82 0 -82 -27q-25 25 -86.5 52.5t-75.5 55.5zM1083 1559 v55q24 12 50.5 12t60 -6t51.5 -6q0 -13 13.5 -26.5t13.5 -28.5q0 -13 -8.5 -19t-17.5 -7t-27 -1q-22 0 -25.5 -3.5t-3.5 -23.5q-2 2 -4 4.5t-6 8.5t-1.5 10t11.5 4q-26 0 -53 13.5t-54 13.5z" />
<glyph unicode="&#xe0;" horiz-adv-x="823" d="M-12 133q8 41 25 80t48 94t39 70q107 163 158 225q32 39 66 74q187 147 338 168h92q0 -7 -4 -13t-4 -11t8 -13q22 0 45.5 9t29.5 9q9 0 9.5 -9t9.5 -9q-19 -21 -19 -57q-17 -8 -25.5 -32t-9.5 -42t-1 -58q-44 -415 18 -579q18 -19 18 -37q0 -3 -14.5 -28.5t-3.5 -47.5 q-8 8 -13 8t-11 -4t-13 -4q-12 5 -40 13t-46 18t-26 27q-26 27 -42.5 66t-22.5 93.5t-7.5 91.5t-1.5 103q-17 -8 -31.5 -22t-32 -35.5t-30.5 -34.5q-81 -111 -189 -187q-31 -33 -82 -51.5t-104 -5.5h-37q-9 8 -18 12.5t-14 5.5h-5q-15 13 -27 37t-12 39q-12 0 -15 9t-3 28z M117 133q3 -30 20 -37q39 -14 86.5 14t63.5 60q12 12 39.5 35.5t46 42.5t26.5 35q18 24 52 65.5t57.5 74t40.5 66.5q4 4 20.5 16.5t25.5 21.5t9 16q0 38 21 57q0 24 9 52.5t24.5 63t21.5 52.5q-134 -65 -205 -113q-25 -17 -48.5 -39.5t-53.5 -56.5t-49 -53 q-11 -17 -59.5 -70.5t-69.5 -97.5q-16 -14 -58 -92q-10 -22 -16.5 -52.5t-3.5 -60.5zM494 1350v16q85 31 110 0q69 -30 113 -74v21q15 -23 58.5 -62.5t53.5 -70.5v-19h19q0 -9 -9.5 -9t-9.5 -9q9 0 28.5 -9.5t27.5 -9.5q0 -14 2.5 -16t17.5 -2q-11 -11 -30 -20.5t-27 -16.5 q-120 26 -168 74q-41 41 -55 74q-11 12 -31 40.5t-38.5 46.5t-43.5 25q0 9 -4.5 14t-9.5 6z" />
<glyph unicode="&#xe1;" horiz-adv-x="1177" d="M-27 258q11 44 36 80.5t60 76t52 64.5q46 69 116 135t126 106.5t149 100.5q25 13 74 50t73 49q50 20 117 33t138.5 13.5t124 -30t61.5 -90.5q0 -17 -1 -25t-6.5 -16t-17.5 -8q22 -11 78.5 -23.5t69.5 -25.5v-48q-19 -19 -22 -24.5t-3 -24.5q-7 -18 -30.5 -74t-35 -86.5 t-27.5 -79.5t-23 -92.5t-7 -85.5h25q0 17 12 21t37 4h25v-25v-71q0 -25 -25 -25q11 0 17.5 -6t7.5 -12v-6q-9 -9 -23 -17.5t-20.5 -15t-6.5 -17.5q-7 -7 -10 -12t-2 -7t0 -3.5t-2.5 -1.5h-9.5q-11 -11 -29.5 -11t-40.5 5.5t-29 5.5q0 13 -12 12t-12 12q-98 39 -132 89.5 t-16 154.5h-24q0 -11 -22.5 -34t-59.5 -54t-39 -33q-44 -26 -105.5 -80.5t-117.5 -92t-121 -48.5q-40 -15 -70 -6t-51 31h-49q-11 0 -23.5 12t-27.5 32.5t-23 28.5h-49q-22 22 -48 84t-26 111zM305 1004q35 86 65.5 139t71.5 86q64 48 117 65q20 15 62.5 36.5t73 44.5 t46.5 57q11 -2 18.5 3.5t8.5 12.5l2 6l27 -2q24 -125 -21 -160q-3 -4 -13 -18t-13.5 -19.5t-13 -18t-15 -19t-15 -17.5t-17.5 -18.5t-18.5 -17t-21.5 -17.5l27 -4q-34 -16 -70.5 -47.5t-69.5 -55t-69 -30.5l-27 4l-2 -27q-14 2 -12 15t-12 14q-1 -13 -18 -38t-19 -38 q-20 3 -24 0.5t-5 -22.5q-11 15 -21 43t-22 43zM340 186q25 23 74 23q12 12 36 36.5t37 37.5q55 33 109 75t125.5 104t107.5 91q89 45 123 147q-22 0 -33.5 6t-22 21t-17.5 21h-25q-18 0 -24 -3t-25 -20q-27 0 -66 -33t-55 -41q-46 -35 -93.5 -84.5t-75.5 -85t-77 -100.5 q-64 -96 -98 -195z" />
<glyph unicode="&#xe2;" horiz-adv-x="950" d="M-4 69v5v84q0 10 10 30.5t10 30.5q12 35 47 98t37 66q47 94 123 207q11 22 32.5 53t31.5 49q12 12 41 44.5t43.5 46.5t41.5 31t56 24q13 11 50 22t54 19h21h41q17 -8 55 -19t49 -22q6 12 10 37t14 35t38 10h41q7 -15 7 -29.5t-1.5 -20.5t-13 -27t-13.5 -26 q-41 -125 -41 -227q-9 -27 -9 -63.5t4.5 -80.5t4.5 -63q0 -21 -10 -52t-10 -52q0 -142 20 -185q2 -2 18.5 -22.5t31 -29.5t32.5 -9q44 0 64 20q10 0 30.5 10.5t30.5 10.5l-41 -41v-41h-20q-7 -7 -14 -18.5t-13 -17t-16 -5.5q-31 -15 -80 -15t-64 15q-6 0 -11.5 2t-13.5 7.5 t-11 8t-14 12t-13 11.5l-21 20q-19 19 -28.5 62.5t-11 76t-1.5 89.5q0 181 21 245q-41 -41 -41 -61q-9 0 -14 -5t-6 -11l-1 -5q-15 -15 -17.5 -20.5t-2.5 -20.5q-41 -41 -41 -63q-10 -10 -31.5 -29.5t-31.5 -29.5q-20 -20 -58 -63.5t-74 -80t-73 -63.5q-84 -41 -144 -41 q-15 0 -42 13t-42 28v20q-9 0 -14 5.5t-6 10.5zM100 199q0 -18 13.5 -51t27.5 -33l21 -21q18 0 82 64q19 9 30 19.5t25 29t29 33.5q21 20 61 71.5t60 71.5q121 147 206 289q21 21 21 63q-20 5 -43.5 5t-43 -2.5t-45.5 -9t-41.5 -11.5t-40.5 -13.5t-34 -11.5q-7 -7 -18.5 -14 t-17 -12.5t-5.5 -14.5q-39 -20 -80 -61l-20 -21q-10 -9 -16 -19t-7 -16v-6q-9 -10 -29.5 -41.5t-31.5 -42.5q-49 -49 -82 -184q0 -10 -10.5 -30.5t-10.5 -30.5zM408 1188v20q0 21 41 21q10 10 31.5 20.5t31.5 20.5q15 15 20.5 17.5t20.5 2.5l41 41q20 23 20 43 q17 0 39.5 13.5t22.5 27.5q8 0 21 4.5t23 4.5t19 -9q1 0 21 -20q15 0 17.5 -3t2.5 -18q0 -14 -4.5 -40t-4.5 -46.5t9 -38.5q18 -12 41 -4.5t41 25.5q-20 -20 -20 -62q-21 0 -21 -20h-41q-27 13 -41 22t-27.5 30.5t-13.5 49.5q-12 0 -22.5 -10t-20.5 -10q0 -9 -10.5 -14.5 t-26.5 -12t-24 -14.5q-10 -10 -41 -31t-41 -31h-43q-10 0 -30.5 10.5t-30.5 10.5z" />
<glyph unicode="&#xe4;" horiz-adv-x="841" d="M-16 213q24 89 61 168q64 218 184 367q16 15 35 39t34.5 39.5t33.5 23.5l61 61q41 23 162 60q8 0 21 -4t24 -4t21 8q9 -9 38.5 -9.5t38.5 -9.5q0 -2 0.5 -5t7 -8t17.5 -5v18q34 0 49.5 3t28.5 16q17 0 9 -9l-9 -10h22q0 -8 -11 -18.5t-11 -22.5h22q-41 -36 -41 -61 q-9 -20 -29.5 -71.5t-29.5 -71.5q-17 -30 -21 -48.5t-4 -54.5v-18q0 -22 -9 -63.5t-9 -61.5q0 -45 21.5 -107t21.5 -75l1 -10l1 1q7 9 16 9q-12 -45 7.5 -97t52.5 -90q0 -18 2.5 -23t19.5 -18h62q-41 -41 -41 -61q-2 0 -5.5 -0.5t-9.5 -6.5t-6 -16h-22q-58 -13 -124 12.5 t-99 71.5q0 18 -23 41q-37 88 -37 187q0 29 9.5 90t9.5 92q-7 -8 -17.5 -30t-23.5 -32q-25 -48 -95 -134t-88 -111q-18 -32 -35.5 -49.5t-48.5 -34.5q-1 -1 -10.5 -8.5t-12 -9.5t-11 -7t-14.5 -6.5t-15 -3.5t-19 -2q-78 0 -120.5 45.5t-42.5 134.5zM142 149.5 q8 -14.5 28 -14.5q18 0 78 60q7 12 17 31t16.5 30t15 23t16.5 18q19 32 60.5 93.5t60.5 92.5q37 45 73 101t79.5 130.5t70.5 116.5q23 19 23 37q-12 0 -22.5 11.5t-18.5 11.5h-18q-86 -30 -125 -103q-45 -36 -86.5 -87.5t-87 -117t-74.5 -100.5q0 -18 -12.5 -44.5 t-28.5 -39.5q-9 -21 -18.5 -51t-18.5 -51q-16 -28 -19.5 -46.5t-3.5 -55.5q-13 -31 -5 -45.5zM434 1300v41q0 21 62 21q24 9 40 4.5t35.5 -15t26.5 -10.5q12 -12 22.5 -31.5t18.5 -27.5q0 -12 -30.5 -11t-30.5 -11q-30 12 -77 21.5t-67 18.5zM774 1323q0 15 4 34.5t4 26.5 q31 14 72 14t72 -14h20q0 -2 0.5 -6t6.5 -10t16 -6v-21h18v-22l-18 -19q-19 -8 -50 -8t-62 4t-34 4h-41q-8 8 -8 23z" />
<glyph unicode="&#xe7;" horiz-adv-x="892" d="M65.5 176.5q-0.5 10.5 2 14.5t13 12.5t15.5 13.5q49 13 110.5 45t88.5 41q31 169 101.5 306t185.5 294q56 49 90 66q15 15 24 22.5t27 15t39 7.5v1v1v1v1v1v1v1v1v1v1v1v1v10q31 0 60.5 -7.5t46 -14.5t46.5 -23q9 -9 21.5 -19t20.5 -16t16 -15t11.5 -19t3.5 -25.5 t-5 -36.5q-50 -196 -113 -291q-9 -8 -21 -30t-23 -39t-21 -17q-66 0 -66 21q0 64 44 180t44 197q-11 0 -23 -7t-19 -13.5t-23 -22.5q-23 -35 -79.5 -102t-78.5 -99q-34 -69 -55.5 -151t-26.5 -170.5t17 -165.5q99 34 178 110q35 10 89.5 55t86.5 56v-68q-30 -30 -45 -43 q-10 -22 -42.5 -66.5t-43.5 -66.5q-15 -15 -37 -41.5t-39 -43t-37 -26.5q-45 0 -67 -22q3 -3 25 -21t32 -33t10 -34v-43q-22 -43 -22 -90q-11 -12 -22 -34.5t-23 -33.5q-4 -9 -12 -28.5t-12 -27.5t-14.5 -22.5t-25.5 -29.5q0 -16 -0.5 -23t-5.5 -15t-16 -8q-23 0 -23 66 q3 5 16 27.5t16 31t8 29.5t5 45q68 154 21 176h-43q-9 0 -16 5t-13 5t-16 -10q-9 9 -21.5 16t-18 13t-5.5 16q-18 18 -20.5 23t-2.5 22q-11 11 -40 36t-45 46t-26 52q-10 0 -15.5 -6t-6.5 -12v-5q-113 -40 -176 23q-8 16 -8.5 26.5z" />
<glyph unicode="&#xe8;" horiz-adv-x="651" d="M4 199q-9 40 5 98.5t14 73.5q0 9 8 9t8 9q58 127 91 194t94.5 159.5t125.5 148.5q4 2 17 8t18.5 8.5t16.5 7t18.5 6.5t17 3.5t17.5 1.5h16h35q79 0 156 -35q51 -51 51 -121q0 -71 -17 -88q-37 -61 -104 -121.5t-137 -103.5q-21 -10 -98.5 -55.5t-127.5 -65.5 q-8 0 -43 -8.5t-43 -8.5q0 -8 -4.5 -20.5t-8.5 -21.5l-5 -9q0 -64 44.5 -112t111.5 -62q80 0 221 32.5t176 37.5q-34 0 -51 -17q0 -9 8 -9t8 -9q-12 0 -17 -2t-18 -14q0 -1 -16 -19q-7 0 -16 -4.5t-25 -14.5t-29 -16h-16q-36 -32 -86 -32q-43 -28 -106 -35.5t-119 16.5 q-40 0 -74 13.5t-47 37.5q-70 70 -70 140zM143 389q6 6 11.5 19.5t10.5 22.5t13 9q-13 -14 -15.5 -18t-2.5 -16q91 38 188.5 98.5t173.5 126.5q17 15 43.5 57.5t26.5 65.5q0 14 -20 50t-31 36q-8 0 -21.5 -5t-23.5 -11l-9 -5h-16q-25 -10 -32 -14.5t-19 -20.5 q-70 -19 -105 -86q0 21 -16 21q-95 -120 -156 -330zM343 1345q0 5 7 13h17v16q18 -16 18 0q51 -26 138 -95t139 -95q-19 18 -35 18q8 -9 34.5 -18.5t34.5 -16.5q0 -12 -15 -7q-6 2 -7 5q1 2 4 2h-3h-3h-10q0 -9 -9.5 -9t-9.5 -9q-212 93 -293 174q0 6 -3.5 11.5t-3.5 10.5z " />
<glyph unicode="&#xe9;" horiz-adv-x="686" d="M-7 284.5q0 7.5 1.5 10t10 9t11.5 9.5v49q10 117 71.5 236.5t137.5 181.5q6 3 53.5 29t75.5 37q15 -18 33 0q52 0 126 -17.5t83 -48.5q32 -66 23 -90q-6 -15 -23 -20q-21 -44 -48 -87.5t-69 -103.5t-59 -86q0 -6 -3.5 -12.5t-7.5 -11t-11.5 -12t-10.5 -11.5 q-16 -15 -21 -28.5t3 -51.5q-15 0 -15 31q-48 -45 -112 -64q2 -4 12 -26t15 -31t15.5 -22t22.5 -19q45 0 113 33q52 18 145 67t127 62q-14 -17 0 -31h33q-12 0 -22.5 -11t-10.5 -22q-10 0 -14 -2t-16 -16q-4 -4 -25 -24t-27.5 -26.5t-26.5 -24.5t-30 -26.5t-28 -24 t-31 -24.5t-29 -20t-31 -20q-69 -27 -171.5 -21t-149.5 49q-23 15 -40 40.5t-22.5 39t-19.5 51.5q-15 17 -15 64q-2 0 -5 0.5t-8 5t-5 12.5q-5 11 -5 18.5zM211 410q36 22 81.5 60.5t67.5 60t74 73.5q0 11 10.5 22t22.5 11v47q0 15 -13 18t-28 -3t-25 -15 q-71 -36 -125.5 -113t-64.5 -161zM401 1167q8 0 12.5 4.5t5.5 8.5l1 4q43 22 109 58.5t111 60t104 50.5t122.5 45t132.5 27q-7 0 -23.5 -7t-23.5 -7q2 -10 32.5 -1.5t47.5 1.5q0 -9 -8 -9t-8 -9h16q-8 0 -24 -7.5t-23 -7.5q0 -9 -16.5 -25t-16.5 -24q-7 2 -7 3q6 7 7 14 q-8 0 -12.5 -4t-5.5 -8v-5q-7 -8 -23.5 -16.5t-23.5 -16.5l14 17q-8 -4 -29.5 -26.5t-48.5 -22.5q15 -1 15 -15q-6 0 -14.5 -4.5t-13.5 -8.5l-5 -5q-6 0 -9.5 -3.5t-3.5 -7.5l-1 -3q-9 0 -9.5 7t-9.5 7q0 -7 -7 -15t-7 -18q-1 19 -19 19v-19q19 18 19 0q-27 -12 -38 -17 t-31 -22t-27 -39q0 22 9 34.5t21 12.5q-7 0 -12 6q-2 -4 -2 -6q0 -8 -8 -8t-8 -8q-12 0 -14.5 2t-2.5 14q-3 -3 -10 -11t-10.5 -11.5t-11.5 -9t-14 -4t-17 3.5q-8 -14 -16.5 -15.5t-12 3t-4.5 -2.5h-33q-6 0 -11.5 3t-10 3t-11.5 -6q-5 5 -27 7.5t-38.5 10.5t-16.5 29z M901 1313q14 0 16.5 2t2.5 14q-1 0 -19 -16z" />
<glyph unicode="&#xea;" horiz-adv-x="843" d="M2 338q0 32 37 104q35 39 35 54q-43 -22 -72 -107v35q20 29 46.5 73.5t41.5 67.5l36 48l36 48t31 38.5t38 41.5h-18q14 12 18.5 14.5t16.5 2.5v18q15 6 50.5 38t55.5 32h17v18q9 0 9 8.5t9 8.5v-17q19 16 35 35v-18q14 0 16 2.5t2 15.5q7 -8 11.5 -8t10.5 4t13 4h19v16 q0 -16 16 -16v16v-16q8 0 12.5 4t5.5 8v4h17h18v-16h-18q71 0 106 -18q35 -17 35 -35q9 7 12 3.5t9.5 -12t13.5 -8.5v17q8 0 13 -9t10.5 -23t11.5 -21q-8 0 -8.5 9t-8.5 9q16 -18 0 -18h17q27 -53 0 -105v19q-7 -24 -20 -45.5t-35.5 -51t-32.5 -45.5q-5 -6 -11 -16 t-11 -14.5t-13 -4.5v-18q-1 -16 -17 0q0 -8 -9 -17t-9 -18q-7 2 -7 3q7 8 7 16q0 -13 -19 -24t-34 -11v-19h-17l-18 -18h-16q-19 -16 -37 -16h18q-13 -7 -28.5 -16.5t-24.5 -14t-16 -4.5q-7 -7 -21 -13t-23.5 -10.5t-9.5 -11.5q-2 0 -4.5 0.5t-3 4.5t7.5 11 q-20 -20 -65.5 -24.5t-57.5 -10.5q0 -12 -0.5 -17.5t-5 -11t-12.5 -5.5q0 -9 9 -27t9 -27q-7 7 -12.5 16.5t-10 14t-11.5 4.5q0 -51 16 -69v18q7 -7 13 -21t10.5 -23t11.5 -9v-19q29 -13 72.5 -23.5t68.5 -10.5h-53q24 -8 54.5 -8t67.5 4t54 4q-7 8 -11.5 8t-10.5 -4t-13 -4 q173 22 369 88q-13 0 -35.5 -11.5t-34.5 -23.5h35q-19 -1 -35 -19q12 0 16.5 2.5t18.5 16.5q-10 -10 -27.5 -19t-25.5 -16q-93 -65 -193 -88h17q0 -19 -35 -19q-17 0 -17 -16q-9 -9 -35.5 -9t-35.5 -9h-123q0 8 9 8t23.5 -4t20.5 -4q18 9 62 17.5t61 16.5q-6 0 -37 -8 t-51 -8h-70q12 0 3.5 8t-21.5 8q104 0 141 19h-192q-13 11 -44 23t-44 12q0 12 -2 12q-3 0 -17 -12q0 16 -9 24.5t-23.5 15.5t-20.5 13q0 -26 12.5 -42t40.5 -30q1 -16 19 -16q-19 0 -19 16q-24 12 -35.5 19.5t-28 25.5t-24.5 43l-16 19q0 -39 35 -107q-1 19 -19 19 q-8 8 -17 34.5t-18 34.5q-9 30 -12 41.5t-8 36.5t-3.5 43.5t7.5 36.5q0 28 11 61t24 46v16v18v-18q-8 0 -8 4.5t4 9.5l4 4q-19 0 -19 -34q-7 7 -7 11t3.5 10t3.5 13q-9 -10 -18 -41t-17 -47zM74 512q0 -6 3 -7q5 0 4 10q-1 8 -7 15v-18zM74 512q0 -6 3 -7q5 0 4 10 q-1 8 -7 15v-18zM109 408q0 -8 4 -13t8 -5l4 -1q0 19 -16 19zM109 408q0 -8 4 -13t8 -5l4 -1q0 19 -16 19zM125 301v18v-18zM125 301v18v-18zM125 389q0 -7 4.5 -16t8.5 -14l5 -5q0 14 -2.5 18.5t-15.5 16.5zM125 389q0 -7 4.5 -16t8.5 -14l5 -5q0 14 -2.5 18.5t-15.5 16.5z M143 424q9 0 18 9t17 9q0 -9 -8 -17.5t-8 -16.5q0 7 4 11t8 5h4v-16q-16 16 -16 0q7 0 11 -5t5 -9v-5q0 13 3 16t16 3q8 0 16.5 8t17.5 8q6 3 52 23.5t56 25.5t50.5 24.5t55 29.5t47 29.5t49 35t40.5 37.5t41 45t31 49q0 61 -53 88v18q-29 0 -59 -9t-45 -9q-9 -9 -27.5 -18 t-26.5 -17q-16 0 -33.5 -8.5t-39.5 -23.5t-33 -21q-1 -16 -17 -16q-5 -5 -21 -17.5t-29 -25.5t-21 -29v-17q-24 0 -37.5 -18t-13.5 -35q1 -7 2 -7q6 7 14 7q0 14 2.5 16.5t15.5 2.5q-8 -12 -25.5 -36t-26 -37.5t-19.5 -37.5t-17 -49zM171 455q0 5 3.5 10.5t3.5 11.5 q8 -7 8 -11t-4 -4l-4 -1v-19q-7 8 -7 13zM197 4q0 12 17 6l17 -6h-34zM213 1092q0 38 72 106q65 94 157 139q28 19 61.5 28t70 3t61.5 -31q19 -9 36.5 -48.5t33.5 -55.5q0 -29 40.5 -73.5t47.5 -67.5q34 0 34 -17q-34 0 -34 17h-17h-18q-30 34 -53 34q-7 8 -16 26.5 t-19 27.5q-36 36 -70 106q-25 0 -48.5 -7.5t-35 -14t-39 -26t-35.5 -24.5q-8 -16 -25 -30.5t-26.5 -19.5t-36.5 -19q-35 -19 -53 -35h-16q0 -8 -4.5 -12.5t-9.5 -5.5h-5q-6 0 -16.5 -3.5t-19.5 -3.5t-17 7zM231 20h35q-14 -12 -24.5 -12t-10.5 12zM231 741h17q0 7 -4 11.5 t-8 5.5h-5v-17zM231 741v17q17 -1 17 -17h-17zM266 758v18q-18 -18 0 -18zM266 758v18q-18 -18 0 -18zM301 793v18v-18zM301 793v18v-18zM319 55q17 -16 35 0h-35zM319 55q17 -16 35 0h-35zM319 811q16 0 0 18v-18zM319 811q16 0 0 18v-18zM336 829q8 0 12.5 4.5t5.5 8.5v4 q0 -7 -4.5 -11.5t-9.5 -4.5l-4 -1v17h18q-18 -1 -18 -17zM336 829q8 0 12.5 4.5t5.5 8.5v4q0 -7 -4.5 -11.5t-9.5 -4.5l-4 -1v17h18q-18 -1 -18 -17zM354 90q8 9 48 9.5t57 9.5q-37 -19 -105 -19zM354 90q8 9 48 9.5t57 9.5q-37 -19 -105 -19zM371 74q7 0 17 -4t15 -4t5 8 h-37zM371 74q7 0 17 -4t15 -4t5 8h-37zM389 109h35h-35zM530 20q12 0 16.5 2.5t18.5 16.5q-8 0 -16.5 -4.5t-13.5 -9.5zM530 20q12 0 16.5 2.5t18.5 16.5q-8 0 -16.5 -4.5t-13.5 -9.5zM582 39h18h-18zM600 39h18h-18zM688 547q0 13 2.5 15.5t14.5 2.5q-7 0 -11.5 -4.5 t-5.5 -8.5v-5zM705 584q0 7 4.5 15.5t8.5 13.5l5 5v-18v18q0 -9 -9 -17.5t-9 -16.5zM723 618q8 0 12.5 4t4.5 8l1 5q0 -12 -2.5 -14.5t-15.5 -2.5zM793 1092h18q-9 0 -16 -7q-2 4 -2 7z" />
<glyph unicode="&#xeb;" horiz-adv-x="774" d="M14 223q0 -14 3.5 -24.5t12.5 -25.5t13 -23q-10 10 -19.5 35t-9.5 38q-47 110 58 287q111 154 231 274q53 32 75.5 44.5t64.5 31t75 25.5q230 0 275 -201q0 -14 7 -44t7 -44q0 -24 -4.5 -48t-7.5 -38.5t-15.5 -40t-16 -32t-22 -37t-20.5 -33.5q-175 -126 -361 -144 q0 -14 3.5 -21t13 -14t12.5 -10q-10 5 -24 17t-28.5 20t-33.5 8q10 -52 48 -70t110 -18q45 -6 100.5 1t125.5 23t91 19q-43 0 -71 -28h-15v-15q-14 0 -14 -14q-8 -8 -34 -15.5t-38 -13.5q-12 -10 -16 -12t-15 -2q0 -15 -28 -15q-35 -17 -115 -43q-25 -6 -50.5 -6t-57 3 t-50.5 3q-5 0 -13.5 -3t-16 -3t-13.5 6q-7 0 -21.5 7.5t-21.5 7.5q-14 0 -30 14q-6 0 -10 3.5t-4 7.5l-1 3q-27 13 -43 29v14q-13 20 -42 56.5t-44 60.5zM72 106q10 7 12 3.5t2 -17.5q0 10 -2 12t-12 2zM199.5 412.5q3.5 -25.5 7 -36.5t12.5 -34.5t12 -32.5q75 0 154 20 t133 52q60 41 103 100q50 50 71 115v45q0 25 -7 47t-7 25q-14 14 -14 43q-11 11 -17.5 17t-17.5 15t-17.5 10.5t-18 4t-18.5 -3.5q-21 0 -37.5 -2.5t-33 -10.5t-23.5 -11.5t-26 -17t-23 -16.5q-14 -7 -42.5 -28.5t-43.5 -28.5q-38 -38 -71.5 -86.5t-43.5 -87.5 q0 -14 -14 -14q0 -7 -7 -21.5t-7 -21.5q-7 -15 -3.5 -40.5zM375 1231q14 15 14 29q31 8 75 -10.5t68 -18.5q7 -10 3.5 -17t-7 -10t-12 -7.5t-12.5 -8.5q-43 0 -43 -14q-13 13 -46 27t-40 30zM692 1188v29q13 6 27 6t31.5 -3t27.5 -3q0 -7 7.5 -14.5t7.5 -14.5q0 -14 -29 -14 q-10 0 -12 -2t-2 -13q-14 15 0 15q-14 0 -29 7t-29 7z" />
<glyph unicode="&#xee;" horiz-adv-x="458" d="M33 113v55v94q0 18 9 54t9 55q13 26 22 69t22.5 70t45.5 43q9 0 18.5 9t18.5 9v-18v-18h19v-17q0 -9 -9.5 -27.5t-9.5 -27.5v-55v-37q-29 -86 0 -146v-20q0 -36 19 -55q16 -16 39.5 -23t54.5 4q32 8 59 26.5t57 46t48 40.5l-56 -166q-26 -26 -73 -40.5t-93 -14.5 q-13 -13 -36 -13t-37 13h-35q0 13 -2.5 15.5t-16.5 2.5q-13 0 -24.5 11.5t-11.5 25.5q0 -1 18 -19v19q-14 0 -16 2t-2 16q-19 17 -37 17zM39 1110q0 6 1 11.5t4 11.5t5 11t7 11.5t8 10.5t10 11.5t10 11t11 12t11 11.5q66 92 152 134q27 18 59.5 27t67.5 3t59 -30 q18 -9 34.5 -47.5t31.5 -53.5q0 -28 39 -70.5t47 -64.5q33 0 33 -16q-33 0 -33 16h-18h-17q-35 35 -51 35q-8 8 -16.5 24.5t-16.5 24.5q-40 42 -67 102q-24 0 -47 -7t-33.5 -12.5t-38 -24.5t-33.5 -23q-7 -16 -22.5 -30t-27.5 -20.5t-34 -17.5q-33 -17 -51 -35h-17 q0 -7 -4 -11t-8 -5h-4q-5 0 -15.5 -3.5t-19.5 -3.5t-16 7zM596 1110h16q-7 0 -15 -7q-1 4 -1 7z" />
<glyph unicode="&#xef;" horiz-adv-x="661" d="M-39 104q191 44 232 64q53 53 172 127q10 10 19.5 42t18.5 42q0 18 15.5 40.5t30.5 22.5q2 0 5.5 0.5t9 6.5t5.5 16q44 -16 69.5 -19.5t77.5 -3.5v-20q0 -6 5 -25t5 -34.5t-10 -24.5q0 -20 -4.5 -64.5t-4.5 -81.5t9 -65q3 -6 10.5 -19t10.5 -18.5t6.5 -15.5t3.5 -17 t-1.5 -17t-6.5 -20v-20q-11 -10 -11 -21t-12 -24h-20q-6 9 -15 7.5t-16 -7t-16.5 -12t-16.5 -6.5q-8 8 -40 18.5t-43 24.5q-46 20 -109 124q-15 -15 -18 -20.5t-3 -20.5h-38q0 -2 -0.5 -5.5t-7 -9t-17.5 -5.5q0 -10 -10 -16t-20 -7h-11q-65 -30 -127 0q-54 20 -83.5 38 t-43.5 46zM225 967q21 20 21 43q47 11 112.5 -16t102.5 -27q5 -14 5.5 -21.5t-5.5 -14t-12 -10t-15.5 -9t-15.5 -11.5q-64 0 -64 -20q-19 19 -68.5 41t-60.5 45zM696 901v43q18 10 39.5 10t47.5 -5t40 -5q0 -10 11.5 -20.5t11.5 -22.5q0 -20 -43 -20q-15 0 -18 -3t-3 -18 q-23 21 0 21q-23 0 -44.5 10t-41.5 10z" />
<glyph unicode="&#xf2;" horiz-adv-x="1071" d="M0 174v119q-29 151 26 238t177 87q-19 0 -36 44.5t-19 99t16 100.5q26 0 40.5 1.5t37.5 10.5t41 27q116 57 264 65t260 -24q125 -114 125 -203q16 16 47.5 17.5t64 3.5t50.5 18l-162 -160q-21 -42 -41 -102.5t-39 -99.5q0 -29 -5.5 -34t-39.5 -5q0 -32 -5 -42.5 t-34 -41.5v-39v-41q-17 0 -37 -9.5t-31 -19.5l-12 -10q-15 -15 -27.5 -38t-23.5 -34.5t-29 -11.5q-32 -60 -132.5 -84.5t-192.5 4.5q-19 0 -59 20.5t-60 20.5l-123 123h-41zM273.5 279q15.5 -72 50.5 -105q46 -16 69.5 -7.5t51 27.5t40.5 19q231 151 283 362h-39h-41 q-16 -5 -56.5 -18.5t-56 -18t-48 -12t-53 -7t-49.5 4t-58 13.5q0 -18 -21 -48.5t-42 -51.5l-21 -21q-25 -65 -9.5 -137zM367 739q18 -38 70.5 -54.5t110.5 -11.5t101 25h119q0 61 -25 112.5t-55 51.5h-80h-123q-7 0 -15 -2.5t-14.5 -5t-15 -9t-14 -10.5t-15.5 -13.5 t-14.5 -13.5t-15.5 -15.5t-14 -14.5v-39z" />
<glyph unicode="&#xf3;" horiz-adv-x="1071" d="M0 174v119q-29 151 26 238t177 87q-19 0 -36 44.5t-19 99t16 100.5q26 0 40.5 1.5t37.5 10.5t41 27q116 57 264 65t260 -24q125 -114 125 -203q16 16 47.5 17.5t64 3.5t50.5 18l-162 -160q-21 -42 -41 -102.5t-39 -99.5q0 -29 -5.5 -34t-39.5 -5q0 -32 -5 -42.5 t-34 -41.5v-39v-41q-17 0 -37 -9.5t-31 -19.5l-12 -10q-15 -15 -27.5 -38t-23.5 -34.5t-29 -11.5q-32 -60 -132.5 -84.5t-192.5 4.5q-19 0 -59 20.5t-60 20.5l-123 123h-41zM273.5 279q15.5 -72 50.5 -105q46 -16 69.5 -7.5t51 27.5t40.5 19q231 151 283 362h-39h-41 q-16 -5 -56.5 -18.5t-56 -18t-48 -12t-53 -7t-49.5 4t-58 13.5q0 -18 -21 -48.5t-42 -51.5l-21 -21q-25 -65 -9.5 -137zM367 739q18 -38 70.5 -54.5t110.5 -11.5t101 25h119q0 61 -25 112.5t-55 51.5h-80h-123q-7 0 -15 -2.5t-14.5 -5t-15 -9t-14 -10.5t-15.5 -13.5 t-14.5 -13.5t-15.5 -15.5t-14 -14.5v-39z" />
<glyph unicode="&#xf4;" horiz-adv-x="1071" d="M0 174v119q-29 151 26 238t177 87q-19 0 -36 44.5t-19 99t16 100.5q26 0 40.5 1.5t37.5 10.5t41 27q116 57 264 65t260 -24q125 -114 125 -203q16 16 47.5 17.5t64 3.5t50.5 18l-162 -160q-21 -42 -41 -102.5t-39 -99.5q0 -29 -5.5 -34t-39.5 -5q0 -32 -5 -42.5 t-34 -41.5v-39v-41q-17 0 -37 -9.5t-31 -19.5l-12 -10q-15 -15 -27.5 -38t-23.5 -34.5t-29 -11.5q-32 -60 -132.5 -84.5t-192.5 4.5q-19 0 -59 20.5t-60 20.5l-123 123h-41zM273.5 279q15.5 -72 50.5 -105q46 -16 69.5 -7.5t51 27.5t40.5 19q231 151 283 362h-39h-41 q-16 -5 -56.5 -18.5t-56 -18t-48 -12t-53 -7t-49.5 4t-58 13.5q0 -18 -21 -48.5t-42 -51.5l-21 -21q-25 -65 -9.5 -137zM276 1100q0 40 76 112q66 97 168 150q29 20 64.5 29.5t74.5 3t66 -32.5q20 -10 38.5 -53t35.5 -60q0 -30 43 -77.5t51 -71.5q37 0 37 -19q-37 0 -37 19 h-19h-18q-41 37 -57 37q-9 9 -18.5 28.5t-18.5 28.5q-39 39 -74 111q-22 0 -40.5 -3.5t-37 -12.5t-28.5 -15t-32 -22t-30 -21q-9 -17 -26.5 -32.5t-29.5 -22.5t-38 -21q-37 -19 -55 -37h-19q0 -8 -5 -12.5t-10 -5.5h-5q-6 0 -17.5 -4t-21 -4t-17.5 8zM367 739 q18 -38 70.5 -54.5t110.5 -11.5t101 25h119q0 61 -25 112.5t-55 51.5h-80h-123q-7 0 -15 -2.5t-14.5 -5t-15 -9t-14 -10.5t-15.5 -13.5t-14.5 -13.5t-15.5 -15.5t-14 -14.5v-39zM893 1100h18q-9 0 -16 -7q-2 5 -2 7z" />
<glyph unicode="&#xfa;" horiz-adv-x="1155" d="M-64 479q11 5 35 -6q-38 19 -15 77.5t66 120.5t86 111l42 49q20 11 36.5 38t37.5 53.5t55 38.5q38 20 128 20t128 -20v-27q13 -25 -3 -80.5t-52 -102t-72 -46.5q-7 -34 -22 -83t-21.5 -76.5t-4 -74t20.5 -100.5q7 -7 11 -13t4 -8t4 -4t9.5 -2h22.5q8 8 18 15.5t25.5 16.5 t24.5 14t31.5 16.5t29.5 15.5q135 138 256 231q7 7 19.5 29t31 34.5t52.5 12.5q38 20 102 20t102 -20q19 -17 23 -37t4 -65q-37 -36 -46 -129t5.5 -186.5t40.5 -145.5q10 -10 23.5 -18.5t20.5 -15t7 -17.5v-27q-21 -19 -26.5 -22t-24.5 -3q0 -77 -27 -102q-30 -11 -50 -5.5 t-44.5 18t-32.5 12.5q-6 4 -32.5 24.5t-32.5 25.5t-28 22.5t-29 25t-24.5 24.5t-25.5 29t-20.5 30t-21.5 36t-17 39q-51 -25 -102 -76q-87 -87 -205 -129q-112 -25 -290 125q-122 102 -199 216q-61 89 -34 101zM403 1018v37q0 16 3.5 34t10 40t9.5 34q0 6 7 26.5t7 33.5 q20 26 56 81t53 78q6 10 59 72q5 3 10 4.5t7 4.5t6 14h26q12 -6 39.5 -12t34.5 -11q0 -5 2 -8t4 -4h2q0 -4 3 -19t3 -26t-6 -15q0 -6 -2 -9.5t-9 -9t-11 -9.5q-6 -7 -21.5 -26.5t-24 -29.5t-22 -25t-27 -27t-28.5 -23q-2 -3 -12.5 -16t-10.5 -21q-5 -2 -15 -5t-13.5 -4.5 t-8.5 -5t-8 -8.5q-8 -8 -14.5 -19.5t-11.5 -17.5q-11 0 -11 -12l-12 -10q0 -6 -7 -6t-7 -6q0 -15 -10 -15q0 -5 -2 -5q-5 0 -11 -5v-12h-14q-3 -5 -6 -15.5t-7 -16t-10 -5.5z" />
<glyph unicode="&#xfb;" horiz-adv-x="1155" d="M-64 479q11 5 35 -6q-38 19 -15 77.5t66 120.5t86 111l42 49q20 11 36.5 38t37.5 53.5t55 38.5q38 20 128 20t128 -20v-27q13 -25 -3 -80.5t-52 -102t-72 -46.5q-7 -34 -22 -83t-21.5 -76.5t-4 -74t20.5 -100.5q7 -7 11 -13t4 -8t4 -4t9.5 -2h22.5q8 8 18 15.5t25.5 16.5 t24.5 14t31.5 16.5t29.5 15.5q135 138 256 231q7 7 19.5 29t31 34.5t52.5 12.5q38 20 102 20t102 -20q19 -17 23 -37t4 -65q-37 -36 -46 -129t5.5 -186.5t40.5 -145.5q10 -10 23.5 -18.5t20.5 -15t7 -17.5v-27q-21 -19 -26.5 -22t-24.5 -3q0 -77 -27 -102q-30 -11 -50 -5.5 t-44.5 18t-32.5 12.5q-6 4 -32.5 24.5t-32.5 25.5t-28 22.5t-29 25t-24.5 24.5t-25.5 29t-20.5 30t-21.5 36t-17 39q-51 -25 -102 -76q-87 -87 -205 -129q-112 -25 -290 125q-122 102 -199 216q-61 89 -34 101zM176 1114q0 47 88 131q74 113 197 176q35 23 76.5 34.5t87.5 4 t77 -38.5q23 -12 45.5 -62t43.5 -71q0 -36 50 -91t60 -83q15 0 21 -0.5t14 -5.5t8 -16q-16 0 -22.5 0.5t-13.5 5.5t-7 16h-3h-3h-3h-3h-3h-7h-23q-4 3 -16 14.5t-17 15.5t-14.5 8.5t-17.5 4.5q-11 11 -22.5 33.5t-23.5 32.5q-50 53 -86 133q-31 0 -61 -9.5t-43.5 -16.5 t-49.5 -32t-44 -30q-11 -21 -31.5 -39t-33.5 -25t-46 -24q-42 -22 -65 -45h-21q0 -9 -5.5 -14t-10.5 -6l-6 -1q-8 0 -22 -5t-24.5 -5t-19.5 10zM901 1114h21q-8 0 -19 -10q-2 7 -2 10z" />
<glyph unicode="&#xfc;" horiz-adv-x="1155" d="M-64 479q11 5 35 -6q-38 19 -15 77.5t66 120.5t86 111l42 49q20 11 36.5 38t37.5 53.5t55 38.5q38 20 128 20t128 -20v-27q13 -25 -3 -80.5t-52 -102t-72 -46.5q-7 -34 -22 -83t-21.5 -76.5t-4 -74t20.5 -100.5q7 -7 11 -13t4 -8t4 -4t9.5 -2h22.5q8 8 18 15.5t25.5 16.5 t24.5 14t31.5 16.5t29.5 15.5q135 138 256 231q7 7 19.5 29t31 34.5t52.5 12.5q38 20 102 20t102 -20q19 -17 23 -37t4 -65q-37 -36 -46 -129t5.5 -186.5t40.5 -145.5q10 -10 23.5 -18.5t20.5 -15t7 -17.5v-27q-21 -19 -26.5 -22t-24.5 -3q0 -77 -27 -102q-30 -11 -50 -5.5 t-44.5 18t-32.5 12.5q-6 4 -32.5 24.5t-32.5 25.5t-28 22.5t-29 25t-24.5 24.5t-25.5 29t-20.5 30t-21.5 36t-17 39q-51 -25 -102 -76q-87 -87 -205 -129q-112 -25 -290 125q-122 102 -199 216q-61 89 -34 101zM188 1262q29 30 29 59q39 12 81 4t69.5 -22t68.5 -27.5 t80 -13.5q7 -19 8.5 -29t-7.5 -19t-18 -13.5t-22 -12t-20 -14.5q-90 0 -90 -31q-24 24 -64 42t-71.5 35t-43.5 42zM846 1174v57q26 14 56 14t66 -7t56 -7q0 -15 15.5 -29t15.5 -28q0 -11 -4.5 -18t-15.5 -9.5t-19 -3t-23 -0.5q-21 0 -24.5 -3.5t-3.5 -27.5q-2 2 -4.5 5 t-7 10t-2 11.5t13.5 4.5q-29 0 -59 15.5t-60 15.5z" />
<glyph unicode="&#x153;" d="M172 348l33 33l-33 35l33 33q0 22 1 34t9 31t23 35q9 19 31.5 78t47.5 108t56 78q32 0 65 33h33v35q16 0 30 -14q3 -3 3 2v12l33 34q50 50 67 66h33v33h33h32q0 12 5.5 19t17 10t20 3.5t25.5 0.5h33h35q0 -17 16 -33t16 -33v-33v33q-18 18 -42 30.5t-49 15.5t-42 -13h33 h33q32 -15 47.5 -34t17.5 -30.5t2 -34.5h1h2l12 -1q-1 -1 -2 -3q-13 -12 -13 -30v-35q7 7 11 13t4.5 9.5t1 6t0 3.5t1.5 2t4.5 1h10.5v-35q-11 0 -14.5 -5t-2 -11.5t-2 -11.5t-14.5 -5v-131v-68v68q16 16 49 48.5t50 49.5v33h1h1h1h1h1h1h1h1h1h1h1h1h1h1h1h1h1h1h1h1h1h1 h10q17 17 68.5 68t67.5 67h98h33h32h66h7.5t16.5 -2t21.5 -5t17 -10t7.5 -16q-16 0 -24.5 -17.5t-9.5 -34.5l-1 -17v-33q0 -22 -1 -34t-9.5 -30.5t-24.5 -33.5l-66 -66v-35h-32v-1v-1v-1v-1v-1v-1v-1v-1v-1v-1v-1v-1v-1v-1v-1v-1v-1v-1v-1v-1v-1v-1v-10q-16 0 -24.5 -0.5 t-20 -3.5t-16.5 -10t-5 -19q-11 -12 -24 -15.5t-21 -2t-14 -2t-6 -15.5q-25 0 -29 -4t-4 -29h-37q0 -25 -4 -28.5t-29 -3.5v-68v-66q0 -15 -8.5 -31t-16.5 -25l-8 -9q0 -16 16.5 -33t16.5 -33h33h37h33q23 23 34 33t30 21.5t34 11.5q17 33 66 115.5t65 115.5v33 q16 0 24.5 8.5t9.5 17.5l1 9v33h35v32h32h33q0 26 4 30.5t29 4.5v-35h33v-65v-35v35q24 0 -100 -88l-66 -45v-35l-35 -33v-33q0 -25 -4 -28.5t-29 -3.5q0 -15 8.5 -23t16.5 -9l8 -1q-23 0 -44.5 -35.5t-21.5 -64.5q-15 0 -31 -17t-36 -45t-31 -39q-36 -18 -85 -30.5 t-107.5 -16t-106.5 13.5q27 30 0 33l-33 33h33q0 -15 8.5 -23t16.5 -9l8 -1q0 17 -16.5 33t-16.5 33l33 -33h65h-1h-1h-1h-1h-1h-1h-1h-1h-1h-1h-1h-1h-1h-1h-1h-1h-1h-1h-1h-1h-1h-1h-10v33v35h-33l-33 34v33q-4 0 -9.5 1t-14.5 9t-9 23v33q-11 0 -13.5 -5t1 -11.5 t8.5 -11.5l4 -5h-3h-3h-3h-3h-3h-3h-3h-3h-8v65l-35 -32v-66v33v-33v-67l35 -35q-23 23 -34.5 37t-22.5 40.5t-11 57.5h-33q0 -22 -1 -34t-9.5 -31t-24.5 -35v1v1v1v1v1v1v1v1v1v1v1v1v1v1v1v1v1v1v1v1v1v1v1v1v1v9v-69q-15 0 -23 -8.5t-19 -27t-23 -30.5v33 q-22 -45 -96.5 -71.5t-134.5 -26.5q-11 11 -24.5 14.5t-22.5 2t-15 1.5t-6 14q-18 0 -51 16.5t-49 16.5q0 25 -4 33t-29 33v35q-33 35 -33 198zM406 348q0 -15 8 -23t16 -9l8 -1v-165v3v3v3v3v3v3v3v3v2v8v33v-67h33h33h33q16 17 49.5 66.5t50.5 66.5q0 17 16.5 33t16.5 32 h-66q-4 0 -10 1t-15.5 9t-9.5 23h-98q0 26 -20 47t-45 21v-101zM537 416h32h-32zM604 514h33v68v-33q11 0 14.5 -5.5t2 -12t2 -12t14.5 -5.5q0 -12 5 -19t16 -10t20 -3.5t26 -0.5q0 22 1 34.5t9 32t23 34.5q0 34 16.5 132.5t16.5 131.5q0 17 -0.5 26t-3.5 21t-10 17t-19 5 q-33 1 -68 -34q1 -35 -32 -68q-66 -132 -66 -264v33h33v-33q-25 0 -29 -4.5t-4 -30.5zM1137 682q12 12 47.5 32t68.5 45t47 54h-3h-3h-3h-3h-3h-3h-3h-3h-8h-33q-16 -17 -48.5 -66t-49.5 -65z" />
<glyph unicode="&#x2000;" horiz-adv-x="1046" />
<glyph unicode="&#x2001;" horiz-adv-x="2093" />
<glyph unicode="&#x2002;" horiz-adv-x="1046" />
<glyph unicode="&#x2003;" horiz-adv-x="2093" />
<glyph unicode="&#x2004;" horiz-adv-x="697" />
<glyph unicode="&#x2005;" horiz-adv-x="523" />
<glyph unicode="&#x2006;" horiz-adv-x="348" />
<glyph unicode="&#x2007;" horiz-adv-x="348" />
<glyph unicode="&#x2008;" horiz-adv-x="261" />
<glyph unicode="&#x2009;" horiz-adv-x="418" />
<glyph unicode="&#x200a;" horiz-adv-x="116" />
<glyph unicode="&#x201c;" d="M448.5 1133q-7.5 74 7 143.5t52.5 126.5v-53l53 -54v-53q0 -72 2 -111.5t14 -99.5t37 -110q0 -26 1 -40t6 -32t16.5 -26.5t30.5 -8.5v-55q0 -15 -6.5 -25.5t-15 -16t-25.5 -8t-28 -3t-32 -0.5h-53v161q-24 71 -38 131t-21.5 134zM668 1081q0 77 1.5 123.5t15 110.5 t38.5 88l53 -53v-54v-53q0 -81 26.5 -214.5t26.5 -213.5v-162q6 0 15 -1.5t24 -14.5t15 -37q-24 0 -37.5 -13t-15.5 -27l-1 -13h-53q-37 111 -54 168.5t-35.5 162t-18.5 203.5z" />
<glyph unicode="&#x201d;" d="M350 879v43q33 33 58.5 83t25.5 82q28 28 42 45t28 50.5t14 72.5q22 22 43 64t41 63q18 18 28.5 39t11.5 33l1 12h41v-84q0 -22 -20.5 -64t-20.5 -63v-84q-7 -15 -24 -53t-28.5 -60.5t-29.5 -52t-39 -50.5t-45 -33q-21 -21 -32.5 -31t-30 -21t-34 -8.5t-30.5 17.5z M667 760.5q-3 6.5 1.5 14t9.5 13.5l6 7v84q44 130 127 292q0 28 1.5 43.5t11 39.5t28.5 44q32 -32 32 -68.5t-32 -99.5v-43q-15 -45 -29 -105.5t-25 -93t-30 -50.5l-84 -84q-14 0 -17 6.5z" />
<glyph unicode="&#x2026;" />
<glyph unicode="&#x202f;" horiz-adv-x="418" />
<glyph unicode="&#x205f;" horiz-adv-x="523" />
<glyph unicode="&#xe000;" horiz-adv-x="1024" d="M0 0v1024h1024v-1024h-1024z" />
</font>
</defs>
</svg>
